;TYPE=PLATED
;Layer: PTH_Through_Via
;EasyEDA Pro v2.2.47.7, 2026-05-31 17:46:15
;Gerber Generator version 0.3
M48
METRIC,LZ,0000.00000
;Hole size 1 = 0.30500 METRIC
T01C0.30500
%
G05
G90
T01
X53.84202Y48.9744
X53.8449Y48.2124
X57.99617Y56.7438
X58.75817Y56.7438
X67.818Y48.514
X66.167Y52.705
X66.04Y54.229
X61.722Y52.705
X57.15Y53.34
X58.039Y50.292
X54.991Y45.974
X35.306Y54.229
X36.068Y46.59005
X43.688Y49.911
X48.26Y50.48408
X53.848Y52.01996
X39.37394Y59.69
X41.656Y59.69
X53.086Y45.974
X50.927Y43.815
M30