;TYPE=PLATED
;Layer: PTH_Through
;EasyEDA Pro v2.2.47.7, 2026-05-31 17:46:15
;Gerber Generator version 0.3
M48
METRIC,LZ,0000.00000
;Hole size 1 = 0.30500 METRIC
T01C0.30500
;Hole size 2 = 0.60000 METRIC
T02C0.60000
%
G05
G90
T01
X53.84202Y48.9744
X53.8449Y48.2124
X57.99617Y56.7438
X58.75817Y56.7438
X67.818Y48.514
X66.167Y52.705
X66.04Y54.229
X61.722Y52.705
X57.15Y53.34
X58.039Y50.292
X54.991Y45.974
X35.306Y54.229
X36.068Y46.59005
X43.688Y49.911
X48.26Y50.48408
X53.848Y52.01996
X39.37394Y59.69
X41.656Y59.69
X53.086Y45.974
X50.927Y43.815
T02
X44.07593Y57.92296G85X44.07593Y58.82296
X35.42591Y57.92297G85X35.42591Y58.823
X44.07599Y62.27303G85X44.07599Y62.87303
X35.42602Y62.27303G85X35.42602Y62.87303
X63.12593Y57.92296G85X63.12593Y58.82296
X54.47591Y57.92297G85X54.47591Y58.823
X63.12599Y62.27303G85X63.12599Y62.87303
X54.47602Y62.27303G85X54.47602Y62.87303
X35.93407Y43.55004G85X35.93407Y42.65004
X44.58409Y43.55003G85X44.58409Y42.65
X35.93402Y39.19997G85X35.93402Y38.59997
X44.58399Y39.19997G85X44.58399Y38.59997
X71.51196Y46.72907G85X72.41196Y46.72907
X71.51197Y55.37909G85X72.412Y55.37909
X75.86203Y46.72902G85X76.46203Y46.72902
X75.86203Y55.37899G85X76.46203Y55.37899
X54.98407Y43.67704G85X54.98407Y42.77704
X63.63409Y43.67703G85X63.63409Y42.777
X54.98402Y39.32697G85X54.98402Y38.72697
X63.63399Y39.32697G85X63.63399Y38.72697
M30