G04 Layer: TopPasteMaskLayer*
G04 EasyEDA Pro v2.2.47.7, 2026-05-31 17:46:15*
G04 Gerber Generator version 0.3*
G04 Scale: 100 percent, Rotated: No, Reflected: No*
G04 Dimensions in millimeters*
G04 Leading zeros omitted, absolute positions, 4 integers and 5 decimals*
G04 Generated by one-click*
G04 Object Configs: Pad,Via,Track,Text,Image,Dimension,BoardOutline,BoardCutout,CopperFilled,SolidRegion,FPCStiffener,Line,PlaneZone,ComponentProperty,ComponentSilkscreen,TearDrop*
G04 Layer Configs: 1,2,3,4,5,6,7,8,9,10,11,13,14,56*
G04 Copper Areas: 0*
%FSLAX45Y45*%
%MOMM*%
%ADD10R,0.8X0.9*%
%ADD11R,0.9X0.8*%
%ADD12R,1.2X0.25001*%
%ADD13C,0.2252*%
G75*


G04 PolygonModel Start*
G36*
G01X6967681Y5014973D02*
G01X6887681Y5014973D01*
G01X6882680Y5009972D01*
G01X6882680Y4987176D01*
G01X6919680Y4987176D01*
G01X6919680Y4954176D01*
G01X6882680Y4954176D01*
G01X6882680Y4929972D01*
G01X6887681Y4924974D01*
G01X6967681Y4924974D01*
G01X6972680Y4929972D01*
G01X6972680Y5009972D01*
G01X6967681Y5014973D01*
G37*
G36*
G01X6728677Y4924976D02*
G01X6808677Y4924976D01*
G01X6813678Y4929977D01*
G01X6813678Y4952774D01*
G01X6776678Y4952774D01*
G01X6776678Y4985774D01*
G01X6813678Y4985774D01*
G01X6813678Y5009977D01*
G01X6808677Y5014976D01*
G01X6728677Y5014976D01*
G01X6723678Y5009977D01*
G01X6723678Y4929977D01*
G01X6728677Y4924976D01*
G37*
G36*
G01X6980381Y5251999D02*
G01X6900381Y5251999D01*
G01X6895380Y5246997D01*
G01X6895380Y5224201D01*
G01X6932380Y5224201D01*
G01X6932380Y5191201D01*
G01X6895380Y5191201D01*
G01X6895380Y5166998D01*
G01X6900381Y5161999D01*
G01X6980381Y5161999D01*
G01X6985380Y5166998D01*
G01X6985380Y5246997D01*
G01X6980381Y5251999D01*
G37*
G36*
G01X6741377Y5162001D02*
G01X6821377Y5162001D01*
G01X6826378Y5167003D01*
G01X6826378Y5189799D01*
G01X6789378Y5189799D01*
G01X6789378Y5222799D01*
G01X6826378Y5222799D01*
G01X6826378Y5247002D01*
G01X6821377Y5252001D01*
G01X6741377Y5252001D01*
G01X6736378Y5247002D01*
G01X6736378Y5167003D01*
G01X6741377Y5162001D01*
G37*
G36*
G01X5747299Y5430398D02*
G01X5747299Y5510398D01*
G01X5742297Y5515399D01*
G01X5719501Y5515399D01*
G01X5719501Y5478399D01*
G01X5686501Y5478399D01*
G01X5686501Y5515399D01*
G01X5662298Y5515399D01*
G01X5657299Y5510398D01*
G01X5657299Y5430398D01*
G01X5662298Y5425399D01*
G01X5742297Y5425399D01*
G01X5747299Y5430398D01*
G37*
G36*
G01X5657301Y5669402D02*
G01X5657301Y5589402D01*
G01X5662303Y5584401D01*
G01X5685099Y5584401D01*
G01X5685099Y5621401D01*
G01X5718099Y5621401D01*
G01X5718099Y5584401D01*
G01X5742302Y5584401D01*
G01X5747301Y5589402D01*
G01X5747301Y5669402D01*
G01X5742302Y5674401D01*
G01X5662303Y5674401D01*
G01X5657301Y5669402D01*
G37*
G36*
G01X6034880Y5429082D02*
G01X6034880Y5509082D01*
G01X6029879Y5514083D01*
G01X6007082Y5514083D01*
G01X6007082Y5477083D01*
G01X5974083Y5477083D01*
G01X5974083Y5514083D01*
G01X5949879Y5514083D01*
G01X5944880Y5509082D01*
G01X5944880Y5429082D01*
G01X5949879Y5424084D01*
G01X6029879Y5424084D01*
G01X6034880Y5429082D01*
G37*
G36*
G01X5944883Y5668086D02*
G01X5944883Y5588086D01*
G01X5949884Y5583085D01*
G01X5972680Y5583085D01*
G01X5972680Y5620085D01*
G01X6005680Y5620085D01*
G01X6005680Y5583085D01*
G01X6029884Y5583085D01*
G01X6034883Y5588086D01*
G01X6034883Y5668086D01*
G01X6029884Y5673085D01*
G01X5949884Y5673085D01*
G01X5944883Y5668086D01*
G37*
G36*
G01X3842299Y5404998D02*
G01X3842299Y5484998D01*
G01X3837297Y5489999D01*
G01X3814501Y5489999D01*
G01X3814501Y5452999D01*
G01X3781501Y5452999D01*
G01X3781501Y5489999D01*
G01X3757298Y5489999D01*
G01X3752299Y5484998D01*
G01X3752299Y5404998D01*
G01X3757298Y5399999D01*
G01X3837297Y5399999D01*
G01X3842299Y5404998D01*
G37*
G36*
G01X3752301Y5644002D02*
G01X3752301Y5564002D01*
G01X3757303Y5559001D01*
G01X3780099Y5559001D01*
G01X3780099Y5596001D01*
G01X3813099Y5596001D01*
G01X3813099Y5559001D01*
G01X3837302Y5559001D01*
G01X3842301Y5564002D01*
G01X3842301Y5644002D01*
G01X3837302Y5649001D01*
G01X3757303Y5649001D01*
G01X3752301Y5644002D01*
G37*
G36*
G01X4156456Y5401955D02*
G01X4156456Y5481955D01*
G01X4151455Y5486956D01*
G01X4128658Y5486956D01*
G01X4128658Y5449956D01*
G01X4095659Y5449956D01*
G01X4095659Y5486956D01*
G01X4071455Y5486956D01*
G01X4066456Y5481955D01*
G01X4066456Y5401955D01*
G01X4071455Y5396956D01*
G01X4151455Y5396956D01*
G01X4156456Y5401955D01*
G37*
G36*
G01X4066459Y5640959D02*
G01X4066459Y5560959D01*
G01X4071460Y5555958D01*
G01X4094256Y5555958D01*
G01X4094256Y5592958D01*
G01X4127256Y5592958D01*
G01X4127256Y5555958D01*
G01X4151460Y5555958D01*
G01X4156459Y5560959D01*
G01X4156459Y5640959D01*
G01X4151460Y5645958D01*
G01X4071460Y5645958D01*
G01X4066459Y5640959D01*
G37*
G36*
G01X5784301Y4716902D02*
G01X5784301Y4636902D01*
G01X5789303Y4631901D01*
G01X5812099Y4631901D01*
G01X5812099Y4668901D01*
G01X5845099Y4668901D01*
G01X5845099Y4631901D01*
G01X5869302Y4631901D01*
G01X5874301Y4636902D01*
G01X5874301Y4716902D01*
G01X5869302Y4721901D01*
G01X5789303Y4721901D01*
G01X5784301Y4716902D01*
G37*
G36*
G01X5874299Y4477898D02*
G01X5874299Y4557898D01*
G01X5869297Y4562899D01*
G01X5846501Y4562899D01*
G01X5846501Y4525899D01*
G01X5813501Y4525899D01*
G01X5813501Y4562899D01*
G01X5789298Y4562899D01*
G01X5784299Y4557898D01*
G01X5784299Y4477898D01*
G01X5789298Y4472899D01*
G01X5869297Y4472899D01*
G01X5874299Y4477898D01*
G37*
G36*
G01X6057166Y4733089D02*
G01X6057166Y4653090D01*
G01X6062167Y4648088D01*
G01X6084964Y4648088D01*
G01X6084964Y4685088D01*
G01X6117963Y4685088D01*
G01X6117963Y4648088D01*
G01X6142167Y4648088D01*
G01X6147166Y4653090D01*
G01X6147166Y4733089D01*
G01X6142167Y4738088D01*
G01X6062167Y4738088D01*
G01X6057166Y4733089D01*
G37*
G36*
G01X6147163Y4494086D02*
G01X6147163Y4574085D01*
G01X6142162Y4579087D01*
G01X6119365Y4579087D01*
G01X6119365Y4542086D01*
G01X6086366Y4542086D01*
G01X6086366Y4579087D01*
G01X6062162Y4579087D01*
G01X6057163Y4574085D01*
G01X6057163Y4494086D01*
G01X6062162Y4489087D01*
G01X6142162Y4489087D01*
G01X6147163Y4494086D01*
G37*
G36*
G01X3853901Y4704202D02*
G01X3853901Y4624202D01*
G01X3858903Y4619201D01*
G01X3881699Y4619201D01*
G01X3881699Y4656201D01*
G01X3914699Y4656201D01*
G01X3914699Y4619201D01*
G01X3938902Y4619201D01*
G01X3943901Y4624202D01*
G01X3943901Y4704202D01*
G01X3938902Y4709201D01*
G01X3858903Y4709201D01*
G01X3853901Y4704202D01*
G37*
G36*
G01X3943899Y4465198D02*
G01X3943899Y4545198D01*
G01X3938897Y4550199D01*
G01X3916101Y4550199D01*
G01X3916101Y4513199D01*
G01X3883101Y4513199D01*
G01X3883101Y4550199D01*
G01X3858898Y4550199D01*
G01X3853899Y4545198D01*
G01X3853899Y4465198D01*
G01X3858898Y4460199D01*
G01X3938897Y4460199D01*
G01X3943899Y4465198D01*
G37*
G36*
G01X4148821Y4709417D02*
G01X4148821Y4629417D01*
G01X4153822Y4624415D01*
G01X4176619Y4624415D01*
G01X4176619Y4661416D01*
G01X4209618Y4661416D01*
G01X4209618Y4624415D01*
G01X4233822Y4624415D01*
G01X4238821Y4629417D01*
G01X4238821Y4709417D01*
G01X4233822Y4714415D01*
G01X4153822Y4714415D01*
G01X4148821Y4709417D01*
G37*
G36*
G01X4238818Y4470413D02*
G01X4238818Y4550413D01*
G01X4233817Y4555414D01*
G01X4211020Y4555414D01*
G01X4211020Y4518414D01*
G01X4178021Y4518414D01*
G01X4178021Y4555414D01*
G01X4153817Y4555414D01*
G01X4148818Y4550413D01*
G01X4148818Y4470413D01*
G01X4153817Y4465414D01*
G01X4233817Y4465414D01*
G01X4238818Y4470413D01*
G37*
G36*
G01X3835093Y5837296D02*
G01X3835093Y5727296D01*
G01X3865095Y5727296D01*
G01X3865095Y5837296D01*
G01X3835093Y5837296D01*
G37*
G36*
G01X3815083Y5727296D02*
G01X3815083Y5837296D01*
G01X3785080Y5837296D01*
G01X3785080Y5727296D01*
G01X3815083Y5727296D01*
G37*
G36*
G01X4325102Y5727296D02*
G01X4325102Y5837296D01*
G01X4265102Y5837296D01*
G01X4265102Y5727296D01*
G01X4325102Y5727296D01*
G37*
G36*
G01X3885105Y5837296D02*
G01X3885105Y5727296D01*
G01X3915108Y5727296D01*
G01X3915108Y5837296D01*
G01X3885105Y5837296D01*
G37*
G36*
G01X3765083Y5727296D02*
G01X3765083Y5837296D01*
G01X3705083Y5837296D01*
G01X3705083Y5727296D01*
G01X3765083Y5727296D01*
G37*
G36*
G01X3625098Y5837296D02*
G01X3625098Y5727296D01*
G01X3685098Y5727296D01*
G01X3685098Y5837296D01*
G01X3625098Y5837296D01*
G37*
G36*
G01X3935092Y5837296D02*
G01X3935092Y5727296D01*
G01X3965095Y5727296D01*
G01X3965095Y5837296D01*
G01X3935092Y5837296D01*
G37*
G36*
G01X3985105Y5837296D02*
G01X3985105Y5727296D01*
G01X4015108Y5727296D01*
G01X4015108Y5837296D01*
G01X3985105Y5837296D01*
G37*
G36*
G01X4245092Y5727296D02*
G01X4245092Y5837296D01*
G01X4185092Y5837296D01*
G01X4185092Y5727296D01*
G01X4245092Y5727296D01*
G37*
G36*
G01X4035092Y5837296D02*
G01X4035092Y5727296D01*
G01X4065095Y5727296D01*
G01X4065095Y5837296D01*
G01X4035092Y5837296D01*
G37*
G36*
G01X4085079Y5837296D02*
G01X4085079Y5727296D01*
G01X4115082Y5727296D01*
G01X4115082Y5837296D01*
G01X4085079Y5837296D01*
G37*
G36*
G01X4135092Y5837296D02*
G01X4135092Y5727296D01*
G01X4165095Y5727296D01*
G01X4165095Y5837296D01*
G01X4135092Y5837296D01*
G37*
G36*
G01X3538118Y5737456D02*
G01X3541105Y5737306D01*
G01X3544098Y5737306D01*
G01X3547085Y5737456D01*
G01X3550061Y5737753D01*
G01X3553021Y5738200D01*
G01X3555952Y5738792D01*
G01X3558852Y5739531D01*
G01X3561710Y5740413D01*
G01X3564522Y5741436D01*
G01X3567278Y5742597D01*
G01X3569975Y5743895D01*
G01X3572601Y5745328D01*
G01X3575154Y5746887D01*
G01X3577626Y5748571D01*
G01X3580011Y5750380D01*
G01X3582302Y5752302D01*
G01X3584496Y5754337D01*
G01X3586584Y5756478D01*
G01X3588565Y5758721D01*
G01X3590430Y5761060D01*
G01X3592175Y5763489D01*
G01X3593798Y5766003D01*
G01X3595294Y5768594D01*
G01X3596660Y5771256D01*
G01X3597890Y5773981D01*
G01X3598982Y5776768D01*
G01X3599937Y5779602D01*
G01X3600747Y5782483D01*
G01X3601413Y5785399D01*
G01X3601931Y5788345D01*
G01X3602304Y5791314D01*
G01X3602528Y5794299D01*
G01X3602601Y5797288D01*
G01X3602601Y5877288D01*
G01X3602528Y5880278D01*
G01X3602304Y5883262D01*
G01X3601931Y5886232D01*
G01X3601413Y5889178D01*
G01X3600747Y5892094D01*
G01X3599937Y5894974D01*
G01X3598982Y5897809D01*
G01X3597890Y5900595D01*
G01X3596660Y5903321D01*
G01X3595294Y5905983D01*
G01X3593798Y5908573D01*
G01X3592175Y5911088D01*
G01X3590430Y5913516D01*
G01X3588565Y5915856D01*
G01X3586584Y5918098D01*
G01X3584496Y5920240D01*
G01X3582302Y5922274D01*
G01X3580011Y5924197D01*
G01X3577626Y5926005D01*
G01X3575154Y5927689D01*
G01X3572601Y5929249D01*
G01X3569975Y5930682D01*
G01X3567278Y5931980D01*
G01X3564522Y5933140D01*
G01X3561710Y5934164D01*
G01X3558852Y5935045D01*
G01X3555952Y5935784D01*
G01X3553021Y5936376D01*
G01X3550061Y5936823D01*
G01X3547085Y5937120D01*
G01X3544098Y5937270D01*
G01X3541105Y5937270D01*
G01X3538118Y5937120D01*
G01X3535142Y5936823D01*
G01X3532182Y5936376D01*
G01X3529251Y5935784D01*
G01X3526351Y5935045D01*
G01X3523493Y5934164D01*
G01X3520681Y5933140D01*
G01X3517925Y5931980D01*
G01X3515228Y5930682D01*
G01X3512602Y5929249D01*
G01X3510049Y5927689D01*
G01X3507577Y5926005D01*
G01X3505192Y5924197D01*
G01X3502901Y5922274D01*
G01X3500707Y5920240D01*
G01X3498619Y5918098D01*
G01X3496638Y5915856D01*
G01X3494773Y5913516D01*
G01X3493028Y5911088D01*
G01X3491405Y5908573D01*
G01X3489909Y5905983D01*
G01X3488543Y5903321D01*
G01X3487313Y5900595D01*
G01X3486221Y5897809D01*
G01X3485266Y5894974D01*
G01X3484456Y5892094D01*
G01X3483790Y5889178D01*
G01X3483272Y5886232D01*
G01X3482899Y5883262D01*
G01X3482675Y5880278D01*
G01X3482602Y5877288D01*
G01X3482602Y5797288D01*
G01X3482675Y5794299D01*
G01X3482899Y5791314D01*
G01X3483272Y5788345D01*
G01X3483790Y5785399D01*
G01X3484456Y5782483D01*
G01X3485266Y5779602D01*
G01X3486221Y5776768D01*
G01X3487313Y5773981D01*
G01X3488543Y5771256D01*
G01X3489909Y5768594D01*
G01X3491405Y5766003D01*
G01X3493028Y5763489D01*
G01X3494773Y5761060D01*
G01X3496638Y5758721D01*
G01X3498619Y5756478D01*
G01X3500707Y5754337D01*
G01X3502901Y5752302D01*
G01X3505192Y5750380D01*
G01X3507577Y5748571D01*
G01X3510049Y5746887D01*
G01X3512602Y5745328D01*
G01X3515228Y5743895D01*
G01X3517925Y5742597D01*
G01X3520681Y5741436D01*
G01X3523493Y5740413D01*
G01X3526351Y5739531D01*
G01X3529251Y5738792D01*
G01X3532182Y5738200D01*
G01X3535142Y5737753D01*
G01X3538118Y5737456D01*
G37*
G36*
G01X4409095Y5737306D02*
G01X4412082Y5737456D01*
G01X4415058Y5737753D01*
G01X4418018Y5738200D01*
G01X4420949Y5738792D01*
G01X4423849Y5739531D01*
G01X4426707Y5740413D01*
G01X4429519Y5741436D01*
G01X4432275Y5742597D01*
G01X4434972Y5743895D01*
G01X4437598Y5745328D01*
G01X4440151Y5746887D01*
G01X4442623Y5748571D01*
G01X4445008Y5750380D01*
G01X4447299Y5752302D01*
G01X4449493Y5754337D01*
G01X4451581Y5756478D01*
G01X4453562Y5758721D01*
G01X4455427Y5761060D01*
G01X4457172Y5763489D01*
G01X4458795Y5766003D01*
G01X4460291Y5768594D01*
G01X4461657Y5771256D01*
G01X4462887Y5773981D01*
G01X4463979Y5776768D01*
G01X4464934Y5779602D01*
G01X4465744Y5782483D01*
G01X4466410Y5785399D01*
G01X4466928Y5788345D01*
G01X4467301Y5791314D01*
G01X4467525Y5794299D01*
G01X4467598Y5797288D01*
G01X4467598Y5877288D01*
G01X4467525Y5880278D01*
G01X4467301Y5883262D01*
G01X4466928Y5886232D01*
G01X4466410Y5889178D01*
G01X4465744Y5892094D01*
G01X4464934Y5894974D01*
G01X4463979Y5897809D01*
G01X4462887Y5900595D01*
G01X4461657Y5903321D01*
G01X4460291Y5905983D01*
G01X4458795Y5908573D01*
G01X4457172Y5911088D01*
G01X4455427Y5913516D01*
G01X4453562Y5915856D01*
G01X4451581Y5918098D01*
G01X4449493Y5920240D01*
G01X4447299Y5922274D01*
G01X4445008Y5924197D01*
G01X4442623Y5926005D01*
G01X4440151Y5927689D01*
G01X4437598Y5929249D01*
G01X4434972Y5930682D01*
G01X4432275Y5931980D01*
G01X4429519Y5933140D01*
G01X4426707Y5934164D01*
G01X4423849Y5935045D01*
G01X4420949Y5935784D01*
G01X4418018Y5936376D01*
G01X4415058Y5936823D01*
G01X4412082Y5937120D01*
G01X4409095Y5937270D01*
G01X4406102Y5937270D01*
G01X4403115Y5937120D01*
G01X4400139Y5936823D01*
G01X4397179Y5936376D01*
G01X4394248Y5935784D01*
G01X4391348Y5935045D01*
G01X4388490Y5934164D01*
G01X4385678Y5933140D01*
G01X4382922Y5931980D01*
G01X4380225Y5930682D01*
G01X4377599Y5929249D01*
G01X4375046Y5927689D01*
G01X4372574Y5926005D01*
G01X4370189Y5924197D01*
G01X4367898Y5922274D01*
G01X4365704Y5920240D01*
G01X4363616Y5918098D01*
G01X4361635Y5915856D01*
G01X4359770Y5913516D01*
G01X4358025Y5911088D01*
G01X4356402Y5908573D01*
G01X4354906Y5905983D01*
G01X4353540Y5903321D01*
G01X4352310Y5900595D01*
G01X4351218Y5897809D01*
G01X4350263Y5894974D01*
G01X4349453Y5892094D01*
G01X4348787Y5889178D01*
G01X4348269Y5886232D01*
G01X4347896Y5883262D01*
G01X4347672Y5880278D01*
G01X4347599Y5877288D01*
G01X4347599Y5797288D01*
G01X4347672Y5794299D01*
G01X4347896Y5791314D01*
G01X4348269Y5788345D01*
G01X4348787Y5785399D01*
G01X4349453Y5782483D01*
G01X4350263Y5779602D01*
G01X4351218Y5776768D01*
G01X4352310Y5773981D01*
G01X4353540Y5771256D01*
G01X4354906Y5768594D01*
G01X4356402Y5766003D01*
G01X4358025Y5763489D01*
G01X4359770Y5761060D01*
G01X4361635Y5758721D01*
G01X4363616Y5756478D01*
G01X4365704Y5754337D01*
G01X4367898Y5752302D01*
G01X4370189Y5750380D01*
G01X4372574Y5748571D01*
G01X4375046Y5746887D01*
G01X4377599Y5745328D01*
G01X4380225Y5743895D01*
G01X4382922Y5742597D01*
G01X4385678Y5741436D01*
G01X4388490Y5740413D01*
G01X4391348Y5739531D01*
G01X4394248Y5738792D01*
G01X4397179Y5738200D01*
G01X4400139Y5737753D01*
G01X4403115Y5737456D01*
G01X4406102Y5737306D01*
G01X4409095Y5737306D01*
G37*
G36*
G01X4403115Y6182472D02*
G01X4406102Y6182322D01*
G01X4409095Y6182322D01*
G01X4412082Y6182472D01*
G01X4415058Y6182769D01*
G01X4418018Y6183216D01*
G01X4420949Y6183808D01*
G01X4423849Y6184547D01*
G01X4426707Y6185428D01*
G01X4429519Y6186452D01*
G01X4432275Y6187613D01*
G01X4434972Y6188911D01*
G01X4437598Y6190343D01*
G01X4440151Y6191903D01*
G01X4442623Y6193587D01*
G01X4445008Y6195395D01*
G01X4447299Y6197318D01*
G01X4449493Y6199353D01*
G01X4451581Y6201494D01*
G01X4453562Y6203737D01*
G01X4455427Y6206076D01*
G01X4457172Y6208504D01*
G01X4458795Y6211019D01*
G01X4460291Y6213610D01*
G01X4461657Y6216272D01*
G01X4462887Y6218997D01*
G01X4463979Y6221783D01*
G01X4464934Y6224618D01*
G01X4465744Y6227498D01*
G01X4466410Y6230414D01*
G01X4466928Y6233361D01*
G01X4467301Y6236330D01*
G01X4467525Y6239314D01*
G01X4467598Y6242304D01*
G01X4467598Y6272304D01*
G01X4467525Y6275294D01*
G01X4467301Y6278278D01*
G01X4466928Y6281247D01*
G01X4466410Y6284194D01*
G01X4465744Y6287110D01*
G01X4464934Y6289990D01*
G01X4463979Y6292825D01*
G01X4462887Y6295611D01*
G01X4461657Y6298336D01*
G01X4460291Y6300998D01*
G01X4458795Y6303589D01*
G01X4457172Y6306104D01*
G01X4455427Y6308532D01*
G01X4453562Y6310871D01*
G01X4451581Y6313114D01*
G01X4449493Y6315255D01*
G01X4447299Y6317290D01*
G01X4445008Y6319213D01*
G01X4442623Y6321021D01*
G01X4440151Y6322705D01*
G01X4437598Y6324265D01*
G01X4434972Y6325697D01*
G01X4432275Y6326995D01*
G01X4429519Y6328156D01*
G01X4426707Y6329180D01*
G01X4423849Y6330061D01*
G01X4420949Y6330800D01*
G01X4418018Y6331392D01*
G01X4415058Y6331839D01*
G01X4412082Y6332136D01*
G01X4409095Y6332286D01*
G01X4406102Y6332286D01*
G01X4403115Y6332136D01*
G01X4400139Y6331839D01*
G01X4397179Y6331392D01*
G01X4394248Y6330800D01*
G01X4391348Y6330061D01*
G01X4388490Y6329180D01*
G01X4385678Y6328156D01*
G01X4382922Y6326995D01*
G01X4380225Y6325697D01*
G01X4377599Y6324265D01*
G01X4375046Y6322705D01*
G01X4372574Y6321021D01*
G01X4370189Y6319213D01*
G01X4367898Y6317290D01*
G01X4365704Y6315255D01*
G01X4363616Y6313114D01*
G01X4361635Y6310871D01*
G01X4359770Y6308532D01*
G01X4358025Y6306104D01*
G01X4356402Y6303589D01*
G01X4354906Y6300998D01*
G01X4353540Y6298336D01*
G01X4352310Y6295611D01*
G01X4351218Y6292825D01*
G01X4350263Y6289990D01*
G01X4349453Y6287110D01*
G01X4348787Y6284194D01*
G01X4348269Y6281247D01*
G01X4347896Y6278278D01*
G01X4347672Y6275294D01*
G01X4347599Y6272304D01*
G01X4347599Y6242304D01*
G01X4347672Y6239314D01*
G01X4347896Y6236330D01*
G01X4348269Y6233361D01*
G01X4348787Y6230414D01*
G01X4349453Y6227498D01*
G01X4350263Y6224618D01*
G01X4351218Y6221783D01*
G01X4352310Y6218997D01*
G01X4353540Y6216272D01*
G01X4354906Y6213610D01*
G01X4356402Y6211019D01*
G01X4358025Y6208504D01*
G01X4359770Y6206076D01*
G01X4361635Y6203737D01*
G01X4363616Y6201494D01*
G01X4365704Y6199353D01*
G01X4367898Y6197318D01*
G01X4370189Y6195395D01*
G01X4372574Y6193587D01*
G01X4375046Y6191903D01*
G01X4377599Y6190343D01*
G01X4380225Y6188911D01*
G01X4382922Y6187613D01*
G01X4385678Y6186452D01*
G01X4388490Y6185428D01*
G01X4391348Y6184547D01*
G01X4394248Y6183808D01*
G01X4397179Y6183216D01*
G01X4400139Y6182769D01*
G01X4403115Y6182472D01*
G37*
G36*
G01X3544098Y6182322D02*
G01X3547085Y6182472D01*
G01X3550061Y6182769D01*
G01X3553021Y6183216D01*
G01X3555952Y6183808D01*
G01X3558852Y6184547D01*
G01X3561710Y6185428D01*
G01X3564522Y6186452D01*
G01X3567278Y6187613D01*
G01X3569975Y6188911D01*
G01X3572601Y6190343D01*
G01X3575154Y6191903D01*
G01X3577626Y6193587D01*
G01X3580011Y6195395D01*
G01X3582302Y6197318D01*
G01X3584496Y6199353D01*
G01X3586584Y6201494D01*
G01X3588565Y6203737D01*
G01X3590430Y6206076D01*
G01X3592175Y6208504D01*
G01X3593798Y6211019D01*
G01X3595294Y6213610D01*
G01X3596660Y6216272D01*
G01X3597890Y6218997D01*
G01X3598982Y6221783D01*
G01X3599937Y6224618D01*
G01X3600747Y6227498D01*
G01X3601413Y6230414D01*
G01X3601931Y6233361D01*
G01X3602304Y6236330D01*
G01X3602528Y6239314D01*
G01X3602601Y6242304D01*
G01X3602601Y6272304D01*
G01X3602528Y6275294D01*
G01X3602304Y6278278D01*
G01X3601931Y6281247D01*
G01X3601413Y6284194D01*
G01X3600747Y6287110D01*
G01X3599937Y6289990D01*
G01X3598982Y6292825D01*
G01X3597890Y6295611D01*
G01X3596660Y6298336D01*
G01X3595294Y6300998D01*
G01X3593798Y6303589D01*
G01X3592175Y6306104D01*
G01X3590430Y6308532D01*
G01X3588565Y6310871D01*
G01X3586584Y6313114D01*
G01X3584496Y6315255D01*
G01X3582302Y6317290D01*
G01X3580011Y6319213D01*
G01X3577626Y6321021D01*
G01X3575154Y6322705D01*
G01X3572601Y6324265D01*
G01X3569975Y6325697D01*
G01X3567278Y6326995D01*
G01X3564522Y6328156D01*
G01X3561710Y6329180D01*
G01X3558852Y6330061D01*
G01X3555952Y6330800D01*
G01X3553021Y6331392D01*
G01X3550061Y6331839D01*
G01X3547085Y6332136D01*
G01X3544098Y6332286D01*
G01X3541105Y6332286D01*
G01X3538118Y6332136D01*
G01X3535142Y6331839D01*
G01X3532182Y6331392D01*
G01X3529251Y6330800D01*
G01X3526351Y6330061D01*
G01X3523493Y6329180D01*
G01X3520681Y6328156D01*
G01X3517925Y6326995D01*
G01X3515228Y6325697D01*
G01X3512602Y6324265D01*
G01X3510049Y6322705D01*
G01X3507577Y6321021D01*
G01X3505192Y6319213D01*
G01X3502901Y6317290D01*
G01X3500707Y6315255D01*
G01X3498619Y6313114D01*
G01X3496638Y6310871D01*
G01X3494773Y6308532D01*
G01X3493028Y6306104D01*
G01X3491405Y6303589D01*
G01X3489909Y6300998D01*
G01X3488543Y6298336D01*
G01X3487313Y6295611D01*
G01X3486221Y6292825D01*
G01X3485266Y6289990D01*
G01X3484456Y6287110D01*
G01X3483790Y6284194D01*
G01X3483272Y6281247D01*
G01X3482899Y6278278D01*
G01X3482675Y6275294D01*
G01X3482602Y6272304D01*
G01X3482602Y6242304D01*
G01X3482675Y6239314D01*
G01X3482899Y6236330D01*
G01X3483272Y6233361D01*
G01X3483790Y6230414D01*
G01X3484456Y6227498D01*
G01X3485266Y6224618D01*
G01X3486221Y6221783D01*
G01X3487313Y6218997D01*
G01X3488543Y6216272D01*
G01X3489909Y6213610D01*
G01X3491405Y6211019D01*
G01X3493028Y6208504D01*
G01X3494773Y6206076D01*
G01X3496638Y6203737D01*
G01X3498619Y6201494D01*
G01X3500707Y6199353D01*
G01X3502901Y6197318D01*
G01X3505192Y6195395D01*
G01X3507577Y6193587D01*
G01X3510049Y6191903D01*
G01X3512602Y6190343D01*
G01X3515228Y6188911D01*
G01X3517925Y6187613D01*
G01X3520681Y6186452D01*
G01X3523493Y6185428D01*
G01X3526351Y6184547D01*
G01X3529251Y6183808D01*
G01X3532182Y6183216D01*
G01X3535142Y6182769D01*
G01X3538118Y6182472D01*
G01X3541105Y6182322D01*
G01X3544098Y6182322D01*
G37*
G36*
G01X5740093Y5837296D02*
G01X5740093Y5727296D01*
G01X5770095Y5727296D01*
G01X5770095Y5837296D01*
G01X5740093Y5837296D01*
G37*
G36*
G01X5720083Y5727296D02*
G01X5720083Y5837296D01*
G01X5690080Y5837296D01*
G01X5690080Y5727296D01*
G01X5720083Y5727296D01*
G37*
G36*
G01X6230102Y5727296D02*
G01X6230102Y5837296D01*
G01X6170102Y5837296D01*
G01X6170102Y5727296D01*
G01X6230102Y5727296D01*
G37*
G36*
G01X5790105Y5837296D02*
G01X5790105Y5727296D01*
G01X5820108Y5727296D01*
G01X5820108Y5837296D01*
G01X5790105Y5837296D01*
G37*
G36*
G01X5670083Y5727296D02*
G01X5670083Y5837296D01*
G01X5610083Y5837296D01*
G01X5610083Y5727296D01*
G01X5670083Y5727296D01*
G37*
G36*
G01X5530098Y5837296D02*
G01X5530098Y5727296D01*
G01X5590098Y5727296D01*
G01X5590098Y5837296D01*
G01X5530098Y5837296D01*
G37*
G36*
G01X5840092Y5837296D02*
G01X5840092Y5727296D01*
G01X5870095Y5727296D01*
G01X5870095Y5837296D01*
G01X5840092Y5837296D01*
G37*
G36*
G01X5890105Y5837296D02*
G01X5890105Y5727296D01*
G01X5920108Y5727296D01*
G01X5920108Y5837296D01*
G01X5890105Y5837296D01*
G37*
G36*
G01X6150092Y5727296D02*
G01X6150092Y5837296D01*
G01X6090092Y5837296D01*
G01X6090092Y5727296D01*
G01X6150092Y5727296D01*
G37*
G36*
G01X5940092Y5837296D02*
G01X5940092Y5727296D01*
G01X5970095Y5727296D01*
G01X5970095Y5837296D01*
G01X5940092Y5837296D01*
G37*
G36*
G01X5990079Y5837296D02*
G01X5990079Y5727296D01*
G01X6020082Y5727296D01*
G01X6020082Y5837296D01*
G01X5990079Y5837296D01*
G37*
G36*
G01X6040092Y5837296D02*
G01X6040092Y5727296D01*
G01X6070095Y5727296D01*
G01X6070095Y5837296D01*
G01X6040092Y5837296D01*
G37*
G36*
G01X5443118Y5737456D02*
G01X5446105Y5737306D01*
G01X5449098Y5737306D01*
G01X5452085Y5737456D01*
G01X5455061Y5737753D01*
G01X5458021Y5738200D01*
G01X5460952Y5738792D01*
G01X5463852Y5739531D01*
G01X5466710Y5740413D01*
G01X5469522Y5741436D01*
G01X5472278Y5742597D01*
G01X5474975Y5743895D01*
G01X5477601Y5745328D01*
G01X5480154Y5746887D01*
G01X5482626Y5748571D01*
G01X5485011Y5750380D01*
G01X5487302Y5752302D01*
G01X5489496Y5754337D01*
G01X5491584Y5756478D01*
G01X5493565Y5758721D01*
G01X5495430Y5761060D01*
G01X5497175Y5763489D01*
G01X5498798Y5766003D01*
G01X5500294Y5768594D01*
G01X5501660Y5771256D01*
G01X5502890Y5773981D01*
G01X5503982Y5776768D01*
G01X5504937Y5779602D01*
G01X5505747Y5782483D01*
G01X5506413Y5785399D01*
G01X5506931Y5788345D01*
G01X5507304Y5791314D01*
G01X5507528Y5794299D01*
G01X5507601Y5797288D01*
G01X5507601Y5877288D01*
G01X5507528Y5880278D01*
G01X5507304Y5883262D01*
G01X5506931Y5886232D01*
G01X5506413Y5889178D01*
G01X5505747Y5892094D01*
G01X5504937Y5894974D01*
G01X5503982Y5897809D01*
G01X5502890Y5900595D01*
G01X5501660Y5903321D01*
G01X5500294Y5905983D01*
G01X5498798Y5908573D01*
G01X5497175Y5911088D01*
G01X5495430Y5913516D01*
G01X5493565Y5915856D01*
G01X5491584Y5918098D01*
G01X5489496Y5920240D01*
G01X5487302Y5922274D01*
G01X5485011Y5924197D01*
G01X5482626Y5926005D01*
G01X5480154Y5927689D01*
G01X5477601Y5929249D01*
G01X5474975Y5930682D01*
G01X5472278Y5931980D01*
G01X5469522Y5933140D01*
G01X5466710Y5934164D01*
G01X5463852Y5935045D01*
G01X5460952Y5935784D01*
G01X5458021Y5936376D01*
G01X5455061Y5936823D01*
G01X5452085Y5937120D01*
G01X5449098Y5937270D01*
G01X5446105Y5937270D01*
G01X5443118Y5937120D01*
G01X5440142Y5936823D01*
G01X5437182Y5936376D01*
G01X5434251Y5935784D01*
G01X5431351Y5935045D01*
G01X5428493Y5934164D01*
G01X5425681Y5933140D01*
G01X5422925Y5931980D01*
G01X5420228Y5930682D01*
G01X5417602Y5929249D01*
G01X5415049Y5927689D01*
G01X5412577Y5926005D01*
G01X5410192Y5924197D01*
G01X5407901Y5922274D01*
G01X5405707Y5920240D01*
G01X5403619Y5918098D01*
G01X5401638Y5915856D01*
G01X5399773Y5913516D01*
G01X5398028Y5911088D01*
G01X5396405Y5908573D01*
G01X5394909Y5905983D01*
G01X5393543Y5903321D01*
G01X5392313Y5900595D01*
G01X5391221Y5897809D01*
G01X5390266Y5894974D01*
G01X5389456Y5892094D01*
G01X5388790Y5889178D01*
G01X5388272Y5886232D01*
G01X5387899Y5883262D01*
G01X5387675Y5880278D01*
G01X5387602Y5877288D01*
G01X5387602Y5797288D01*
G01X5387675Y5794299D01*
G01X5387899Y5791314D01*
G01X5388272Y5788345D01*
G01X5388790Y5785399D01*
G01X5389456Y5782483D01*
G01X5390266Y5779602D01*
G01X5391221Y5776768D01*
G01X5392313Y5773981D01*
G01X5393543Y5771256D01*
G01X5394909Y5768594D01*
G01X5396405Y5766003D01*
G01X5398028Y5763489D01*
G01X5399773Y5761060D01*
G01X5401638Y5758721D01*
G01X5403619Y5756478D01*
G01X5405707Y5754337D01*
G01X5407901Y5752302D01*
G01X5410192Y5750380D01*
G01X5412577Y5748571D01*
G01X5415049Y5746887D01*
G01X5417602Y5745328D01*
G01X5420228Y5743895D01*
G01X5422925Y5742597D01*
G01X5425681Y5741436D01*
G01X5428493Y5740413D01*
G01X5431351Y5739531D01*
G01X5434251Y5738792D01*
G01X5437182Y5738200D01*
G01X5440142Y5737753D01*
G01X5443118Y5737456D01*
G37*
G36*
G01X6314095Y5737306D02*
G01X6317082Y5737456D01*
G01X6320058Y5737753D01*
G01X6323018Y5738200D01*
G01X6325949Y5738792D01*
G01X6328849Y5739531D01*
G01X6331707Y5740413D01*
G01X6334519Y5741436D01*
G01X6337275Y5742597D01*
G01X6339972Y5743895D01*
G01X6342598Y5745328D01*
G01X6345151Y5746887D01*
G01X6347623Y5748571D01*
G01X6350008Y5750380D01*
G01X6352299Y5752302D01*
G01X6354493Y5754337D01*
G01X6356581Y5756478D01*
G01X6358562Y5758721D01*
G01X6360427Y5761060D01*
G01X6362172Y5763489D01*
G01X6363795Y5766003D01*
G01X6365291Y5768594D01*
G01X6366657Y5771256D01*
G01X6367887Y5773981D01*
G01X6368979Y5776768D01*
G01X6369934Y5779602D01*
G01X6370744Y5782483D01*
G01X6371410Y5785399D01*
G01X6371928Y5788345D01*
G01X6372301Y5791314D01*
G01X6372525Y5794299D01*
G01X6372598Y5797288D01*
G01X6372598Y5877288D01*
G01X6372525Y5880278D01*
G01X6372301Y5883262D01*
G01X6371928Y5886232D01*
G01X6371410Y5889178D01*
G01X6370744Y5892094D01*
G01X6369934Y5894974D01*
G01X6368979Y5897809D01*
G01X6367887Y5900595D01*
G01X6366657Y5903321D01*
G01X6365291Y5905983D01*
G01X6363795Y5908573D01*
G01X6362172Y5911088D01*
G01X6360427Y5913516D01*
G01X6358562Y5915856D01*
G01X6356581Y5918098D01*
G01X6354493Y5920240D01*
G01X6352299Y5922274D01*
G01X6350008Y5924197D01*
G01X6347623Y5926005D01*
G01X6345151Y5927689D01*
G01X6342598Y5929249D01*
G01X6339972Y5930682D01*
G01X6337275Y5931980D01*
G01X6334519Y5933140D01*
G01X6331707Y5934164D01*
G01X6328849Y5935045D01*
G01X6325949Y5935784D01*
G01X6323018Y5936376D01*
G01X6320058Y5936823D01*
G01X6317082Y5937120D01*
G01X6314095Y5937270D01*
G01X6311102Y5937270D01*
G01X6308115Y5937120D01*
G01X6305139Y5936823D01*
G01X6302179Y5936376D01*
G01X6299248Y5935784D01*
G01X6296348Y5935045D01*
G01X6293490Y5934164D01*
G01X6290678Y5933140D01*
G01X6287922Y5931980D01*
G01X6285225Y5930682D01*
G01X6282599Y5929249D01*
G01X6280046Y5927689D01*
G01X6277574Y5926005D01*
G01X6275189Y5924197D01*
G01X6272898Y5922274D01*
G01X6270704Y5920240D01*
G01X6268616Y5918098D01*
G01X6266635Y5915856D01*
G01X6264770Y5913516D01*
G01X6263025Y5911088D01*
G01X6261402Y5908573D01*
G01X6259906Y5905983D01*
G01X6258540Y5903321D01*
G01X6257310Y5900595D01*
G01X6256218Y5897809D01*
G01X6255263Y5894974D01*
G01X6254453Y5892094D01*
G01X6253787Y5889178D01*
G01X6253269Y5886232D01*
G01X6252896Y5883262D01*
G01X6252672Y5880278D01*
G01X6252599Y5877288D01*
G01X6252599Y5797288D01*
G01X6252672Y5794299D01*
G01X6252896Y5791314D01*
G01X6253269Y5788345D01*
G01X6253787Y5785399D01*
G01X6254453Y5782483D01*
G01X6255263Y5779602D01*
G01X6256218Y5776768D01*
G01X6257310Y5773981D01*
G01X6258540Y5771256D01*
G01X6259906Y5768594D01*
G01X6261402Y5766003D01*
G01X6263025Y5763489D01*
G01X6264770Y5761060D01*
G01X6266635Y5758721D01*
G01X6268616Y5756478D01*
G01X6270704Y5754337D01*
G01X6272898Y5752302D01*
G01X6275189Y5750380D01*
G01X6277574Y5748571D01*
G01X6280046Y5746887D01*
G01X6282599Y5745328D01*
G01X6285225Y5743895D01*
G01X6287922Y5742597D01*
G01X6290678Y5741436D01*
G01X6293490Y5740413D01*
G01X6296348Y5739531D01*
G01X6299248Y5738792D01*
G01X6302179Y5738200D01*
G01X6305139Y5737753D01*
G01X6308115Y5737456D01*
G01X6311102Y5737306D01*
G01X6314095Y5737306D01*
G37*
G36*
G01X6308115Y6182472D02*
G01X6311102Y6182322D01*
G01X6314095Y6182322D01*
G01X6317082Y6182472D01*
G01X6320058Y6182769D01*
G01X6323018Y6183216D01*
G01X6325949Y6183808D01*
G01X6328849Y6184547D01*
G01X6331707Y6185428D01*
G01X6334519Y6186452D01*
G01X6337275Y6187613D01*
G01X6339972Y6188911D01*
G01X6342598Y6190343D01*
G01X6345151Y6191903D01*
G01X6347623Y6193587D01*
G01X6350008Y6195395D01*
G01X6352299Y6197318D01*
G01X6354493Y6199353D01*
G01X6356581Y6201494D01*
G01X6358562Y6203737D01*
G01X6360427Y6206076D01*
G01X6362172Y6208504D01*
G01X6363795Y6211019D01*
G01X6365291Y6213610D01*
G01X6366657Y6216272D01*
G01X6367887Y6218997D01*
G01X6368979Y6221783D01*
G01X6369934Y6224618D01*
G01X6370744Y6227498D01*
G01X6371410Y6230414D01*
G01X6371928Y6233361D01*
G01X6372301Y6236330D01*
G01X6372525Y6239314D01*
G01X6372598Y6242304D01*
G01X6372598Y6272304D01*
G01X6372525Y6275294D01*
G01X6372301Y6278278D01*
G01X6371928Y6281247D01*
G01X6371410Y6284194D01*
G01X6370744Y6287110D01*
G01X6369934Y6289990D01*
G01X6368979Y6292825D01*
G01X6367887Y6295611D01*
G01X6366657Y6298336D01*
G01X6365291Y6300998D01*
G01X6363795Y6303589D01*
G01X6362172Y6306104D01*
G01X6360427Y6308532D01*
G01X6358562Y6310871D01*
G01X6356581Y6313114D01*
G01X6354493Y6315255D01*
G01X6352299Y6317290D01*
G01X6350008Y6319213D01*
G01X6347623Y6321021D01*
G01X6345151Y6322705D01*
G01X6342598Y6324265D01*
G01X6339972Y6325697D01*
G01X6337275Y6326995D01*
G01X6334519Y6328156D01*
G01X6331707Y6329180D01*
G01X6328849Y6330061D01*
G01X6325949Y6330800D01*
G01X6323018Y6331392D01*
G01X6320058Y6331839D01*
G01X6317082Y6332136D01*
G01X6314095Y6332286D01*
G01X6311102Y6332286D01*
G01X6308115Y6332136D01*
G01X6305139Y6331839D01*
G01X6302179Y6331392D01*
G01X6299248Y6330800D01*
G01X6296348Y6330061D01*
G01X6293490Y6329180D01*
G01X6290678Y6328156D01*
G01X6287922Y6326995D01*
G01X6285225Y6325697D01*
G01X6282599Y6324265D01*
G01X6280046Y6322705D01*
G01X6277574Y6321021D01*
G01X6275189Y6319213D01*
G01X6272898Y6317290D01*
G01X6270704Y6315255D01*
G01X6268616Y6313114D01*
G01X6266635Y6310871D01*
G01X6264770Y6308532D01*
G01X6263025Y6306104D01*
G01X6261402Y6303589D01*
G01X6259906Y6300998D01*
G01X6258540Y6298336D01*
G01X6257310Y6295611D01*
G01X6256218Y6292825D01*
G01X6255263Y6289990D01*
G01X6254453Y6287110D01*
G01X6253787Y6284194D01*
G01X6253269Y6281247D01*
G01X6252896Y6278278D01*
G01X6252672Y6275294D01*
G01X6252599Y6272304D01*
G01X6252599Y6242304D01*
G01X6252672Y6239314D01*
G01X6252896Y6236330D01*
G01X6253269Y6233361D01*
G01X6253787Y6230414D01*
G01X6254453Y6227498D01*
G01X6255263Y6224618D01*
G01X6256218Y6221783D01*
G01X6257310Y6218997D01*
G01X6258540Y6216272D01*
G01X6259906Y6213610D01*
G01X6261402Y6211019D01*
G01X6263025Y6208504D01*
G01X6264770Y6206076D01*
G01X6266635Y6203737D01*
G01X6268616Y6201494D01*
G01X6270704Y6199353D01*
G01X6272898Y6197318D01*
G01X6275189Y6195395D01*
G01X6277574Y6193587D01*
G01X6280046Y6191903D01*
G01X6282599Y6190343D01*
G01X6285225Y6188911D01*
G01X6287922Y6187613D01*
G01X6290678Y6186452D01*
G01X6293490Y6185428D01*
G01X6296348Y6184547D01*
G01X6299248Y6183808D01*
G01X6302179Y6183216D01*
G01X6305139Y6182769D01*
G01X6308115Y6182472D01*
G37*
G36*
G01X5449098Y6182322D02*
G01X5452085Y6182472D01*
G01X5455061Y6182769D01*
G01X5458021Y6183216D01*
G01X5460952Y6183808D01*
G01X5463852Y6184547D01*
G01X5466710Y6185428D01*
G01X5469522Y6186452D01*
G01X5472278Y6187613D01*
G01X5474975Y6188911D01*
G01X5477601Y6190343D01*
G01X5480154Y6191903D01*
G01X5482626Y6193587D01*
G01X5485011Y6195395D01*
G01X5487302Y6197318D01*
G01X5489496Y6199353D01*
G01X5491584Y6201494D01*
G01X5493565Y6203737D01*
G01X5495430Y6206076D01*
G01X5497175Y6208504D01*
G01X5498798Y6211019D01*
G01X5500294Y6213610D01*
G01X5501660Y6216272D01*
G01X5502890Y6218997D01*
G01X5503982Y6221783D01*
G01X5504937Y6224618D01*
G01X5505747Y6227498D01*
G01X5506413Y6230414D01*
G01X5506931Y6233361D01*
G01X5507304Y6236330D01*
G01X5507528Y6239314D01*
G01X5507601Y6242304D01*
G01X5507601Y6272304D01*
G01X5507528Y6275294D01*
G01X5507304Y6278278D01*
G01X5506931Y6281247D01*
G01X5506413Y6284194D01*
G01X5505747Y6287110D01*
G01X5504937Y6289990D01*
G01X5503982Y6292825D01*
G01X5502890Y6295611D01*
G01X5501660Y6298336D01*
G01X5500294Y6300998D01*
G01X5498798Y6303589D01*
G01X5497175Y6306104D01*
G01X5495430Y6308532D01*
G01X5493565Y6310871D01*
G01X5491584Y6313114D01*
G01X5489496Y6315255D01*
G01X5487302Y6317290D01*
G01X5485011Y6319213D01*
G01X5482626Y6321021D01*
G01X5480154Y6322705D01*
G01X5477601Y6324265D01*
G01X5474975Y6325697D01*
G01X5472278Y6326995D01*
G01X5469522Y6328156D01*
G01X5466710Y6329180D01*
G01X5463852Y6330061D01*
G01X5460952Y6330800D01*
G01X5458021Y6331392D01*
G01X5455061Y6331839D01*
G01X5452085Y6332136D01*
G01X5449098Y6332286D01*
G01X5446105Y6332286D01*
G01X5443118Y6332136D01*
G01X5440142Y6331839D01*
G01X5437182Y6331392D01*
G01X5434251Y6330800D01*
G01X5431351Y6330061D01*
G01X5428493Y6329180D01*
G01X5425681Y6328156D01*
G01X5422925Y6326995D01*
G01X5420228Y6325697D01*
G01X5417602Y6324265D01*
G01X5415049Y6322705D01*
G01X5412577Y6321021D01*
G01X5410192Y6319213D01*
G01X5407901Y6317290D01*
G01X5405707Y6315255D01*
G01X5403619Y6313114D01*
G01X5401638Y6310871D01*
G01X5399773Y6308532D01*
G01X5398028Y6306104D01*
G01X5396405Y6303589D01*
G01X5394909Y6300998D01*
G01X5393543Y6298336D01*
G01X5392313Y6295611D01*
G01X5391221Y6292825D01*
G01X5390266Y6289990D01*
G01X5389456Y6287110D01*
G01X5388790Y6284194D01*
G01X5388272Y6281247D01*
G01X5387899Y6278278D01*
G01X5387675Y6275294D01*
G01X5387602Y6272304D01*
G01X5387602Y6242304D01*
G01X5387675Y6239314D01*
G01X5387899Y6236330D01*
G01X5388272Y6233361D01*
G01X5388790Y6230414D01*
G01X5389456Y6227498D01*
G01X5390266Y6224618D01*
G01X5391221Y6221783D01*
G01X5392313Y6218997D01*
G01X5393543Y6216272D01*
G01X5394909Y6213610D01*
G01X5396405Y6211019D01*
G01X5398028Y6208504D01*
G01X5399773Y6206076D01*
G01X5401638Y6203737D01*
G01X5403619Y6201494D01*
G01X5405707Y6199353D01*
G01X5407901Y6197318D01*
G01X5410192Y6195395D01*
G01X5412577Y6193587D01*
G01X5415049Y6191903D01*
G01X5417602Y6190343D01*
G01X5420228Y6188911D01*
G01X5422925Y6187613D01*
G01X5425681Y6186452D01*
G01X5428493Y6185428D01*
G01X5431351Y6184547D01*
G01X5434251Y6183808D01*
G01X5437182Y6183216D01*
G01X5440142Y6182769D01*
G01X5443118Y6182472D01*
G01X5446105Y6182322D01*
G01X5449098Y6182322D01*
G37*
G36*
G01X4165907Y4310004D02*
G01X4165907Y4420004D01*
G01X4135905Y4420004D01*
G01X4135905Y4310004D01*
G01X4165907Y4310004D01*
G37*
G36*
G01X4185917Y4420004D02*
G01X4185917Y4310004D01*
G01X4215920Y4310004D01*
G01X4215920Y4420004D01*
G01X4185917Y4420004D01*
G37*
G36*
G01X3675898Y4420004D02*
G01X3675898Y4310004D01*
G01X3735898Y4310004D01*
G01X3735898Y4420004D01*
G01X3675898Y4420004D01*
G37*
G36*
G01X4115895Y4310004D02*
G01X4115895Y4420004D01*
G01X4085892Y4420004D01*
G01X4085892Y4310004D01*
G01X4115895Y4310004D01*
G37*
G36*
G01X4235917Y4420004D02*
G01X4235917Y4310004D01*
G01X4295917Y4310004D01*
G01X4295917Y4420004D01*
G01X4235917Y4420004D01*
G37*
G36*
G01X4375902Y4310004D02*
G01X4375902Y4420004D01*
G01X4315902Y4420004D01*
G01X4315902Y4310004D01*
G01X4375902Y4310004D01*
G37*
G36*
G01X4065908Y4310004D02*
G01X4065908Y4420004D01*
G01X4035905Y4420004D01*
G01X4035905Y4310004D01*
G01X4065908Y4310004D01*
G37*
G36*
G01X4015895Y4310004D02*
G01X4015895Y4420004D01*
G01X3985892Y4420004D01*
G01X3985892Y4310004D01*
G01X4015895Y4310004D01*
G37*
G36*
G01X3755908Y4420004D02*
G01X3755908Y4310004D01*
G01X3815908Y4310004D01*
G01X3815908Y4420004D01*
G01X3755908Y4420004D01*
G37*
G36*
G01X3965908Y4310004D02*
G01X3965908Y4420004D01*
G01X3935905Y4420004D01*
G01X3935905Y4310004D01*
G01X3965908Y4310004D01*
G37*
G36*
G01X3915921Y4310004D02*
G01X3915921Y4420004D01*
G01X3885918Y4420004D01*
G01X3885918Y4310004D01*
G01X3915921Y4310004D01*
G37*
G36*
G01X3865908Y4310004D02*
G01X3865908Y4420004D01*
G01X3835905Y4420004D01*
G01X3835905Y4310004D01*
G01X3865908Y4310004D01*
G37*
G36*
G01X4462882Y4409844D02*
G01X4459895Y4409994D01*
G01X4456902Y4409994D01*
G01X4453915Y4409844D01*
G01X4450939Y4409547D01*
G01X4447979Y4409100D01*
G01X4445048Y4408508D01*
G01X4442148Y4407769D01*
G01X4439290Y4406887D01*
G01X4436478Y4405864D01*
G01X4433722Y4404703D01*
G01X4431025Y4403405D01*
G01X4428399Y4401972D01*
G01X4425846Y4400413D01*
G01X4423374Y4398729D01*
G01X4420989Y4396920D01*
G01X4418698Y4394998D01*
G01X4416504Y4392963D01*
G01X4414416Y4390822D01*
G01X4412435Y4388579D01*
G01X4410570Y4386240D01*
G01X4408825Y4383811D01*
G01X4407202Y4381297D01*
G01X4405706Y4378706D01*
G01X4404340Y4376044D01*
G01X4403110Y4373319D01*
G01X4402018Y4370532D01*
G01X4401063Y4367698D01*
G01X4400253Y4364817D01*
G01X4399587Y4361901D01*
G01X4399069Y4358955D01*
G01X4398696Y4355986D01*
G01X4398472Y4353001D01*
G01X4398399Y4350012D01*
G01X4398399Y4270012D01*
G01X4398472Y4267022D01*
G01X4398696Y4264038D01*
G01X4399069Y4261068D01*
G01X4399587Y4258122D01*
G01X4400253Y4255206D01*
G01X4401063Y4252326D01*
G01X4402018Y4249491D01*
G01X4403110Y4246705D01*
G01X4404340Y4243979D01*
G01X4405706Y4241317D01*
G01X4407202Y4238727D01*
G01X4408825Y4236212D01*
G01X4410570Y4233784D01*
G01X4412435Y4231444D01*
G01X4414416Y4229202D01*
G01X4416504Y4227060D01*
G01X4418698Y4225026D01*
G01X4420989Y4223103D01*
G01X4423374Y4221295D01*
G01X4425846Y4219611D01*
G01X4428399Y4218051D01*
G01X4431025Y4216618D01*
G01X4433722Y4215321D01*
G01X4436478Y4214160D01*
G01X4439290Y4213136D01*
G01X4442148Y4212255D01*
G01X4445048Y4211516D01*
G01X4447979Y4210924D01*
G01X4450939Y4210477D01*
G01X4453915Y4210180D01*
G01X4456902Y4210030D01*
G01X4459895Y4210030D01*
G01X4462882Y4210180D01*
G01X4465858Y4210477D01*
G01X4468818Y4210924D01*
G01X4471749Y4211516D01*
G01X4474649Y4212255D01*
G01X4477507Y4213136D01*
G01X4480319Y4214160D01*
G01X4483075Y4215321D01*
G01X4485772Y4216618D01*
G01X4488398Y4218051D01*
G01X4490951Y4219611D01*
G01X4493423Y4221295D01*
G01X4495808Y4223103D01*
G01X4498099Y4225026D01*
G01X4500293Y4227060D01*
G01X4502381Y4229202D01*
G01X4504362Y4231444D01*
G01X4506227Y4233784D01*
G01X4507972Y4236212D01*
G01X4509595Y4238727D01*
G01X4511091Y4241317D01*
G01X4512457Y4243979D01*
G01X4513687Y4246705D01*
G01X4514779Y4249491D01*
G01X4515734Y4252326D01*
G01X4516544Y4255206D01*
G01X4517210Y4258122D01*
G01X4517728Y4261068D01*
G01X4518101Y4264038D01*
G01X4518325Y4267022D01*
G01X4518398Y4270012D01*
G01X4518398Y4350012D01*
G01X4518325Y4353001D01*
G01X4518101Y4355986D01*
G01X4517728Y4358955D01*
G01X4517210Y4361901D01*
G01X4516544Y4364817D01*
G01X4515734Y4367698D01*
G01X4514779Y4370532D01*
G01X4513687Y4373319D01*
G01X4512457Y4376044D01*
G01X4511091Y4378706D01*
G01X4509595Y4381297D01*
G01X4507972Y4383811D01*
G01X4506227Y4386240D01*
G01X4504362Y4388579D01*
G01X4502381Y4390822D01*
G01X4500293Y4392963D01*
G01X4498099Y4394998D01*
G01X4495808Y4396920D01*
G01X4493423Y4398729D01*
G01X4490951Y4400413D01*
G01X4488398Y4401972D01*
G01X4485772Y4403405D01*
G01X4483075Y4404703D01*
G01X4480319Y4405864D01*
G01X4477507Y4406887D01*
G01X4474649Y4407769D01*
G01X4471749Y4408508D01*
G01X4468818Y4409100D01*
G01X4465858Y4409547D01*
G01X4462882Y4409844D01*
G37*
G36*
G01X3591905Y4409994D02*
G01X3588918Y4409844D01*
G01X3585942Y4409547D01*
G01X3582982Y4409100D01*
G01X3580051Y4408508D01*
G01X3577151Y4407769D01*
G01X3574293Y4406887D01*
G01X3571481Y4405864D01*
G01X3568725Y4404703D01*
G01X3566028Y4403405D01*
G01X3563402Y4401972D01*
G01X3560849Y4400413D01*
G01X3558377Y4398729D01*
G01X3555992Y4396920D01*
G01X3553701Y4394998D01*
G01X3551507Y4392963D01*
G01X3549419Y4390822D01*
G01X3547438Y4388579D01*
G01X3545573Y4386240D01*
G01X3543828Y4383811D01*
G01X3542205Y4381297D01*
G01X3540709Y4378706D01*
G01X3539343Y4376044D01*
G01X3538113Y4373319D01*
G01X3537021Y4370532D01*
G01X3536066Y4367698D01*
G01X3535256Y4364817D01*
G01X3534590Y4361901D01*
G01X3534072Y4358955D01*
G01X3533699Y4355986D01*
G01X3533475Y4353001D01*
G01X3533402Y4350012D01*
G01X3533402Y4270012D01*
G01X3533475Y4267022D01*
G01X3533699Y4264038D01*
G01X3534072Y4261068D01*
G01X3534590Y4258122D01*
G01X3535256Y4255206D01*
G01X3536066Y4252326D01*
G01X3537021Y4249491D01*
G01X3538113Y4246705D01*
G01X3539343Y4243979D01*
G01X3540709Y4241317D01*
G01X3542205Y4238727D01*
G01X3543828Y4236212D01*
G01X3545573Y4233784D01*
G01X3547438Y4231444D01*
G01X3549419Y4229202D01*
G01X3551507Y4227060D01*
G01X3553701Y4225026D01*
G01X3555992Y4223103D01*
G01X3558377Y4221295D01*
G01X3560849Y4219611D01*
G01X3563402Y4218051D01*
G01X3566028Y4216618D01*
G01X3568725Y4215321D01*
G01X3571481Y4214160D01*
G01X3574293Y4213136D01*
G01X3577151Y4212255D01*
G01X3580051Y4211516D01*
G01X3582982Y4210924D01*
G01X3585942Y4210477D01*
G01X3588918Y4210180D01*
G01X3591905Y4210030D01*
G01X3594898Y4210030D01*
G01X3597885Y4210180D01*
G01X3600861Y4210477D01*
G01X3603821Y4210924D01*
G01X3606752Y4211516D01*
G01X3609652Y4212255D01*
G01X3612510Y4213136D01*
G01X3615322Y4214160D01*
G01X3618078Y4215321D01*
G01X3620775Y4216618D01*
G01X3623401Y4218051D01*
G01X3625954Y4219611D01*
G01X3628426Y4221295D01*
G01X3630811Y4223103D01*
G01X3633102Y4225026D01*
G01X3635296Y4227060D01*
G01X3637384Y4229202D01*
G01X3639365Y4231444D01*
G01X3641230Y4233784D01*
G01X3642975Y4236212D01*
G01X3644598Y4238727D01*
G01X3646094Y4241317D01*
G01X3647460Y4243979D01*
G01X3648690Y4246705D01*
G01X3649782Y4249491D01*
G01X3650737Y4252326D01*
G01X3651547Y4255206D01*
G01X3652213Y4258122D01*
G01X3652731Y4261068D01*
G01X3653104Y4264038D01*
G01X3653328Y4267022D01*
G01X3653401Y4270012D01*
G01X3653401Y4350012D01*
G01X3653328Y4353001D01*
G01X3653104Y4355986D01*
G01X3652731Y4358955D01*
G01X3652213Y4361901D01*
G01X3651547Y4364817D01*
G01X3650737Y4367698D01*
G01X3649782Y4370532D01*
G01X3648690Y4373319D01*
G01X3647460Y4376044D01*
G01X3646094Y4378706D01*
G01X3644598Y4381297D01*
G01X3642975Y4383811D01*
G01X3641230Y4386240D01*
G01X3639365Y4388579D01*
G01X3637384Y4390822D01*
G01X3635296Y4392963D01*
G01X3633102Y4394998D01*
G01X3630811Y4396920D01*
G01X3628426Y4398729D01*
G01X3625954Y4400413D01*
G01X3623401Y4401972D01*
G01X3620775Y4403405D01*
G01X3618078Y4404703D01*
G01X3615322Y4405864D01*
G01X3612510Y4406887D01*
G01X3609652Y4407769D01*
G01X3606752Y4408508D01*
G01X3603821Y4409100D01*
G01X3600861Y4409547D01*
G01X3597885Y4409844D01*
G01X3594898Y4409994D01*
G01X3591905Y4409994D01*
G37*
G36*
G01X3597885Y3964828D02*
G01X3594898Y3964978D01*
G01X3591905Y3964978D01*
G01X3588918Y3964828D01*
G01X3585942Y3964531D01*
G01X3582982Y3964084D01*
G01X3580051Y3963492D01*
G01X3577151Y3962753D01*
G01X3574293Y3961872D01*
G01X3571481Y3960848D01*
G01X3568725Y3959687D01*
G01X3566028Y3958389D01*
G01X3563402Y3956957D01*
G01X3560849Y3955397D01*
G01X3558377Y3953713D01*
G01X3555992Y3951905D01*
G01X3553701Y3949982D01*
G01X3551507Y3947947D01*
G01X3549419Y3945806D01*
G01X3547438Y3943563D01*
G01X3545573Y3941224D01*
G01X3543828Y3938796D01*
G01X3542205Y3936281D01*
G01X3540709Y3933690D01*
G01X3539343Y3931028D01*
G01X3538113Y3928303D01*
G01X3537021Y3925517D01*
G01X3536066Y3922682D01*
G01X3535256Y3919802D01*
G01X3534590Y3916886D01*
G01X3534072Y3913939D01*
G01X3533699Y3910970D01*
G01X3533475Y3907986D01*
G01X3533402Y3904996D01*
G01X3533402Y3874996D01*
G01X3533475Y3872006D01*
G01X3533699Y3869022D01*
G01X3534072Y3866053D01*
G01X3534590Y3863106D01*
G01X3535256Y3860190D01*
G01X3536066Y3857310D01*
G01X3537021Y3854475D01*
G01X3538113Y3851689D01*
G01X3539343Y3848964D01*
G01X3540709Y3846302D01*
G01X3542205Y3843711D01*
G01X3543828Y3841196D01*
G01X3545573Y3838768D01*
G01X3547438Y3836429D01*
G01X3549419Y3834186D01*
G01X3551507Y3832045D01*
G01X3553701Y3830010D01*
G01X3555992Y3828087D01*
G01X3558377Y3826279D01*
G01X3560849Y3824595D01*
G01X3563402Y3823035D01*
G01X3566028Y3821603D01*
G01X3568725Y3820305D01*
G01X3571481Y3819144D01*
G01X3574293Y3818120D01*
G01X3577151Y3817239D01*
G01X3580051Y3816500D01*
G01X3582982Y3815908D01*
G01X3585942Y3815461D01*
G01X3588918Y3815164D01*
G01X3591905Y3815014D01*
G01X3594898Y3815014D01*
G01X3597885Y3815164D01*
G01X3600861Y3815461D01*
G01X3603821Y3815908D01*
G01X3606752Y3816500D01*
G01X3609652Y3817239D01*
G01X3612510Y3818120D01*
G01X3615322Y3819144D01*
G01X3618078Y3820305D01*
G01X3620775Y3821603D01*
G01X3623401Y3823035D01*
G01X3625954Y3824595D01*
G01X3628426Y3826279D01*
G01X3630811Y3828087D01*
G01X3633102Y3830010D01*
G01X3635296Y3832045D01*
G01X3637384Y3834186D01*
G01X3639365Y3836429D01*
G01X3641230Y3838768D01*
G01X3642975Y3841196D01*
G01X3644598Y3843711D01*
G01X3646094Y3846302D01*
G01X3647460Y3848964D01*
G01X3648690Y3851689D01*
G01X3649782Y3854475D01*
G01X3650737Y3857310D01*
G01X3651547Y3860190D01*
G01X3652213Y3863106D01*
G01X3652731Y3866053D01*
G01X3653104Y3869022D01*
G01X3653328Y3872006D01*
G01X3653401Y3874996D01*
G01X3653401Y3904996D01*
G01X3653328Y3907986D01*
G01X3653104Y3910970D01*
G01X3652731Y3913939D01*
G01X3652213Y3916886D01*
G01X3651547Y3919802D01*
G01X3650737Y3922682D01*
G01X3649782Y3925517D01*
G01X3648690Y3928303D01*
G01X3647460Y3931028D01*
G01X3646094Y3933690D01*
G01X3644598Y3936281D01*
G01X3642975Y3938796D01*
G01X3641230Y3941224D01*
G01X3639365Y3943563D01*
G01X3637384Y3945806D01*
G01X3635296Y3947947D01*
G01X3633102Y3949982D01*
G01X3630811Y3951905D01*
G01X3628426Y3953713D01*
G01X3625954Y3955397D01*
G01X3623401Y3956957D01*
G01X3620775Y3958389D01*
G01X3618078Y3959687D01*
G01X3615322Y3960848D01*
G01X3612510Y3961872D01*
G01X3609652Y3962753D01*
G01X3606752Y3963492D01*
G01X3603821Y3964084D01*
G01X3600861Y3964531D01*
G01X3597885Y3964828D01*
G37*
G36*
G01X4456902Y3964978D02*
G01X4453915Y3964828D01*
G01X4450939Y3964531D01*
G01X4447979Y3964084D01*
G01X4445048Y3963492D01*
G01X4442148Y3962753D01*
G01X4439290Y3961872D01*
G01X4436478Y3960848D01*
G01X4433722Y3959687D01*
G01X4431025Y3958389D01*
G01X4428399Y3956957D01*
G01X4425846Y3955397D01*
G01X4423374Y3953713D01*
G01X4420989Y3951905D01*
G01X4418698Y3949982D01*
G01X4416504Y3947947D01*
G01X4414416Y3945806D01*
G01X4412435Y3943563D01*
G01X4410570Y3941224D01*
G01X4408825Y3938796D01*
G01X4407202Y3936281D01*
G01X4405706Y3933690D01*
G01X4404340Y3931028D01*
G01X4403110Y3928303D01*
G01X4402018Y3925517D01*
G01X4401063Y3922682D01*
G01X4400253Y3919802D01*
G01X4399587Y3916886D01*
G01X4399069Y3913939D01*
G01X4398696Y3910970D01*
G01X4398472Y3907986D01*
G01X4398399Y3904996D01*
G01X4398399Y3874996D01*
G01X4398472Y3872006D01*
G01X4398696Y3869022D01*
G01X4399069Y3866053D01*
G01X4399587Y3863106D01*
G01X4400253Y3860190D01*
G01X4401063Y3857310D01*
G01X4402018Y3854475D01*
G01X4403110Y3851689D01*
G01X4404340Y3848964D01*
G01X4405706Y3846302D01*
G01X4407202Y3843711D01*
G01X4408825Y3841196D01*
G01X4410570Y3838768D01*
G01X4412435Y3836429D01*
G01X4414416Y3834186D01*
G01X4416504Y3832045D01*
G01X4418698Y3830010D01*
G01X4420989Y3828087D01*
G01X4423374Y3826279D01*
G01X4425846Y3824595D01*
G01X4428399Y3823035D01*
G01X4431025Y3821603D01*
G01X4433722Y3820305D01*
G01X4436478Y3819144D01*
G01X4439290Y3818120D01*
G01X4442148Y3817239D01*
G01X4445048Y3816500D01*
G01X4447979Y3815908D01*
G01X4450939Y3815461D01*
G01X4453915Y3815164D01*
G01X4456902Y3815014D01*
G01X4459895Y3815014D01*
G01X4462882Y3815164D01*
G01X4465858Y3815461D01*
G01X4468818Y3815908D01*
G01X4471749Y3816500D01*
G01X4474649Y3817239D01*
G01X4477507Y3818120D01*
G01X4480319Y3819144D01*
G01X4483075Y3820305D01*
G01X4485772Y3821603D01*
G01X4488398Y3823035D01*
G01X4490951Y3824595D01*
G01X4493423Y3826279D01*
G01X4495808Y3828087D01*
G01X4498099Y3830010D01*
G01X4500293Y3832045D01*
G01X4502381Y3834186D01*
G01X4504362Y3836429D01*
G01X4506227Y3838768D01*
G01X4507972Y3841196D01*
G01X4509595Y3843711D01*
G01X4511091Y3846302D01*
G01X4512457Y3848964D01*
G01X4513687Y3851689D01*
G01X4514779Y3854475D01*
G01X4515734Y3857310D01*
G01X4516544Y3860190D01*
G01X4517210Y3863106D01*
G01X4517728Y3866053D01*
G01X4518101Y3869022D01*
G01X4518325Y3872006D01*
G01X4518398Y3874996D01*
G01X4518398Y3904996D01*
G01X4518325Y3907986D01*
G01X4518101Y3910970D01*
G01X4517728Y3913939D01*
G01X4517210Y3916886D01*
G01X4516544Y3919802D01*
G01X4515734Y3922682D01*
G01X4514779Y3925517D01*
G01X4513687Y3928303D01*
G01X4512457Y3931028D01*
G01X4511091Y3933690D01*
G01X4509595Y3936281D01*
G01X4507972Y3938796D01*
G01X4506227Y3941224D01*
G01X4504362Y3943563D01*
G01X4502381Y3945806D01*
G01X4500293Y3947947D01*
G01X4498099Y3949982D01*
G01X4495808Y3951905D01*
G01X4493423Y3953713D01*
G01X4490951Y3955397D01*
G01X4488398Y3956957D01*
G01X4485772Y3958389D01*
G01X4483075Y3959687D01*
G01X4480319Y3960848D01*
G01X4477507Y3961872D01*
G01X4474649Y3962753D01*
G01X4471749Y3963492D01*
G01X4468818Y3964084D01*
G01X4465858Y3964531D01*
G01X4462882Y3964828D01*
G01X4459895Y3964978D01*
G01X4456902Y3964978D01*
G37*
G36*
G01X7196196Y5245407D02*
G01X7086196Y5245407D01*
G01X7086196Y5215405D01*
G01X7196196Y5215405D01*
G01X7196196Y5245407D01*
G37*
G36*
G01X7086196Y5265417D02*
G01X7196196Y5265417D01*
G01X7196196Y5295420D01*
G01X7086196Y5295420D01*
G01X7086196Y5265417D01*
G37*
G36*
G01X7086196Y4755398D02*
G01X7196196Y4755398D01*
G01X7196196Y4815398D01*
G01X7086196Y4815398D01*
G01X7086196Y4755398D01*
G37*
G36*
G01X7196196Y5195395D02*
G01X7086196Y5195395D01*
G01X7086196Y5165392D01*
G01X7196196Y5165392D01*
G01X7196196Y5195395D01*
G37*
G36*
G01X7086196Y5315417D02*
G01X7196196Y5315417D01*
G01X7196196Y5375417D01*
G01X7086196Y5375417D01*
G01X7086196Y5315417D01*
G37*
G36*
G01X7196196Y5455402D02*
G01X7086196Y5455402D01*
G01X7086196Y5395402D01*
G01X7196196Y5395402D01*
G01X7196196Y5455402D01*
G37*
G36*
G01X7196196Y5145408D02*
G01X7086196Y5145408D01*
G01X7086196Y5115405D01*
G01X7196196Y5115405D01*
G01X7196196Y5145408D01*
G37*
G36*
G01X7196196Y5095395D02*
G01X7086196Y5095395D01*
G01X7086196Y5065392D01*
G01X7196196Y5065392D01*
G01X7196196Y5095395D01*
G37*
G36*
G01X7086196Y4835408D02*
G01X7196196Y4835408D01*
G01X7196196Y4895408D01*
G01X7086196Y4895408D01*
G01X7086196Y4835408D01*
G37*
G36*
G01X7196196Y5045408D02*
G01X7086196Y5045408D01*
G01X7086196Y5015405D01*
G01X7196196Y5015405D01*
G01X7196196Y5045408D01*
G37*
G36*
G01X7196196Y4995421D02*
G01X7086196Y4995421D01*
G01X7086196Y4965418D01*
G01X7196196Y4965418D01*
G01X7196196Y4995421D01*
G37*
G36*
G01X7196196Y4945408D02*
G01X7086196Y4945408D01*
G01X7086196Y4915405D01*
G01X7196196Y4915405D01*
G01X7196196Y4945408D01*
G37*
G36*
G01X7096356Y5542382D02*
G01X7096206Y5539395D01*
G01X7096206Y5536402D01*
G01X7096356Y5533415D01*
G01X7096653Y5530439D01*
G01X7097100Y5527479D01*
G01X7097692Y5524548D01*
G01X7098431Y5521648D01*
G01X7099313Y5518790D01*
G01X7100336Y5515978D01*
G01X7101497Y5513222D01*
G01X7102795Y5510525D01*
G01X7104228Y5507899D01*
G01X7105787Y5505346D01*
G01X7107471Y5502874D01*
G01X7109280Y5500489D01*
G01X7111202Y5498198D01*
G01X7113237Y5496004D01*
G01X7115378Y5493916D01*
G01X7117621Y5491935D01*
G01X7119960Y5490070D01*
G01X7122389Y5488325D01*
G01X7124903Y5486702D01*
G01X7127494Y5485206D01*
G01X7130156Y5483840D01*
G01X7132881Y5482610D01*
G01X7135668Y5481518D01*
G01X7138502Y5480563D01*
G01X7141383Y5479753D01*
G01X7144299Y5479087D01*
G01X7147245Y5478569D01*
G01X7150214Y5478196D01*
G01X7153199Y5477972D01*
G01X7156188Y5477899D01*
G01X7236188Y5477899D01*
G01X7239178Y5477972D01*
G01X7242162Y5478196D01*
G01X7245132Y5478569D01*
G01X7248078Y5479087D01*
G01X7250994Y5479753D01*
G01X7253874Y5480563D01*
G01X7256709Y5481518D01*
G01X7259495Y5482610D01*
G01X7262221Y5483840D01*
G01X7264883Y5485206D01*
G01X7267473Y5486702D01*
G01X7269988Y5488325D01*
G01X7272416Y5490070D01*
G01X7274756Y5491935D01*
G01X7276998Y5493916D01*
G01X7279140Y5496004D01*
G01X7281174Y5498198D01*
G01X7283097Y5500489D01*
G01X7284905Y5502874D01*
G01X7286589Y5505346D01*
G01X7288149Y5507899D01*
G01X7289582Y5510525D01*
G01X7290880Y5513222D01*
G01X7292040Y5515978D01*
G01X7293064Y5518790D01*
G01X7293945Y5521648D01*
G01X7294684Y5524548D01*
G01X7295276Y5527479D01*
G01X7295723Y5530439D01*
G01X7296020Y5533415D01*
G01X7296170Y5536402D01*
G01X7296170Y5539395D01*
G01X7296020Y5542382D01*
G01X7295723Y5545358D01*
G01X7295276Y5548318D01*
G01X7294684Y5551249D01*
G01X7293945Y5554149D01*
G01X7293064Y5557007D01*
G01X7292040Y5559819D01*
G01X7290880Y5562575D01*
G01X7289582Y5565272D01*
G01X7288149Y5567898D01*
G01X7286589Y5570451D01*
G01X7284905Y5572923D01*
G01X7283097Y5575308D01*
G01X7281174Y5577599D01*
G01X7279140Y5579793D01*
G01X7276998Y5581881D01*
G01X7274756Y5583862D01*
G01X7272416Y5585727D01*
G01X7269988Y5587472D01*
G01X7267473Y5589095D01*
G01X7264883Y5590591D01*
G01X7262221Y5591957D01*
G01X7259495Y5593187D01*
G01X7256709Y5594279D01*
G01X7253874Y5595234D01*
G01X7250994Y5596044D01*
G01X7248078Y5596710D01*
G01X7245132Y5597228D01*
G01X7242162Y5597601D01*
G01X7239178Y5597825D01*
G01X7236188Y5597898D01*
G01X7156188Y5597898D01*
G01X7153199Y5597825D01*
G01X7150214Y5597601D01*
G01X7147245Y5597228D01*
G01X7144299Y5596710D01*
G01X7141383Y5596044D01*
G01X7138502Y5595234D01*
G01X7135668Y5594279D01*
G01X7132881Y5593187D01*
G01X7130156Y5591957D01*
G01X7127494Y5590591D01*
G01X7124903Y5589095D01*
G01X7122389Y5587472D01*
G01X7119960Y5585727D01*
G01X7117621Y5583862D01*
G01X7115378Y5581881D01*
G01X7113237Y5579793D01*
G01X7111202Y5577599D01*
G01X7109280Y5575308D01*
G01X7107471Y5572923D01*
G01X7105787Y5570451D01*
G01X7104228Y5567898D01*
G01X7102795Y5565272D01*
G01X7101497Y5562575D01*
G01X7100336Y5559819D01*
G01X7099313Y5557007D01*
G01X7098431Y5554149D01*
G01X7097692Y5551249D01*
G01X7097100Y5548318D01*
G01X7096653Y5545358D01*
G01X7096356Y5542382D01*
G37*
G36*
G01X7096206Y4671405D02*
G01X7096356Y4668418D01*
G01X7096653Y4665442D01*
G01X7097100Y4662482D01*
G01X7097692Y4659551D01*
G01X7098431Y4656651D01*
G01X7099313Y4653793D01*
G01X7100336Y4650981D01*
G01X7101497Y4648225D01*
G01X7102795Y4645528D01*
G01X7104228Y4642902D01*
G01X7105787Y4640349D01*
G01X7107471Y4637877D01*
G01X7109280Y4635492D01*
G01X7111202Y4633201D01*
G01X7113237Y4631007D01*
G01X7115378Y4628919D01*
G01X7117621Y4626938D01*
G01X7119960Y4625073D01*
G01X7122389Y4623328D01*
G01X7124903Y4621705D01*
G01X7127494Y4620209D01*
G01X7130156Y4618843D01*
G01X7132881Y4617613D01*
G01X7135668Y4616521D01*
G01X7138502Y4615566D01*
G01X7141383Y4614756D01*
G01X7144299Y4614090D01*
G01X7147245Y4613572D01*
G01X7150214Y4613199D01*
G01X7153199Y4612975D01*
G01X7156188Y4612902D01*
G01X7236188Y4612902D01*
G01X7239178Y4612975D01*
G01X7242162Y4613199D01*
G01X7245132Y4613572D01*
G01X7248078Y4614090D01*
G01X7250994Y4614756D01*
G01X7253874Y4615566D01*
G01X7256709Y4616521D01*
G01X7259495Y4617613D01*
G01X7262221Y4618843D01*
G01X7264883Y4620209D01*
G01X7267473Y4621705D01*
G01X7269988Y4623328D01*
G01X7272416Y4625073D01*
G01X7274756Y4626938D01*
G01X7276998Y4628919D01*
G01X7279140Y4631007D01*
G01X7281174Y4633201D01*
G01X7283097Y4635492D01*
G01X7284905Y4637877D01*
G01X7286589Y4640349D01*
G01X7288149Y4642902D01*
G01X7289582Y4645528D01*
G01X7290880Y4648225D01*
G01X7292040Y4650981D01*
G01X7293064Y4653793D01*
G01X7293945Y4656651D01*
G01X7294684Y4659551D01*
G01X7295276Y4662482D01*
G01X7295723Y4665442D01*
G01X7296020Y4668418D01*
G01X7296170Y4671405D01*
G01X7296170Y4674398D01*
G01X7296020Y4677385D01*
G01X7295723Y4680361D01*
G01X7295276Y4683321D01*
G01X7294684Y4686252D01*
G01X7293945Y4689152D01*
G01X7293064Y4692010D01*
G01X7292040Y4694822D01*
G01X7290880Y4697578D01*
G01X7289582Y4700275D01*
G01X7288149Y4702901D01*
G01X7286589Y4705454D01*
G01X7284905Y4707926D01*
G01X7283097Y4710311D01*
G01X7281174Y4712602D01*
G01X7279140Y4714796D01*
G01X7276998Y4716884D01*
G01X7274756Y4718865D01*
G01X7272416Y4720730D01*
G01X7269988Y4722475D01*
G01X7267473Y4724098D01*
G01X7264883Y4725594D01*
G01X7262221Y4726960D01*
G01X7259495Y4728190D01*
G01X7256709Y4729282D01*
G01X7253874Y4730237D01*
G01X7250994Y4731047D01*
G01X7248078Y4731713D01*
G01X7245132Y4732231D01*
G01X7242162Y4732604D01*
G01X7239178Y4732828D01*
G01X7236188Y4732901D01*
G01X7156188Y4732901D01*
G01X7153199Y4732828D01*
G01X7150214Y4732604D01*
G01X7147245Y4732231D01*
G01X7144299Y4731713D01*
G01X7141383Y4731047D01*
G01X7138502Y4730237D01*
G01X7135668Y4729282D01*
G01X7132881Y4728190D01*
G01X7130156Y4726960D01*
G01X7127494Y4725594D01*
G01X7124903Y4724098D01*
G01X7122389Y4722475D01*
G01X7119960Y4720730D01*
G01X7117621Y4718865D01*
G01X7115378Y4716884D01*
G01X7113237Y4714796D01*
G01X7111202Y4712602D01*
G01X7109280Y4710311D01*
G01X7107471Y4707926D01*
G01X7105787Y4705454D01*
G01X7104228Y4702901D01*
G01X7102795Y4700275D01*
G01X7101497Y4697578D01*
G01X7100336Y4694822D01*
G01X7099313Y4692010D01*
G01X7098431Y4689152D01*
G01X7097692Y4686252D01*
G01X7097100Y4683321D01*
G01X7096653Y4680361D01*
G01X7096356Y4677385D01*
G01X7096206Y4674398D01*
G01X7096206Y4671405D01*
G37*
G36*
G01X7541372Y4677385D02*
G01X7541222Y4674398D01*
G01X7541222Y4671405D01*
G01X7541372Y4668418D01*
G01X7541669Y4665442D01*
G01X7542116Y4662482D01*
G01X7542708Y4659551D01*
G01X7543447Y4656651D01*
G01X7544328Y4653793D01*
G01X7545352Y4650981D01*
G01X7546513Y4648225D01*
G01X7547811Y4645528D01*
G01X7549243Y4642902D01*
G01X7550803Y4640349D01*
G01X7552487Y4637877D01*
G01X7554295Y4635492D01*
G01X7556218Y4633201D01*
G01X7558253Y4631007D01*
G01X7560394Y4628919D01*
G01X7562637Y4626938D01*
G01X7564976Y4625073D01*
G01X7567404Y4623328D01*
G01X7569919Y4621705D01*
G01X7572510Y4620209D01*
G01X7575172Y4618843D01*
G01X7577897Y4617613D01*
G01X7580683Y4616521D01*
G01X7583518Y4615566D01*
G01X7586398Y4614756D01*
G01X7589314Y4614090D01*
G01X7592261Y4613572D01*
G01X7595230Y4613199D01*
G01X7598214Y4612975D01*
G01X7601204Y4612902D01*
G01X7631204Y4612902D01*
G01X7634194Y4612975D01*
G01X7637178Y4613199D01*
G01X7640147Y4613572D01*
G01X7643094Y4614090D01*
G01X7646010Y4614756D01*
G01X7648890Y4615566D01*
G01X7651725Y4616521D01*
G01X7654511Y4617613D01*
G01X7657236Y4618843D01*
G01X7659898Y4620209D01*
G01X7662489Y4621705D01*
G01X7665004Y4623328D01*
G01X7667432Y4625073D01*
G01X7669771Y4626938D01*
G01X7672014Y4628919D01*
G01X7674155Y4631007D01*
G01X7676190Y4633201D01*
G01X7678113Y4635492D01*
G01X7679921Y4637877D01*
G01X7681605Y4640349D01*
G01X7683165Y4642902D01*
G01X7684597Y4645528D01*
G01X7685895Y4648225D01*
G01X7687056Y4650981D01*
G01X7688080Y4653793D01*
G01X7688961Y4656651D01*
G01X7689700Y4659551D01*
G01X7690292Y4662482D01*
G01X7690739Y4665442D01*
G01X7691036Y4668418D01*
G01X7691186Y4671405D01*
G01X7691186Y4674398D01*
G01X7691036Y4677385D01*
G01X7690739Y4680361D01*
G01X7690292Y4683321D01*
G01X7689700Y4686252D01*
G01X7688961Y4689152D01*
G01X7688080Y4692010D01*
G01X7687056Y4694822D01*
G01X7685895Y4697578D01*
G01X7684597Y4700275D01*
G01X7683165Y4702901D01*
G01X7681605Y4705454D01*
G01X7679921Y4707926D01*
G01X7678113Y4710311D01*
G01X7676190Y4712602D01*
G01X7674155Y4714796D01*
G01X7672014Y4716884D01*
G01X7669771Y4718865D01*
G01X7667432Y4720730D01*
G01X7665004Y4722475D01*
G01X7662489Y4724098D01*
G01X7659898Y4725594D01*
G01X7657236Y4726960D01*
G01X7654511Y4728190D01*
G01X7651725Y4729282D01*
G01X7648890Y4730237D01*
G01X7646010Y4731047D01*
G01X7643094Y4731713D01*
G01X7640147Y4732231D01*
G01X7637178Y4732604D01*
G01X7634194Y4732828D01*
G01X7631204Y4732901D01*
G01X7601204Y4732901D01*
G01X7598214Y4732828D01*
G01X7595230Y4732604D01*
G01X7592261Y4732231D01*
G01X7589314Y4731713D01*
G01X7586398Y4731047D01*
G01X7583518Y4730237D01*
G01X7580683Y4729282D01*
G01X7577897Y4728190D01*
G01X7575172Y4726960D01*
G01X7572510Y4725594D01*
G01X7569919Y4724098D01*
G01X7567404Y4722475D01*
G01X7564976Y4720730D01*
G01X7562637Y4718865D01*
G01X7560394Y4716884D01*
G01X7558253Y4714796D01*
G01X7556218Y4712602D01*
G01X7554295Y4710311D01*
G01X7552487Y4707926D01*
G01X7550803Y4705454D01*
G01X7549243Y4702901D01*
G01X7547811Y4700275D01*
G01X7546513Y4697578D01*
G01X7545352Y4694822D01*
G01X7544328Y4692010D01*
G01X7543447Y4689152D01*
G01X7542708Y4686252D01*
G01X7542116Y4683321D01*
G01X7541669Y4680361D01*
G01X7541372Y4677385D01*
G37*
G36*
G01X7541222Y5536402D02*
G01X7541372Y5533415D01*
G01X7541669Y5530439D01*
G01X7542116Y5527479D01*
G01X7542708Y5524548D01*
G01X7543447Y5521648D01*
G01X7544328Y5518790D01*
G01X7545352Y5515978D01*
G01X7546513Y5513222D01*
G01X7547811Y5510525D01*
G01X7549243Y5507899D01*
G01X7550803Y5505346D01*
G01X7552487Y5502874D01*
G01X7554295Y5500489D01*
G01X7556218Y5498198D01*
G01X7558253Y5496004D01*
G01X7560394Y5493916D01*
G01X7562637Y5491935D01*
G01X7564976Y5490070D01*
G01X7567404Y5488325D01*
G01X7569919Y5486702D01*
G01X7572510Y5485206D01*
G01X7575172Y5483840D01*
G01X7577897Y5482610D01*
G01X7580683Y5481518D01*
G01X7583518Y5480563D01*
G01X7586398Y5479753D01*
G01X7589314Y5479087D01*
G01X7592261Y5478569D01*
G01X7595230Y5478196D01*
G01X7598214Y5477972D01*
G01X7601204Y5477899D01*
G01X7631204Y5477899D01*
G01X7634194Y5477972D01*
G01X7637178Y5478196D01*
G01X7640147Y5478569D01*
G01X7643094Y5479087D01*
G01X7646010Y5479753D01*
G01X7648890Y5480563D01*
G01X7651725Y5481518D01*
G01X7654511Y5482610D01*
G01X7657236Y5483840D01*
G01X7659898Y5485206D01*
G01X7662489Y5486702D01*
G01X7665004Y5488325D01*
G01X7667432Y5490070D01*
G01X7669771Y5491935D01*
G01X7672014Y5493916D01*
G01X7674155Y5496004D01*
G01X7676190Y5498198D01*
G01X7678113Y5500489D01*
G01X7679921Y5502874D01*
G01X7681605Y5505346D01*
G01X7683165Y5507899D01*
G01X7684597Y5510525D01*
G01X7685895Y5513222D01*
G01X7687056Y5515978D01*
G01X7688080Y5518790D01*
G01X7688961Y5521648D01*
G01X7689700Y5524548D01*
G01X7690292Y5527479D01*
G01X7690739Y5530439D01*
G01X7691036Y5533415D01*
G01X7691186Y5536402D01*
G01X7691186Y5539395D01*
G01X7691036Y5542382D01*
G01X7690739Y5545358D01*
G01X7690292Y5548318D01*
G01X7689700Y5551249D01*
G01X7688961Y5554149D01*
G01X7688080Y5557007D01*
G01X7687056Y5559819D01*
G01X7685895Y5562575D01*
G01X7684597Y5565272D01*
G01X7683165Y5567898D01*
G01X7681605Y5570451D01*
G01X7679921Y5572923D01*
G01X7678113Y5575308D01*
G01X7676190Y5577599D01*
G01X7674155Y5579793D01*
G01X7672014Y5581881D01*
G01X7669771Y5583862D01*
G01X7667432Y5585727D01*
G01X7665004Y5587472D01*
G01X7662489Y5589095D01*
G01X7659898Y5590591D01*
G01X7657236Y5591957D01*
G01X7654511Y5593187D01*
G01X7651725Y5594279D01*
G01X7648890Y5595234D01*
G01X7646010Y5596044D01*
G01X7643094Y5596710D01*
G01X7640147Y5597228D01*
G01X7637178Y5597601D01*
G01X7634194Y5597825D01*
G01X7631204Y5597898D01*
G01X7601204Y5597898D01*
G01X7598214Y5597825D01*
G01X7595230Y5597601D01*
G01X7592261Y5597228D01*
G01X7589314Y5596710D01*
G01X7586398Y5596044D01*
G01X7583518Y5595234D01*
G01X7580683Y5594279D01*
G01X7577897Y5593187D01*
G01X7575172Y5591957D01*
G01X7572510Y5590591D01*
G01X7569919Y5589095D01*
G01X7567404Y5587472D01*
G01X7564976Y5585727D01*
G01X7562637Y5583862D01*
G01X7560394Y5581881D01*
G01X7558253Y5579793D01*
G01X7556218Y5577599D01*
G01X7554295Y5575308D01*
G01X7552487Y5572923D01*
G01X7550803Y5570451D01*
G01X7549243Y5567898D01*
G01X7547811Y5565272D01*
G01X7546513Y5562575D01*
G01X7545352Y5559819D01*
G01X7544328Y5557007D01*
G01X7543447Y5554149D01*
G01X7542708Y5551249D01*
G01X7542116Y5548318D01*
G01X7541669Y5545358D01*
G01X7541372Y5542382D01*
G01X7541222Y5539395D01*
G01X7541222Y5536402D01*
G37*
G36*
G01X6070907Y4322704D02*
G01X6070907Y4432704D01*
G01X6040905Y4432704D01*
G01X6040905Y4322704D01*
G01X6070907Y4322704D01*
G37*
G36*
G01X6090917Y4432704D02*
G01X6090917Y4322704D01*
G01X6120920Y4322704D01*
G01X6120920Y4432704D01*
G01X6090917Y4432704D01*
G37*
G36*
G01X5580898Y4432704D02*
G01X5580898Y4322704D01*
G01X5640898Y4322704D01*
G01X5640898Y4432704D01*
G01X5580898Y4432704D01*
G37*
G36*
G01X6020895Y4322704D02*
G01X6020895Y4432704D01*
G01X5990892Y4432704D01*
G01X5990892Y4322704D01*
G01X6020895Y4322704D01*
G37*
G36*
G01X6140917Y4432704D02*
G01X6140917Y4322704D01*
G01X6200917Y4322704D01*
G01X6200917Y4432704D01*
G01X6140917Y4432704D01*
G37*
G36*
G01X6280902Y4322704D02*
G01X6280902Y4432704D01*
G01X6220902Y4432704D01*
G01X6220902Y4322704D01*
G01X6280902Y4322704D01*
G37*
G36*
G01X5970908Y4322704D02*
G01X5970908Y4432704D01*
G01X5940905Y4432704D01*
G01X5940905Y4322704D01*
G01X5970908Y4322704D01*
G37*
G36*
G01X5920895Y4322704D02*
G01X5920895Y4432704D01*
G01X5890892Y4432704D01*
G01X5890892Y4322704D01*
G01X5920895Y4322704D01*
G37*
G36*
G01X5660908Y4432704D02*
G01X5660908Y4322704D01*
G01X5720908Y4322704D01*
G01X5720908Y4432704D01*
G01X5660908Y4432704D01*
G37*
G36*
G01X5870908Y4322704D02*
G01X5870908Y4432704D01*
G01X5840905Y4432704D01*
G01X5840905Y4322704D01*
G01X5870908Y4322704D01*
G37*
G36*
G01X5820921Y4322704D02*
G01X5820921Y4432704D01*
G01X5790918Y4432704D01*
G01X5790918Y4322704D01*
G01X5820921Y4322704D01*
G37*
G36*
G01X5770908Y4322704D02*
G01X5770908Y4432704D01*
G01X5740905Y4432704D01*
G01X5740905Y4322704D01*
G01X5770908Y4322704D01*
G37*
G36*
G01X6367882Y4422544D02*
G01X6364895Y4422694D01*
G01X6361902Y4422694D01*
G01X6358915Y4422544D01*
G01X6355939Y4422247D01*
G01X6352979Y4421800D01*
G01X6350048Y4421208D01*
G01X6347148Y4420469D01*
G01X6344290Y4419587D01*
G01X6341478Y4418564D01*
G01X6338722Y4417403D01*
G01X6336025Y4416105D01*
G01X6333399Y4414672D01*
G01X6330846Y4413113D01*
G01X6328374Y4411429D01*
G01X6325989Y4409620D01*
G01X6323698Y4407698D01*
G01X6321504Y4405663D01*
G01X6319416Y4403522D01*
G01X6317435Y4401279D01*
G01X6315570Y4398940D01*
G01X6313825Y4396511D01*
G01X6312202Y4393997D01*
G01X6310706Y4391406D01*
G01X6309340Y4388744D01*
G01X6308110Y4386019D01*
G01X6307018Y4383232D01*
G01X6306063Y4380398D01*
G01X6305253Y4377517D01*
G01X6304587Y4374601D01*
G01X6304069Y4371655D01*
G01X6303696Y4368686D01*
G01X6303472Y4365701D01*
G01X6303399Y4362712D01*
G01X6303399Y4282712D01*
G01X6303472Y4279722D01*
G01X6303696Y4276738D01*
G01X6304069Y4273768D01*
G01X6304587Y4270822D01*
G01X6305253Y4267906D01*
G01X6306063Y4265026D01*
G01X6307018Y4262191D01*
G01X6308110Y4259405D01*
G01X6309340Y4256679D01*
G01X6310706Y4254017D01*
G01X6312202Y4251427D01*
G01X6313825Y4248912D01*
G01X6315570Y4246484D01*
G01X6317435Y4244144D01*
G01X6319416Y4241902D01*
G01X6321504Y4239760D01*
G01X6323698Y4237726D01*
G01X6325989Y4235803D01*
G01X6328374Y4233995D01*
G01X6330846Y4232311D01*
G01X6333399Y4230751D01*
G01X6336025Y4229318D01*
G01X6338722Y4228021D01*
G01X6341478Y4226860D01*
G01X6344290Y4225836D01*
G01X6347148Y4224955D01*
G01X6350048Y4224216D01*
G01X6352979Y4223624D01*
G01X6355939Y4223177D01*
G01X6358915Y4222880D01*
G01X6361902Y4222730D01*
G01X6364895Y4222730D01*
G01X6367882Y4222880D01*
G01X6370858Y4223177D01*
G01X6373818Y4223624D01*
G01X6376749Y4224216D01*
G01X6379649Y4224955D01*
G01X6382507Y4225836D01*
G01X6385319Y4226860D01*
G01X6388075Y4228021D01*
G01X6390772Y4229318D01*
G01X6393398Y4230751D01*
G01X6395951Y4232311D01*
G01X6398423Y4233995D01*
G01X6400808Y4235803D01*
G01X6403099Y4237726D01*
G01X6405293Y4239760D01*
G01X6407381Y4241902D01*
G01X6409362Y4244144D01*
G01X6411227Y4246484D01*
G01X6412972Y4248912D01*
G01X6414595Y4251427D01*
G01X6416091Y4254017D01*
G01X6417457Y4256679D01*
G01X6418687Y4259405D01*
G01X6419779Y4262191D01*
G01X6420734Y4265026D01*
G01X6421544Y4267906D01*
G01X6422210Y4270822D01*
G01X6422728Y4273768D01*
G01X6423101Y4276738D01*
G01X6423325Y4279722D01*
G01X6423398Y4282712D01*
G01X6423398Y4362712D01*
G01X6423325Y4365701D01*
G01X6423101Y4368686D01*
G01X6422728Y4371655D01*
G01X6422210Y4374601D01*
G01X6421544Y4377517D01*
G01X6420734Y4380398D01*
G01X6419779Y4383232D01*
G01X6418687Y4386019D01*
G01X6417457Y4388744D01*
G01X6416091Y4391406D01*
G01X6414595Y4393997D01*
G01X6412972Y4396511D01*
G01X6411227Y4398940D01*
G01X6409362Y4401279D01*
G01X6407381Y4403522D01*
G01X6405293Y4405663D01*
G01X6403099Y4407698D01*
G01X6400808Y4409620D01*
G01X6398423Y4411429D01*
G01X6395951Y4413113D01*
G01X6393398Y4414672D01*
G01X6390772Y4416105D01*
G01X6388075Y4417403D01*
G01X6385319Y4418564D01*
G01X6382507Y4419587D01*
G01X6379649Y4420469D01*
G01X6376749Y4421208D01*
G01X6373818Y4421800D01*
G01X6370858Y4422247D01*
G01X6367882Y4422544D01*
G37*
G36*
G01X5496905Y4422694D02*
G01X5493918Y4422544D01*
G01X5490942Y4422247D01*
G01X5487982Y4421800D01*
G01X5485051Y4421208D01*
G01X5482151Y4420469D01*
G01X5479293Y4419587D01*
G01X5476481Y4418564D01*
G01X5473725Y4417403D01*
G01X5471028Y4416105D01*
G01X5468402Y4414672D01*
G01X5465849Y4413113D01*
G01X5463377Y4411429D01*
G01X5460992Y4409620D01*
G01X5458701Y4407698D01*
G01X5456507Y4405663D01*
G01X5454419Y4403522D01*
G01X5452438Y4401279D01*
G01X5450573Y4398940D01*
G01X5448828Y4396511D01*
G01X5447205Y4393997D01*
G01X5445709Y4391406D01*
G01X5444343Y4388744D01*
G01X5443113Y4386019D01*
G01X5442021Y4383232D01*
G01X5441066Y4380398D01*
G01X5440256Y4377517D01*
G01X5439590Y4374601D01*
G01X5439072Y4371655D01*
G01X5438699Y4368686D01*
G01X5438475Y4365701D01*
G01X5438402Y4362712D01*
G01X5438402Y4282712D01*
G01X5438475Y4279722D01*
G01X5438699Y4276738D01*
G01X5439072Y4273768D01*
G01X5439590Y4270822D01*
G01X5440256Y4267906D01*
G01X5441066Y4265026D01*
G01X5442021Y4262191D01*
G01X5443113Y4259405D01*
G01X5444343Y4256679D01*
G01X5445709Y4254017D01*
G01X5447205Y4251427D01*
G01X5448828Y4248912D01*
G01X5450573Y4246484D01*
G01X5452438Y4244144D01*
G01X5454419Y4241902D01*
G01X5456507Y4239760D01*
G01X5458701Y4237726D01*
G01X5460992Y4235803D01*
G01X5463377Y4233995D01*
G01X5465849Y4232311D01*
G01X5468402Y4230751D01*
G01X5471028Y4229318D01*
G01X5473725Y4228021D01*
G01X5476481Y4226860D01*
G01X5479293Y4225836D01*
G01X5482151Y4224955D01*
G01X5485051Y4224216D01*
G01X5487982Y4223624D01*
G01X5490942Y4223177D01*
G01X5493918Y4222880D01*
G01X5496905Y4222730D01*
G01X5499898Y4222730D01*
G01X5502885Y4222880D01*
G01X5505861Y4223177D01*
G01X5508821Y4223624D01*
G01X5511752Y4224216D01*
G01X5514652Y4224955D01*
G01X5517510Y4225836D01*
G01X5520322Y4226860D01*
G01X5523078Y4228021D01*
G01X5525775Y4229318D01*
G01X5528401Y4230751D01*
G01X5530954Y4232311D01*
G01X5533426Y4233995D01*
G01X5535811Y4235803D01*
G01X5538102Y4237726D01*
G01X5540296Y4239760D01*
G01X5542384Y4241902D01*
G01X5544365Y4244144D01*
G01X5546230Y4246484D01*
G01X5547975Y4248912D01*
G01X5549598Y4251427D01*
G01X5551094Y4254017D01*
G01X5552460Y4256679D01*
G01X5553690Y4259405D01*
G01X5554782Y4262191D01*
G01X5555737Y4265026D01*
G01X5556547Y4267906D01*
G01X5557213Y4270822D01*
G01X5557731Y4273768D01*
G01X5558104Y4276738D01*
G01X5558328Y4279722D01*
G01X5558401Y4282712D01*
G01X5558401Y4362712D01*
G01X5558328Y4365701D01*
G01X5558104Y4368686D01*
G01X5557731Y4371655D01*
G01X5557213Y4374601D01*
G01X5556547Y4377517D01*
G01X5555737Y4380398D01*
G01X5554782Y4383232D01*
G01X5553690Y4386019D01*
G01X5552460Y4388744D01*
G01X5551094Y4391406D01*
G01X5549598Y4393997D01*
G01X5547975Y4396511D01*
G01X5546230Y4398940D01*
G01X5544365Y4401279D01*
G01X5542384Y4403522D01*
G01X5540296Y4405663D01*
G01X5538102Y4407698D01*
G01X5535811Y4409620D01*
G01X5533426Y4411429D01*
G01X5530954Y4413113D01*
G01X5528401Y4414672D01*
G01X5525775Y4416105D01*
G01X5523078Y4417403D01*
G01X5520322Y4418564D01*
G01X5517510Y4419587D01*
G01X5514652Y4420469D01*
G01X5511752Y4421208D01*
G01X5508821Y4421800D01*
G01X5505861Y4422247D01*
G01X5502885Y4422544D01*
G01X5499898Y4422694D01*
G01X5496905Y4422694D01*
G37*
G36*
G01X5502885Y3977528D02*
G01X5499898Y3977678D01*
G01X5496905Y3977678D01*
G01X5493918Y3977528D01*
G01X5490942Y3977231D01*
G01X5487982Y3976784D01*
G01X5485051Y3976192D01*
G01X5482151Y3975453D01*
G01X5479293Y3974572D01*
G01X5476481Y3973548D01*
G01X5473725Y3972387D01*
G01X5471028Y3971089D01*
G01X5468402Y3969657D01*
G01X5465849Y3968097D01*
G01X5463377Y3966413D01*
G01X5460992Y3964605D01*
G01X5458701Y3962682D01*
G01X5456507Y3960647D01*
G01X5454419Y3958506D01*
G01X5452438Y3956263D01*
G01X5450573Y3953924D01*
G01X5448828Y3951496D01*
G01X5447205Y3948981D01*
G01X5445709Y3946390D01*
G01X5444343Y3943728D01*
G01X5443113Y3941003D01*
G01X5442021Y3938217D01*
G01X5441066Y3935382D01*
G01X5440256Y3932502D01*
G01X5439590Y3929586D01*
G01X5439072Y3926639D01*
G01X5438699Y3923670D01*
G01X5438475Y3920686D01*
G01X5438402Y3917696D01*
G01X5438402Y3887696D01*
G01X5438475Y3884706D01*
G01X5438699Y3881722D01*
G01X5439072Y3878753D01*
G01X5439590Y3875806D01*
G01X5440256Y3872890D01*
G01X5441066Y3870010D01*
G01X5442021Y3867175D01*
G01X5443113Y3864389D01*
G01X5444343Y3861664D01*
G01X5445709Y3859002D01*
G01X5447205Y3856411D01*
G01X5448828Y3853896D01*
G01X5450573Y3851468D01*
G01X5452438Y3849129D01*
G01X5454419Y3846886D01*
G01X5456507Y3844745D01*
G01X5458701Y3842710D01*
G01X5460992Y3840787D01*
G01X5463377Y3838979D01*
G01X5465849Y3837295D01*
G01X5468402Y3835735D01*
G01X5471028Y3834303D01*
G01X5473725Y3833005D01*
G01X5476481Y3831844D01*
G01X5479293Y3830820D01*
G01X5482151Y3829939D01*
G01X5485051Y3829200D01*
G01X5487982Y3828608D01*
G01X5490942Y3828161D01*
G01X5493918Y3827864D01*
G01X5496905Y3827714D01*
G01X5499898Y3827714D01*
G01X5502885Y3827864D01*
G01X5505861Y3828161D01*
G01X5508821Y3828608D01*
G01X5511752Y3829200D01*
G01X5514652Y3829939D01*
G01X5517510Y3830820D01*
G01X5520322Y3831844D01*
G01X5523078Y3833005D01*
G01X5525775Y3834303D01*
G01X5528401Y3835735D01*
G01X5530954Y3837295D01*
G01X5533426Y3838979D01*
G01X5535811Y3840787D01*
G01X5538102Y3842710D01*
G01X5540296Y3844745D01*
G01X5542384Y3846886D01*
G01X5544365Y3849129D01*
G01X5546230Y3851468D01*
G01X5547975Y3853896D01*
G01X5549598Y3856411D01*
G01X5551094Y3859002D01*
G01X5552460Y3861664D01*
G01X5553690Y3864389D01*
G01X5554782Y3867175D01*
G01X5555737Y3870010D01*
G01X5556547Y3872890D01*
G01X5557213Y3875806D01*
G01X5557731Y3878753D01*
G01X5558104Y3881722D01*
G01X5558328Y3884706D01*
G01X5558401Y3887696D01*
G01X5558401Y3917696D01*
G01X5558328Y3920686D01*
G01X5558104Y3923670D01*
G01X5557731Y3926639D01*
G01X5557213Y3929586D01*
G01X5556547Y3932502D01*
G01X5555737Y3935382D01*
G01X5554782Y3938217D01*
G01X5553690Y3941003D01*
G01X5552460Y3943728D01*
G01X5551094Y3946390D01*
G01X5549598Y3948981D01*
G01X5547975Y3951496D01*
G01X5546230Y3953924D01*
G01X5544365Y3956263D01*
G01X5542384Y3958506D01*
G01X5540296Y3960647D01*
G01X5538102Y3962682D01*
G01X5535811Y3964605D01*
G01X5533426Y3966413D01*
G01X5530954Y3968097D01*
G01X5528401Y3969657D01*
G01X5525775Y3971089D01*
G01X5523078Y3972387D01*
G01X5520322Y3973548D01*
G01X5517510Y3974572D01*
G01X5514652Y3975453D01*
G01X5511752Y3976192D01*
G01X5508821Y3976784D01*
G01X5505861Y3977231D01*
G01X5502885Y3977528D01*
G37*
G36*
G01X6361902Y3977678D02*
G01X6358915Y3977528D01*
G01X6355939Y3977231D01*
G01X6352979Y3976784D01*
G01X6350048Y3976192D01*
G01X6347148Y3975453D01*
G01X6344290Y3974572D01*
G01X6341478Y3973548D01*
G01X6338722Y3972387D01*
G01X6336025Y3971089D01*
G01X6333399Y3969657D01*
G01X6330846Y3968097D01*
G01X6328374Y3966413D01*
G01X6325989Y3964605D01*
G01X6323698Y3962682D01*
G01X6321504Y3960647D01*
G01X6319416Y3958506D01*
G01X6317435Y3956263D01*
G01X6315570Y3953924D01*
G01X6313825Y3951496D01*
G01X6312202Y3948981D01*
G01X6310706Y3946390D01*
G01X6309340Y3943728D01*
G01X6308110Y3941003D01*
G01X6307018Y3938217D01*
G01X6306063Y3935382D01*
G01X6305253Y3932502D01*
G01X6304587Y3929586D01*
G01X6304069Y3926639D01*
G01X6303696Y3923670D01*
G01X6303472Y3920686D01*
G01X6303399Y3917696D01*
G01X6303399Y3887696D01*
G01X6303472Y3884706D01*
G01X6303696Y3881722D01*
G01X6304069Y3878753D01*
G01X6304587Y3875806D01*
G01X6305253Y3872890D01*
G01X6306063Y3870010D01*
G01X6307018Y3867175D01*
G01X6308110Y3864389D01*
G01X6309340Y3861664D01*
G01X6310706Y3859002D01*
G01X6312202Y3856411D01*
G01X6313825Y3853896D01*
G01X6315570Y3851468D01*
G01X6317435Y3849129D01*
G01X6319416Y3846886D01*
G01X6321504Y3844745D01*
G01X6323698Y3842710D01*
G01X6325989Y3840787D01*
G01X6328374Y3838979D01*
G01X6330846Y3837295D01*
G01X6333399Y3835735D01*
G01X6336025Y3834303D01*
G01X6338722Y3833005D01*
G01X6341478Y3831844D01*
G01X6344290Y3830820D01*
G01X6347148Y3829939D01*
G01X6350048Y3829200D01*
G01X6352979Y3828608D01*
G01X6355939Y3828161D01*
G01X6358915Y3827864D01*
G01X6361902Y3827714D01*
G01X6364895Y3827714D01*
G01X6367882Y3827864D01*
G01X6370858Y3828161D01*
G01X6373818Y3828608D01*
G01X6376749Y3829200D01*
G01X6379649Y3829939D01*
G01X6382507Y3830820D01*
G01X6385319Y3831844D01*
G01X6388075Y3833005D01*
G01X6390772Y3834303D01*
G01X6393398Y3835735D01*
G01X6395951Y3837295D01*
G01X6398423Y3838979D01*
G01X6400808Y3840787D01*
G01X6403099Y3842710D01*
G01X6405293Y3844745D01*
G01X6407381Y3846886D01*
G01X6409362Y3849129D01*
G01X6411227Y3851468D01*
G01X6412972Y3853896D01*
G01X6414595Y3856411D01*
G01X6416091Y3859002D01*
G01X6417457Y3861664D01*
G01X6418687Y3864389D01*
G01X6419779Y3867175D01*
G01X6420734Y3870010D01*
G01X6421544Y3872890D01*
G01X6422210Y3875806D01*
G01X6422728Y3878753D01*
G01X6423101Y3881722D01*
G01X6423325Y3884706D01*
G01X6423398Y3887696D01*
G01X6423398Y3917696D01*
G01X6423325Y3920686D01*
G01X6423101Y3923670D01*
G01X6422728Y3926639D01*
G01X6422210Y3929586D01*
G01X6421544Y3932502D01*
G01X6420734Y3935382D01*
G01X6419779Y3938217D01*
G01X6418687Y3941003D01*
G01X6417457Y3943728D01*
G01X6416091Y3946390D01*
G01X6414595Y3948981D01*
G01X6412972Y3951496D01*
G01X6411227Y3953924D01*
G01X6409362Y3956263D01*
G01X6407381Y3958506D01*
G01X6405293Y3960647D01*
G01X6403099Y3962682D01*
G01X6400808Y3964605D01*
G01X6398423Y3966413D01*
G01X6395951Y3968097D01*
G01X6393398Y3969657D01*
G01X6390772Y3971089D01*
G01X6388075Y3972387D01*
G01X6385319Y3973548D01*
G01X6382507Y3974572D01*
G01X6379649Y3975453D01*
G01X6376749Y3976192D01*
G01X6373818Y3976784D01*
G01X6370858Y3977231D01*
G01X6367882Y3977528D01*
G01X6364895Y3977678D01*
G01X6361902Y3977678D01*
G37*

G04 Pad Start*
G54D10*
G01X6800698Y5359400D03*
G01X6940702Y5359400D03*
G54D11*
G01X5676900Y4667402D03*
G01X5676900Y4527398D03*
G01X3747620Y4659005D03*
G01X3747620Y4519000D03*
G01X6146800Y5467198D03*
G01X6146800Y5607202D03*
G01X3644900Y5454498D03*
G01X3644900Y5594502D03*
G54D10*
G01X5734294Y5039553D03*
G01X5594289Y5039553D03*
G01X5734202Y5207000D03*
G01X5594198Y5207000D03*
G01X4527398Y5232400D03*
G01X4667402Y5232400D03*
G01X4527398Y5384800D03*
G01X4667402Y5384800D03*
G01X4529896Y5063134D03*
G01X4669900Y5063134D03*
G01X4529896Y4914900D03*
G01X4669900Y4914900D03*
G54D12*
G01X5285410Y4831004D03*
G01X5285410Y4884014D03*
G01X5285410Y4936998D03*
G01X5285410Y4990008D03*
G01X5285410Y5042992D03*
G01X5285410Y5096002D03*
G01X5285410Y5149012D03*
G01X5285410Y5201996D03*
G01X4925390Y5201996D03*
G01X4925390Y5149012D03*
G01X4925390Y5096002D03*
G01X4925390Y5042992D03*
G01X4925390Y4990008D03*
G01X4925390Y4936998D03*
G01X4925390Y4884014D03*
G01X4925390Y4831004D03*
G04 Pad End*

M02*

