G04 Layer: DrillDrawingLayer*
G04 EasyEDA Pro v2.2.47.7, 2026-05-31 17:46:15*
G04 Gerber Generator version 0.3*
G04 Scale: 100 percent, Rotated: No, Reflected: No*
G04 Dimensions in millimeters*
G04 Leading zeros omitted, absolute positions, 4 integers and 5 decimals*
G04 Generated by one-click*
G04 Object Configs: Pad,Via,Track,Text,Image,Dimension,BoardOutline,BoardCutout,CopperFilled,SolidRegion,FPCStiffener,Line,PlaneZone,ComponentProperty,ComponentSilkscreen,TearDrop*
G04 Layer Configs: 1,2,3,4,5,6,7,8,9,10,11,13,14,56*
G04 Copper Areas: 0*
%FSLAX45Y45*%
%MOMM*%
%AMIconRect*4,1,4,0.28,-0.28,-0.28,-0.28,-0.28,0.28,0.28,0.28,0.28,-0.28,0*4,0,4,0.233333,-0.233333,0.233333,0.233333,-0.233333,0.233333,-0.233333,-0.233333,0.233333,-0.233333,0*%
%AMIconTriangle*4,1,3,-0.339593,0.240473,0.339593,0.240473,0,-0.37884,-0.339593,0.240473,0*4,0,3,-0.265673,0.19404,0,-0.27342,0.266233,0.19404,-0.265673,0.19404,0*%
%AMIconStar6*4,1,12,0.12068,0.20888,0.298527,0.172713,0.241313,0,0.298527,-0.17206,0.12068,-0.208227,0,-0.344073,-0.120073,-0.208227,-0.298573,-0.17206,-0.240707,0,-0.298573,0.17206,-0.120073,0.20888,0,0.344073,0.12068,0.20888,0*4,0,12,-0.000467,0.273467,-0.090067,0.171733,-0.237533,0.136733,-0.193667,-0.007467,-0.237533,-0.1372,-0.090067,-0.171733,-0.000467,-0.273933,0.090067,-0.171733,0.237533,-0.1372,0.194133,0.007,0.237533,0.1372,0.090067,0.171267,-0.000467,0.273467,0*%
%AMIconStar4*4,1,8,-0.311733,0.311733,0,0.202533,0.311733,0.311733,0.202533,0,0.311733,-0.311733,0,-0.202533,-0.304407,-0.311733,-0.202533,0,-0.311733,0.311733,0*4,0,8,0.233333,-0.233333,0.1512,0,0.233333,0.233333,0,0.1512,-0.233333,0.233333,-0.1512,0,-0.233333,-0.233333,0,-0.1512,0.233333,-0.233333,0*%
%ADD10IconRect*%
%ADD11C,0.616X0.522667*%
%ADD12IconTriangle*%
%ADD13IconStar6*%
%ADD14IconStar4*%
G75*


G04 Drill Drawing Start*
G54D10*
G01X3238500Y6197600D03*
G01X3241003Y3992196D03*
G01X7518400Y3992196D03*
G01X7518400Y6197600D03*
G54D11*
G01X3542602Y5837288D03*
G01X3593402Y4310012D03*
G01X4407599Y5837288D03*
G01X4458399Y4310012D03*
G01X5447602Y5837288D03*
G01X5498402Y4322712D03*
G01X6312599Y5837288D03*
G01X6363399Y4322712D03*
G01X7196188Y4672902D03*
G01X7196188Y5537899D03*
G54D12*
G01X3542602Y6257303D03*
G01X3593402Y3889997D03*
G01X4407599Y6257303D03*
G01X4458399Y3889997D03*
G01X5447602Y6257303D03*
G01X5498402Y3902697D03*
G01X6312599Y6257303D03*
G01X6363399Y3902697D03*
G01X7616203Y4672902D03*
G01X7616203Y5537899D03*
G54D13*
G01X3686086Y5889308D03*
G01X3736912Y4257993D03*
G01X4264089Y5889308D03*
G01X4314914Y4257993D03*
G01X5591086Y5889308D03*
G01X5641912Y4270693D03*
G01X6169089Y5889308D03*
G01X6219914Y4270693D03*
G01X7248208Y4816412D03*
G01X7248208Y5394414D03*
G54D14*
G01X3530600Y5422900D03*
G01X3606800Y4659005D03*
G01X3937394Y5969000D03*
G01X4165600Y5969000D03*
G01X4368800Y4991100D03*
G01X4826000Y5048408D03*
G01X5092700Y4381500D03*
G01X5308600Y4597400D03*
G01X5384202Y4897440D03*
G01X5384490Y4821240D03*
G01X5384800Y5201996D03*
G01X5499100Y4597400D03*
G01X5715000Y5334000D03*
G01X5799617Y5674380D03*
G01X5803900Y5029200D03*
G01X5875817Y5674380D03*
G01X6172200Y5270500D03*
G01X6604000Y5422900D03*
G01X6616700Y5270500D03*
G01X6781800Y4851400D03*
G04 Drill Drawing End*

M02*

