G04 Layer: TopSilkscreenLayer*
G04 EasyEDA Pro v2.2.47.7, 2026-05-31 17:46:15*
G04 Gerber Generator version 0.3*
G04 Scale: 100 percent, Rotated: No, Reflected: No*
G04 Dimensions in millimeters*
G04 Leading zeros omitted, absolute positions, 4 integers and 5 decimals*
G04 Generated by one-click*
G04 Object Configs: Pad,Via,Track,Text,Image,Dimension,BoardOutline,BoardCutout,CopperFilled,SolidRegion,FPCStiffener,Line,PlaneZone,ComponentProperty,ComponentSilkscreen,TearDrop*
G04 Layer Configs: 1,2,3,4,5,6,7,8,9,10,11,13,14,56*
G04 Copper Areas: 0*
%FSLAX45Y45*%
%MOMM*%
%ADD10C,0.1524*%
%ADD11C,0.254*%
%ADD12C,0.0599*%
G75*


G04 Text Start*
G36*
G01X7505320Y4363776D02*
G01X7499405Y4360628D01*
G01X7478885Y4395708D01*
G01X7458303Y4431818D01*
G01X7457926Y4432934D01*
G01X7462726Y4435705D01*
G01X7468640Y4438853D01*
G01X7469756Y4439230D01*
G01X7472411Y4434631D01*
G01X7475582Y4430062D01*
G01X7476466Y4430840D01*
G01X7477204Y4432332D01*
G01X7478111Y4434456D01*
G01X7479303Y4437010D01*
G01X7480325Y4438933D01*
G01X7482201Y4442150D01*
G01X7483339Y4443873D01*
G01X7484677Y4445712D01*
G01X7486131Y4447351D01*
G01X7488184Y4449337D01*
G01X7489837Y4451091D01*
G01X7493721Y4453600D01*
G01X7498236Y4455940D01*
G01X7500067Y4456464D01*
G01X7501782Y4457187D01*
G01X7502782Y4457765D01*
G01X7510171Y4444966D01*
G01X7508856Y4444474D01*
G01X7506825Y4443835D01*
G01X7502595Y4441925D01*
G01X7499080Y4440163D01*
G01X7494996Y4437538D01*
G01X7493227Y4435984D01*
G01X7491658Y4434545D01*
G01X7489605Y4432559D01*
G01X7488267Y4430720D01*
G01X7487129Y4428997D01*
G01X7484315Y4424173D01*
G01X7482670Y4420557D01*
G01X7482132Y4419179D01*
G01X7485405Y4412470D01*
G01X7495964Y4393836D01*
G01X7510542Y4368124D01*
G01X7510919Y4367009D01*
G01X7505320Y4363776D01*
G37*
G36*
G01X7554713Y4392294D02*
G01X7547799Y4388568D01*
G01X7547537Y4389483D01*
G01X7547760Y4390945D01*
G01X7548151Y4393037D01*
G01X7548427Y4395330D01*
G01X7548873Y4398254D01*
G01X7549149Y4400546D01*
G01X7549594Y4403469D01*
G01X7549670Y4405646D01*
G01X7549893Y4407108D01*
G01X7550316Y4408685D01*
G01X7550868Y4413270D01*
G01X7551091Y4414732D01*
G01X7551482Y4416825D01*
G01X7551759Y4419117D01*
G01X7551981Y4420579D01*
G01X7552373Y4422671D01*
G01X7553201Y4429549D01*
G01X7553869Y4433934D01*
G01X7554061Y4435911D01*
G01X7554452Y4438003D01*
G01X7554560Y4439665D01*
G01X7553667Y4440749D01*
G01X7552290Y4441288D01*
G01X7548043Y4443102D01*
G01X7545288Y4444178D01*
G01X7538918Y4446899D01*
G01X7536164Y4447975D01*
G01X7534040Y4448882D01*
G01X7531286Y4449958D01*
G01X7527039Y4451772D01*
G01X7524285Y4452848D01*
G01X7520038Y4454663D01*
G01X7517283Y4455739D01*
G01X7513036Y4457553D01*
G01X7507528Y4459705D01*
G01X7506751Y4460589D01*
G01X7512719Y4464568D01*
G01X7520233Y4468640D01*
G01X7522495Y4468879D01*
G01X7526111Y4467234D01*
G01X7528865Y4466158D01*
G01X7530989Y4465251D01*
G01X7532912Y4464229D01*
G01X7534290Y4463691D01*
G01X7536297Y4462983D01*
G01X7538852Y4461792D01*
G01X7545222Y4459071D01*
G01X7547030Y4458248D01*
G01X7549469Y4457257D01*
G01X7555840Y4454536D01*
G01X7556520Y4454395D01*
G01X7557070Y4454713D01*
G01X7557777Y4456721D01*
G01X7557854Y4458898D01*
G01X7558076Y4460360D01*
G01X7558468Y4462452D01*
G01X7558660Y4464429D01*
G01X7558682Y4465775D01*
G01X7558905Y4467237D01*
G01X7559297Y4469330D01*
G01X7559542Y4472138D01*
G01X7559987Y4475061D01*
G01X7560263Y4477354D01*
G01X7560647Y4481308D01*
G01X7561751Y4490478D01*
G01X7562059Y4492255D01*
G01X7563799Y4493859D01*
G01X7568511Y4496780D01*
G01X7575541Y4500306D01*
G01X7576072Y4500079D01*
G01X7576003Y4499506D01*
G01X7575558Y4496582D01*
G01X7575135Y4495005D01*
G01X7574583Y4490420D01*
G01X7574360Y4488959D01*
G01X7573969Y4486866D01*
G01X7573692Y4484573D01*
G01X7572134Y4474342D01*
G01X7571742Y4472249D01*
G01X7571466Y4469957D01*
G01X7571244Y4468495D01*
G01X7570852Y4466403D01*
G01X7570407Y4463479D01*
G01X7570130Y4461186D01*
G01X7569017Y4453878D01*
G01X7568910Y4452216D01*
G01X7568603Y4450439D01*
G01X7568492Y4449708D01*
G01X7568896Y4449009D01*
G01X7570388Y4448271D01*
G01X7571966Y4447848D01*
G01X7576212Y4446034D01*
G01X7578967Y4444958D01*
G01X7585337Y4442237D01*
G01X7588092Y4441161D01*
G01X7590215Y4440253D01*
G01X7592970Y4439177D01*
G01X7595093Y4438270D01*
G01X7600602Y4436118D01*
G01X7602725Y4435211D01*
G01X7605479Y4434135D01*
G01X7609095Y4432490D01*
G01X7615981Y4429800D01*
G01X7616959Y4429031D01*
G01X7615568Y4427628D01*
G01X7610706Y4424621D01*
G01X7603391Y4420664D01*
G01X7601845Y4420572D01*
G01X7600268Y4420994D01*
G01X7598891Y4421532D01*
G01X7595275Y4423177D01*
G01X7593898Y4423715D01*
G01X7590281Y4425360D01*
G01X7588904Y4425898D01*
G01X7587096Y4426721D01*
G01X7584542Y4427913D01*
G01X7578171Y4430634D01*
G01X7576363Y4431456D01*
G01X7573924Y4432448D01*
G01X7571801Y4433355D01*
G01X7568185Y4435000D01*
G01X7566923Y4435338D01*
G01X7566039Y4434561D01*
G01X7565647Y4432468D01*
G01X7565455Y4430491D01*
G01X7565010Y4427568D01*
G01X7564627Y4423614D01*
G01X7564181Y4420690D01*
G01X7563798Y4416736D01*
G01X7563576Y4415274D01*
G01X7563023Y4410689D01*
G01X7562640Y4406735D01*
G01X7562417Y4405274D01*
G01X7562034Y4401319D01*
G01X7562011Y4399973D01*
G01X7561789Y4398511D01*
G01X7561366Y4396934D01*
G01X7559676Y4395359D01*
G01X7554713Y4392294D01*
G37*
G36*
G01X7214159Y4195675D02*
G01X7208244Y4192526D01*
G01X7187147Y4228606D01*
G01X7166365Y4264601D01*
G01X7171964Y4267834D01*
G01X7178395Y4271013D01*
G01X7179278Y4270523D01*
G01X7180265Y4269160D01*
G01X7181912Y4265845D01*
G01X7183036Y4264360D01*
G01X7183720Y4265022D01*
G01X7184258Y4266399D01*
G01X7185903Y4270015D01*
G01X7186641Y4271508D01*
G01X7188517Y4274724D01*
G01X7189655Y4276448D01*
G01X7190993Y4278286D01*
G01X7192446Y4279926D01*
G01X7197922Y4285220D01*
G01X7201006Y4287267D01*
G01X7204321Y4288914D01*
G01X7206552Y4289669D01*
G01X7209698Y4290686D01*
G01X7212759Y4291387D01*
G01X7215021Y4291626D01*
G01X7216882Y4291634D01*
G01X7218544Y4291527D01*
G01X7219890Y4291504D01*
G01X7221352Y4291282D01*
G01X7222729Y4290743D01*
G01X7224737Y4290037D01*
G01X7226976Y4288929D01*
G01X7228584Y4287991D01*
G01X7230308Y4286854D01*
G01X7232146Y4285515D01*
G01X7233901Y4283862D01*
G01X7235340Y4282293D01*
G01X7237356Y4279725D01*
G01X7252450Y4254043D01*
G01X7267375Y4227732D01*
G01X7267752Y4226616D01*
G01X7262553Y4223615D01*
G01X7256322Y4220551D01*
G01X7252201Y4226304D01*
G01X7241899Y4243686D01*
G01X7227960Y4267367D01*
G01X7226952Y4268651D01*
G01X7225482Y4270736D01*
G01X7223927Y4272505D01*
G01X7222604Y4273873D01*
G01X7221080Y4275127D01*
G01X7219157Y4276149D01*
G01X7217149Y4276857D01*
G01X7215172Y4277048D01*
G01X7212594Y4276893D01*
G01X7210448Y4276454D01*
G01X7205818Y4274314D01*
G01X7204818Y4273737D01*
G01X7203534Y4272729D01*
G01X7201250Y4271143D01*
G01X7198996Y4269043D01*
G01X7197258Y4266973D01*
G01X7195721Y4265018D01*
G01X7193445Y4261571D01*
G01X7192222Y4259532D01*
G01X7191115Y4257293D01*
G01X7190292Y4255485D01*
G01X7189555Y4253993D01*
G01X7189416Y4252846D01*
G01X7204741Y4226765D01*
G01X7219696Y4199938D01*
G01X7218343Y4198357D01*
G01X7214159Y4195675D01*
G37*
G36*
G01X6714940Y3888253D02*
G01X6707225Y3884065D01*
G01X6705995Y3883888D01*
G01X6703480Y3882703D01*
G01X6700649Y3881602D01*
G01X6698103Y3880932D01*
G01X6695357Y3880146D01*
G01X6693411Y3879822D01*
G01X6691780Y3879414D01*
G01X6689634Y3878975D01*
G01X6687173Y3878620D01*
G01X6680988Y3878249D01*
G01X6679126Y3878241D01*
G01X6676949Y3878317D01*
G01X6672995Y3878700D01*
G01X6670387Y3879061D01*
G01X6668094Y3879337D01*
G01X6660209Y3881450D01*
G01X6657454Y3882526D01*
G01X6653838Y3884171D01*
G01X6652346Y3884909D01*
G01X6649129Y3886785D01*
G01X6645682Y3889061D01*
G01X6642866Y3891168D01*
G01X6641343Y3892422D01*
G01X6638065Y3895328D01*
G01X6632770Y3900804D01*
G01X6629830Y3904973D01*
G01X6627352Y3908341D01*
G01X6625536Y3911025D01*
G01X6624119Y3913940D01*
G01X6622672Y3917371D01*
G01X6620994Y3921201D01*
G01X6619716Y3925263D01*
G01X6618961Y3927493D01*
G01X6618291Y3930039D01*
G01X6617967Y3931985D01*
G01X6617528Y3934132D01*
G01X6617173Y3936593D01*
G01X6616934Y3938855D01*
G01X6616726Y3940601D01*
G01X6616602Y3942662D01*
G01X6616563Y3945040D01*
G01X6616639Y3947217D01*
G01X6616800Y3949709D01*
G01X6616992Y3951686D01*
G01X6617099Y3953348D01*
G01X6618020Y3958679D01*
G01X6619288Y3963411D01*
G01X6620364Y3966165D01*
G01X6620787Y3967742D01*
G01X6621325Y3969119D01*
G01X6622970Y3972735D01*
G01X6623708Y3974228D01*
G01X6626522Y3979052D01*
G01X6627660Y3980776D01*
G01X6629198Y3982730D01*
G01X6630536Y3984569D01*
G01X6631989Y3986208D01*
G01X6633243Y3987732D01*
G01X6635580Y3990148D01*
G01X6637434Y3992018D01*
G01X6639402Y3993688D01*
G01X6642771Y3996166D01*
G01X6648655Y3999829D01*
G01X6655969Y4003786D01*
G01X6663861Y4006742D01*
G01X6667522Y4007790D01*
G01X6669153Y4008198D01*
G01X6671099Y4008522D01*
G01X6673245Y4008961D01*
G01X6675707Y4009315D01*
G01X6680861Y4009625D01*
G01X6683038Y4009549D01*
G01X6684900Y4009557D01*
G01X6686561Y4009450D01*
G01X6689485Y4009004D01*
G01X6690831Y4008982D01*
G01X6692292Y4008759D01*
G01X6697024Y4007491D01*
G01X6699778Y4006415D01*
G01X6701986Y4005824D01*
G01X6707210Y4003241D01*
G01X6709249Y4002018D01*
G01X6711173Y4000996D01*
G01X6712896Y3999858D01*
G01X6714851Y3998320D01*
G01X6716690Y3996982D01*
G01X6721607Y3992622D01*
G01X6722930Y3991253D01*
G01X6724369Y3989684D01*
G01X6726039Y3987715D01*
G01X6727363Y3986346D01*
G01X6731227Y3980578D01*
G01X6733851Y3976494D01*
G01X6736076Y3972179D01*
G01X6738447Y3967149D01*
G01X6739086Y3965118D01*
G01X6739956Y3962688D01*
G01X6740741Y3959942D01*
G01X6741851Y3955249D01*
G01X6742321Y3952588D01*
G01X6742560Y3950326D01*
G01X6742915Y3947865D01*
G01X6743069Y3945288D01*
G01X6743108Y3942911D01*
G01X6743032Y3940734D01*
G01X6742871Y3938241D01*
G01X6742849Y3936895D01*
G01X6729851Y3929390D01*
G01X6715737Y3921508D01*
G01X6714627Y3921468D01*
G01X6713529Y3922100D01*
G01X6711890Y3923554D01*
G01X6709012Y3926691D01*
G01X6708489Y3926789D01*
G01X6708012Y3926114D01*
G01X6707189Y3924306D01*
G01X6706283Y3922182D01*
G01X6705175Y3919944D01*
G01X6704237Y3918336D01*
G01X6702530Y3915750D01*
G01X6701277Y3914227D01*
G01X6699824Y3912588D01*
G01X6697855Y3910918D01*
G01X6695971Y3909563D01*
G01X6694286Y3908324D01*
G01X6692371Y3907485D01*
G01X6688941Y3906038D01*
G01X6686795Y3905599D01*
G01X6684133Y3905128D01*
G01X6681871Y3904889D01*
G01X6680010Y3904881D01*
G01X6678464Y3904788D01*
G01X6677002Y3905011D01*
G01X6673848Y3905856D01*
G01X6672155Y3906478D01*
G01X6670347Y3907301D01*
G01X6668423Y3908323D01*
G01X6666385Y3909546D01*
G01X6664545Y3910884D01*
G01X6662591Y3912422D01*
G01X6660952Y3913875D01*
G01X6659513Y3915444D01*
G01X6657843Y3917413D01*
G01X6656520Y3918782D01*
G01X6652740Y3924865D01*
G01X6649361Y3931180D01*
G01X6647444Y3937272D01*
G01X6646658Y3940018D01*
G01X6646419Y3942280D01*
G01X6646003Y3945772D01*
G01X6646061Y3947430D01*
G01X6658110Y3947430D01*
G01X6658234Y3945368D01*
G01X6658673Y3943222D01*
G01X6659343Y3940676D01*
G01X6659867Y3938845D01*
G01X6663015Y3932931D01*
G01X6666794Y3926847D01*
G01X6668118Y3925478D01*
G01X6669126Y3924194D01*
G01X6670796Y3922225D01*
G01X6672866Y3920487D01*
G01X6674589Y3919349D01*
G01X6676082Y3918611D01*
G01X6677459Y3918073D01*
G01X6679667Y3917481D01*
G01X6682160Y3917321D01*
G01X6684221Y3917444D01*
G01X6686852Y3918430D01*
G01X6686852Y3918430D01*
G01X6689567Y3919731D01*
G01X6691167Y3920654D01*
G01X6692851Y3921893D01*
G01X6694935Y3923363D01*
G01X6696789Y3925233D01*
G01X6698327Y3927188D01*
G01X6699465Y3928911D01*
G01X6700403Y3930519D01*
G01X6701425Y3932443D01*
G01X6702617Y3934997D01*
G01X6703155Y3936374D01*
G01X6693918Y3952372D01*
G01X6684136Y3968855D01*
G01X6682759Y3969393D01*
G01X6678866Y3968745D01*
G01X6673974Y3967521D01*
G01X6672459Y3966912D01*
G01X6669544Y3965496D01*
G01X6665660Y3962987D01*
G01X6663491Y3961201D01*
G01X6662322Y3959993D01*
G01X6661068Y3958470D01*
G01X6659846Y3956431D01*
G01X6659054Y3954107D01*
G01X6658547Y3952215D01*
G01X6658156Y3950122D01*
G01X6658110Y3947430D01*
G01X6646061Y3947430D01*
G01X6646079Y3947949D01*
G01X6646324Y3950757D01*
G01X6646600Y3953050D01*
G01X6647445Y3956204D01*
G01X6648522Y3958958D01*
G01X6649144Y3960651D01*
G01X6649882Y3962143D01*
G01X6650820Y3963751D01*
G01X6651958Y3965475D01*
G01X6654065Y3968291D01*
G01X6655234Y3969499D01*
G01X6656518Y3970507D01*
G01X6658487Y3972177D01*
G01X6661887Y3974140D01*
G01X6664517Y3975126D01*
G01X6667948Y3976573D01*
G01X6669579Y3976981D01*
G01X6671725Y3977420D01*
G01X6674186Y3977775D01*
G01X6676448Y3978014D01*
G01X6677963Y3978622D01*
G01X6678070Y3980284D01*
G01X6677693Y3981399D01*
G01X6681892Y3983824D01*
G01X6687207Y3986626D01*
G01X6688322Y3987003D01*
G01X6719264Y3933410D01*
G01X6734462Y3942185D01*
G01X6734485Y3943531D01*
G01X6734330Y3946108D01*
G01X6733860Y3948769D01*
G01X6733421Y3950916D01*
G01X6733013Y3952547D01*
G01X6732374Y3954577D01*
G01X6731850Y3956408D01*
G01X6730633Y3959438D01*
G01X6728493Y3964068D01*
G01X6727046Y3967499D01*
G01X6725745Y3970214D01*
G01X6724044Y3972698D01*
G01X6720327Y3977751D01*
G01X6718626Y3980235D01*
G01X6715517Y3983773D01*
G01X6713532Y3985827D01*
G01X6711777Y3987480D01*
G01X6710138Y3988933D01*
G01X6706460Y3991609D01*
G01X6704737Y3992747D01*
G01X6702698Y3993970D01*
G01X6700774Y3994992D01*
G01X6699282Y3995730D01*
G01X6695035Y3997544D01*
G01X6689672Y3998981D01*
G01X6687380Y3999257D01*
G01X6685918Y3999480D01*
G01X6682595Y3999694D01*
G01X6680733Y3999686D01*
G01X6678672Y3999562D01*
G01X6675179Y3999146D01*
G01X6673233Y3998822D01*
G01X6671087Y3998383D01*
G01X6667026Y3997104D01*
G01X6665195Y3996581D01*
G01X6663280Y3995742D01*
G01X6661449Y3995218D01*
G01X6655135Y3991839D01*
G01X6648251Y3987598D01*
G01X6646482Y3986043D01*
G01X6644798Y3984804D01*
G01X6643229Y3983365D01*
G01X6642060Y3982157D01*
G01X6640691Y3980834D01*
G01X6637615Y3976925D01*
G01X6636277Y3975086D01*
G01X6634855Y3972931D01*
G01X6633632Y3970892D01*
G01X6632610Y3968969D01*
G01X6631672Y3967361D01*
G01X6631134Y3965984D01*
G01X6629889Y3962598D01*
G01X6629466Y3961021D01*
G01X6628390Y3958267D01*
G01X6627945Y3955344D01*
G01X6627522Y3953767D01*
G01X6626947Y3947835D01*
G01X6626955Y3945974D01*
G01X6626933Y3944627D01*
G01X6626941Y3942766D01*
G01X6627180Y3940504D01*
G01X6627597Y3937012D01*
G01X6628036Y3934866D01*
G01X6628360Y3932919D01*
G01X6629407Y3929258D01*
G01X6629815Y3927627D01*
G01X6630424Y3926112D01*
G01X6632563Y3921482D01*
G01X6634673Y3917367D01*
G01X6637182Y3913483D01*
G01X6640353Y3908915D01*
G01X6641476Y3907430D01*
G01X6643146Y3905461D01*
G01X6646886Y3901755D01*
G01X6649071Y3899817D01*
G01X6651026Y3898279D01*
G01X6652865Y3896941D01*
G01X6655881Y3894949D01*
G01X6657489Y3894011D01*
G01X6659728Y3892905D01*
G01X6661536Y3892082D01*
G01X6663029Y3891344D01*
G01X6664721Y3890721D01*
G01X6666729Y3890014D01*
G01X6668937Y3889423D01*
G01X6670714Y3889115D01*
G01X6672291Y3888693D01*
G01X6676877Y3888141D01*
G01X6678338Y3887918D01*
G01X6680200Y3887926D01*
G01X6686385Y3888297D01*
G01X6688331Y3888621D01*
G01X6692623Y3889500D01*
G01X6698115Y3891070D01*
G01X6703861Y3893588D01*
G01X6706976Y3895120D01*
G01X6709376Y3896505D01*
G01X6714344Y3899907D01*
G01X6719712Y3903540D01*
G01X6720996Y3904548D01*
G01X6722681Y3905787D01*
G01X6724050Y3907111D01*
G01X6725534Y3908234D01*
G01X6726903Y3909558D01*
G01X6728672Y3911112D01*
G01X6730072Y3911920D01*
G01X6735152Y3903121D01*
G01X6733983Y3901913D01*
G01X6730560Y3898604D01*
G01X6725992Y3895433D01*
G01X6722623Y3892955D01*
G01X6714940Y3888253D01*
G37*
G36*
G01X6815767Y3962997D02*
G01X6814252Y3962388D01*
G01X6812537Y3961665D01*
G01X6809622Y3960248D01*
G01X6807391Y3959494D01*
G01X6803730Y3958446D01*
G01X6802099Y3958038D01*
G01X6800153Y3957714D01*
G01X6797691Y3957360D01*
G01X6795430Y3957121D01*
G01X6793683Y3956912D01*
G01X6793041Y3956408D01*
G01X6792945Y3955420D01*
G01X6793069Y3953358D01*
G01X6792029Y3952158D01*
G01X6789016Y3950218D01*
G01X6783501Y3947301D01*
G01X6781986Y3946693D01*
G01X6753238Y3996486D01*
G01X6746019Y4009105D01*
G01X6763550Y4009105D01*
G01X6766067Y4003359D01*
G01X6774757Y3987846D01*
G01X6787080Y3966964D01*
G01X6788342Y3966626D01*
G01X6789772Y3966919D01*
G01X6791519Y3967127D01*
G01X6793980Y3967482D01*
G01X6796526Y3968152D01*
G01X6798357Y3968676D01*
G01X6800672Y3969746D01*
G01X6800672Y3969746D01*
G01X6802587Y3970585D01*
G01X6805302Y3971886D01*
G01X6808187Y3973818D01*
G01X6811155Y3976065D01*
G01X6812809Y3977819D01*
G01X6814746Y3980005D01*
G01X6816738Y3983021D01*
G01X6817276Y3984398D01*
G01X6818628Y3989445D01*
G01X6818789Y3991937D01*
G01X6818781Y3993799D01*
G01X6818572Y3995545D01*
G01X6818133Y3997691D01*
G01X6817809Y3999638D01*
G01X6817201Y4001153D01*
G01X6816362Y4003068D01*
G01X6815838Y4004899D01*
G01X6811997Y4012013D01*
G01X6807441Y4018981D01*
G01X6806002Y4020550D01*
G01X6804648Y4022434D01*
G01X6803324Y4023803D01*
G01X6802116Y4024972D01*
G01X6800477Y4026425D01*
G01X6798638Y4027763D01*
G01X6796599Y4028986D01*
G01X6794791Y4029809D01*
G01X6793414Y4030347D01*
G01X6791837Y4030769D01*
G01X6789860Y4030961D01*
G01X6787483Y4030922D01*
G01X6785536Y4030598D01*
G01X6780275Y4028627D01*
G01X6778675Y4027703D01*
G01X6777306Y4026380D01*
G01X6775222Y4024910D01*
G01X6773053Y4023124D01*
G01X6771800Y4021601D01*
G01X6770147Y4019846D01*
G01X6768809Y4018007D01*
G01X6766533Y4014560D01*
G01X6764488Y4010713D01*
G01X6763550Y4009105D01*
G01X6746019Y4009105D01*
G01X6731769Y4034017D01*
G01X6724859Y4047025D01*
G01X6729827Y4050427D01*
G01X6735657Y4053260D01*
G01X6736888Y4053437D01*
G01X6746933Y4036040D01*
G01X6754587Y4023128D01*
G01X6757462Y4019188D01*
G01X6758115Y4020366D01*
G01X6758653Y4021743D01*
G01X6759560Y4023866D01*
G01X6760867Y4026221D01*
G01X6763312Y4030298D01*
G01X6764650Y4032137D01*
G01X6765904Y4033661D01*
G01X6767557Y4035416D01*
G01X6769011Y4037054D01*
G01X6772779Y4039763D01*
G01X6774263Y4040887D01*
G01X6775979Y4041611D01*
G01X6778694Y4042912D01*
G01X6781724Y4044128D01*
G01X6786016Y4045007D01*
G01X6788278Y4045246D01*
G01X6790855Y4045400D01*
G01X6792832Y4045209D01*
G01X6797217Y4044541D01*
G01X6798794Y4044118D01*
G01X6800172Y4043580D01*
G01X6803787Y4041935D01*
G01X6807004Y4040059D01*
G01X6809820Y4037952D01*
G01X6811343Y4036699D01*
G01X6813098Y4035045D01*
G01X6814537Y4033477D01*
G01X6815861Y4032108D01*
G01X6817300Y4030539D01*
G01X6818539Y4028855D01*
G01X6821709Y4024286D01*
G01X6823872Y4021002D01*
G01X6825635Y4017487D01*
G01X6828006Y4012457D01*
G01X6828730Y4010742D01*
G01X6829715Y4008111D01*
G01X6830270Y4005765D01*
G01X6830793Y4003934D01*
G01X6831233Y4001788D01*
G01X6831556Y3999842D01*
G01X6831764Y3998096D01*
G01X6832012Y3993973D01*
G01X6831936Y3991795D01*
G01X6831775Y3989303D01*
G01X6831583Y3987326D01*
G01X6831138Y3984402D01*
G01X6830715Y3982825D01*
G01X6830093Y3981133D01*
G01X6829301Y3978809D01*
G01X6828110Y3976255D01*
G01X6827087Y3974331D01*
G01X6826149Y3972723D01*
G01X6824811Y3970885D01*
G01X6823558Y3969361D01*
G01X6821220Y3966945D01*
G01X6817452Y3964236D01*
G01X6815767Y3962997D01*
G37*
G36*
G01X6870605Y3997324D02*
G01X6864691Y3994175D01*
G01X6844171Y4029255D01*
G01X6823589Y4065366D01*
G01X6823211Y4066481D01*
G01X6828011Y4069252D01*
G01X6833925Y4072400D01*
G01X6835041Y4072777D01*
G01X6837696Y4068178D01*
G01X6840867Y4063610D01*
G01X6841752Y4064387D01*
G01X6842605Y4065680D01*
G01X6843143Y4067057D01*
G01X6843850Y4069065D01*
G01X6846464Y4073774D01*
G01X6847487Y4075697D01*
G01X6848625Y4077420D01*
G01X6849963Y4079260D01*
G01X6851416Y4080898D01*
G01X6853469Y4082884D01*
G01X6855122Y4084638D01*
G01X6859807Y4087609D01*
G01X6865037Y4090096D01*
G01X6867068Y4090735D01*
G01X6868067Y4091312D01*
G01X6875456Y4078514D01*
G01X6874141Y4078021D01*
G01X6872110Y4077382D01*
G01X6867880Y4075473D01*
G01X6864565Y4073825D01*
G01X6860681Y4071316D01*
G01X6858512Y4069531D01*
G01X6857143Y4068208D01*
G01X6855575Y4066768D01*
G01X6854121Y4065129D01*
G01X6852983Y4063406D01*
G01X6850538Y4059328D01*
G01X6849600Y4057720D01*
G01X6847955Y4054104D01*
G01X6847417Y4052726D01*
G01X6850691Y4046018D01*
G01X6861249Y4027384D01*
G01X6875827Y4001672D01*
G01X6876204Y4000556D01*
G01X6870605Y3997324D01*
G37*
G36*
G01X6938951Y4034117D02*
G01X6937035Y4033277D01*
G01X6935320Y4032554D01*
G01X6933205Y4031599D01*
G01X6930975Y4030845D01*
G01X6928428Y4030175D01*
G01X6926682Y4029966D01*
G01X6925136Y4029873D01*
G01X6923390Y4029665D01*
G01X6921728Y4029772D01*
G01X6918174Y4030387D01*
G01X6914389Y4031401D01*
G01X6911834Y4032592D01*
G01X6909911Y4033615D01*
G01X6907095Y4035722D01*
G01X6905340Y4037375D01*
G01X6902231Y4040913D01*
G01X6900384Y4044112D01*
G01X6899399Y4046743D01*
G01X6898644Y4048974D01*
G01X6897627Y4052119D01*
G01X6897157Y4054781D01*
G01X6897149Y4056643D01*
G01X6897056Y4058189D01*
G01X6897105Y4058509D01*
G01X6911003Y4058509D01*
G01X6911242Y4056247D01*
G01X6912259Y4053101D01*
G01X6913875Y4050302D01*
G01X6915661Y4048133D01*
G01X6916984Y4046764D01*
G01X6918392Y4045711D01*
G01X6919885Y4044972D01*
G01X6921262Y4044434D01*
G01X6922839Y4044012D01*
G01X6924301Y4043789D01*
G01X6925847Y4043882D01*
G01X6927793Y4044206D01*
G01X6930024Y4044960D01*
G01X6930024Y4044960D01*
G01X6931539Y4045569D01*
G01X6934254Y4046869D01*
G01X6938338Y4049494D01*
G01X6940507Y4051279D01*
G01X6942076Y4052719D01*
G01X6943929Y4054588D01*
G01X6946605Y4058266D01*
G01X6948027Y4060421D01*
G01X6950072Y4064268D01*
G01X6950895Y4066076D01*
G01X6951548Y4067253D01*
G01X6950469Y4070162D01*
G01X6946260Y4077798D01*
G01X6940487Y4087797D01*
G01X6937488Y4086065D01*
G01X6934004Y4083787D01*
G01X6929035Y4080385D01*
G01X6924867Y4077445D01*
G01X6921329Y4074336D01*
G01X6920045Y4073328D01*
G01X6918076Y4071658D01*
G01X6916423Y4069903D01*
G01X6915254Y4068695D01*
G01X6914200Y4067287D01*
G01X6913262Y4065679D01*
G01X6912524Y4064186D01*
G01X6911817Y4062178D01*
G01X6911226Y4059970D01*
G01X6911003Y4058509D01*
G01X6897105Y4058509D01*
G01X6897501Y4061112D01*
G01X6898009Y4063005D01*
G01X6899423Y4067021D01*
G01X6900245Y4068829D01*
G01X6901183Y4070437D01*
G01X6902321Y4072161D01*
G01X6903575Y4073684D01*
G01X6907935Y4078601D01*
G01X6909788Y4080471D01*
G01X6911557Y4082026D01*
G01X6914926Y4084504D01*
G01X6923263Y4090384D01*
G01X6925831Y4092400D01*
G01X6932400Y4096725D01*
G01X6933684Y4097734D01*
G01X6934053Y4098480D01*
G01X6933560Y4099795D01*
G01X6931628Y4102679D01*
G01X6929528Y4104933D01*
G01X6927688Y4106270D01*
G01X6926196Y4107008D01*
G01X6923988Y4107600D01*
G01X6921496Y4107761D01*
G01X6919634Y4107753D01*
G01X6917488Y4107313D01*
G01X6915457Y4106674D01*
G01X6910827Y4104534D01*
G01X6907912Y4103118D01*
G01X6905228Y4101301D01*
G01X6901059Y4098361D01*
G01X6898490Y4096345D01*
G01X6896521Y4094675D01*
G01X6894468Y4092690D01*
G01X6890761Y4088950D01*
G01X6889308Y4087311D01*
G01X6888055Y4085787D01*
G01X6886886Y4084579D01*
G01X6885420Y4085733D01*
G01X6882622Y4090117D01*
G01X6880167Y4094832D01*
G01X6879728Y4096978D01*
G01X6881181Y4098617D01*
G01X6882950Y4100171D01*
G01X6884319Y4101495D01*
G01X6887856Y4104604D01*
G01X6890825Y4106851D01*
G01X6894594Y4109560D01*
G01X6899477Y4112646D01*
G01X6904592Y4115333D01*
G01X6909622Y4117704D01*
G01X6911338Y4118427D01*
G01X6913968Y4119413D01*
G01X6916314Y4119968D01*
G01X6918461Y4120407D01*
G01X6921122Y4120877D01*
G01X6923699Y4121031D01*
G01X6926192Y4120871D01*
G01X6928169Y4120679D01*
G01X6931323Y4119834D01*
G01X6933331Y4119127D01*
G01X6935139Y4118304D01*
G01X6936747Y4117366D01*
G01X6938817Y4115628D01*
G01X6941118Y4113490D01*
G01X6942872Y4111837D01*
G01X6958659Y4084956D01*
G01X6973845Y4057729D01*
G01X6972705Y4056471D01*
G01X6969392Y4054358D01*
G01X6963477Y4051210D01*
G01X6961962Y4050602D01*
G01X6959999Y4054001D01*
G01X6958406Y4056414D01*
G01X6957552Y4056854D01*
G01X6956698Y4055562D01*
G01X6955792Y4053438D01*
G01X6954600Y4050884D01*
G01X6953577Y4048960D01*
G01X6952439Y4047237D01*
G01X6951102Y4045398D01*
G01X6948026Y4041489D01*
G01X6946372Y4039735D01*
G01X6944804Y4038296D01*
G01X6941035Y4035587D01*
G01X6938951Y4034117D01*
G37*
G36*
G01X6996988Y4070291D02*
G01X6990074Y4066565D01*
G01X6989727Y4067165D01*
G01X6990119Y4069258D01*
G01X6990395Y4071550D01*
G01X6991508Y4078859D01*
G01X6991531Y4080205D01*
G01X6991753Y4081667D01*
G01X6992176Y4083244D01*
G01X6992729Y4087829D01*
G01X6992951Y4089290D01*
G01X6993343Y4091383D01*
G01X6993895Y4095968D01*
G01X6994341Y4098891D01*
G01X6994617Y4101184D01*
G01X6995507Y4107031D01*
G01X6995783Y4109323D01*
G01X6996674Y4115170D01*
G01X6996635Y4117547D01*
G01X6995626Y4118831D01*
G01X6994134Y4119569D01*
G01X6992010Y4120476D01*
G01X6989256Y4121552D01*
G01X6987133Y4122459D01*
G01X6981624Y4124612D01*
G01X6979816Y4125434D01*
G01X6977377Y4126426D01*
G01X6971007Y4129147D01*
G01X6968252Y4130223D01*
G01X6966129Y4131130D01*
G01X6960620Y4133282D01*
G01X6958497Y4134189D01*
G01X6955742Y4135266D01*
G01X6951495Y4137080D01*
G01X6950118Y4137618D01*
G01X6949141Y4138387D01*
G01X6950631Y4139847D01*
G01X6955794Y4143027D01*
G01X6961329Y4146024D01*
G01X6963939Y4146930D01*
G01X6965831Y4146423D01*
G01X6974325Y4142795D01*
G01X6977941Y4141150D01*
G01X6979319Y4140612D01*
G01X6980496Y4139958D01*
G01X6981873Y4139420D01*
G01X6983881Y4138713D01*
G01X6985689Y4137891D01*
G01X6986866Y4137237D01*
G01X6988243Y4136699D01*
G01X6990252Y4135992D01*
G01X6992806Y4134800D01*
G01X6994929Y4133893D01*
G01X6996306Y4133355D01*
G01X6997484Y4132702D01*
G01X6998745Y4132364D01*
G01X6999366Y4132789D01*
G01X6999799Y4133772D01*
G01X7000191Y4135864D01*
G01X7000382Y4137841D01*
G01X7000743Y4140449D01*
G01X7001295Y4145034D01*
G01X7001372Y4147212D01*
G01X7001594Y4148673D01*
G01X7001986Y4150766D01*
G01X7002231Y4153574D01*
G01X7003060Y4160451D01*
G01X7003505Y4163374D01*
G01X7004057Y4167960D01*
G01X7004449Y4170052D01*
G01X7006102Y4171807D01*
G01X7010386Y4174547D01*
G01X7017101Y4178157D01*
G01X7018447Y4178134D01*
G01X7018309Y4176988D01*
G01X7017886Y4175410D01*
G01X7017664Y4173949D01*
G01X7017641Y4172603D01*
G01X7017419Y4171141D01*
G01X7016996Y4169564D01*
G01X7014102Y4150562D01*
G01X7014079Y4149216D01*
G01X7012966Y4141907D01*
G01X7012543Y4140330D01*
G01X7012321Y4138868D01*
G01X7012298Y4137522D01*
G01X7011630Y4133137D01*
G01X7011208Y4131560D01*
G01X7010763Y4128637D01*
G01X7011255Y4127321D01*
G01X7012548Y4126468D01*
G01X7015302Y4125392D01*
G01X7019549Y4123578D01*
G01X7020926Y4123040D01*
G01X7022104Y4122386D01*
G01X7023481Y4121848D01*
G01X7025058Y4121426D01*
G01X7029305Y4119611D01*
G01X7032059Y4118535D01*
G01X7034183Y4117628D01*
G01X7036937Y4116552D01*
G01X7043307Y4113831D01*
G01X7047439Y4112217D01*
G01X7048616Y4111563D01*
G01X7049993Y4111025D01*
G01X7051570Y4110603D01*
G01X7055817Y4108789D01*
G01X7058572Y4107712D01*
G01X7059349Y4106828D01*
G01X7053181Y4102734D01*
G01X7045866Y4098777D01*
G01X7044120Y4098569D01*
G01X7042858Y4098907D01*
G01X7041481Y4099445D01*
G01X7034249Y4102735D01*
G01X7031495Y4103811D01*
G01X7027878Y4105456D01*
G01X7025124Y4106533D01*
G01X7023316Y4107355D01*
G01X7021708Y4108293D01*
G01X7020331Y4108831D01*
G01X7018323Y4109538D01*
G01X7015768Y4110730D01*
G01X7013645Y4111637D01*
G01X7012268Y4112175D01*
G01X7011091Y4112828D01*
G01X7009714Y4113366D01*
G01X7008514Y4112674D01*
G01X7007922Y4110466D01*
G01X7007646Y4108173D01*
G01X7007454Y4106196D01*
G01X7007093Y4103588D01*
G01X7006817Y4101295D01*
G01X7006434Y4097341D01*
G01X7005881Y4092756D01*
G01X7005690Y4090779D01*
G01X7005329Y4088171D01*
G01X7004501Y4081294D01*
G01X7004278Y4079832D01*
G01X7004086Y4077855D01*
G01X7003725Y4075247D01*
G01X7001872Y4073377D01*
G01X6996988Y4070291D01*
G37*
G36*
G01X7099867Y4128088D02*
G01X7095352Y4125748D01*
G01X7093522Y4125224D01*
G01X7090891Y4124239D01*
G01X7088545Y4123684D01*
G01X7084422Y4123437D01*
G01X7079837Y4123989D01*
G01X7077629Y4124581D01*
G01X7075074Y4125772D01*
G01X7073035Y4126995D01*
G01X7071081Y4128533D01*
G01X7069442Y4129986D01*
G01X7066333Y4133524D01*
G01X7053202Y4155805D01*
G01X7040618Y4177603D01*
G01X7037218Y4175640D01*
G01X7034382Y4174202D01*
G01X7032672Y4173815D01*
G01X7031235Y4174919D01*
G01X7029217Y4177953D01*
G01X7026846Y4182983D01*
G01X7027749Y4184305D01*
G01X7030583Y4186207D01*
G01X7034383Y4188401D01*
G01X7028957Y4197800D01*
G01X7023153Y4208314D01*
G01X7022776Y4209429D01*
G01X7027975Y4212431D01*
G01X7034205Y4215495D01*
G01X7036421Y4213041D01*
G01X7041009Y4205558D01*
G01X7046781Y4195559D01*
G01X7058180Y4202140D01*
G01X7070694Y4209098D01*
G01X7071809Y4209476D01*
G01X7074580Y4204676D01*
G01X7076566Y4200890D01*
G01X7076982Y4199131D01*
G01X7066214Y4192381D01*
G01X7054300Y4185769D01*
G01X7052785Y4185161D01*
G01X7064561Y4164764D01*
G01X7076884Y4143882D01*
G01X7078123Y4142197D01*
G01X7079562Y4140628D01*
G01X7080970Y4139575D01*
G01X7082263Y4138721D01*
G01X7083440Y4138068D01*
G01X7085448Y4137361D01*
G01X7088256Y4137116D01*
G01X7090402Y4137555D01*
G01X7091918Y4138163D01*
G01X7096232Y4140388D01*
G01X7101001Y4143674D01*
G01X7103139Y4145975D01*
G01X7104592Y4147614D01*
G01X7105876Y4148622D01*
G01X7107256Y4147619D01*
G01X7109793Y4143685D01*
G01X7112911Y4138285D01*
G01X7112026Y4137508D01*
G01X7110573Y4135869D01*
G01X7109004Y4134430D01*
G01X7107520Y4133306D01*
G01X7104151Y4130828D01*
G01X7099867Y4128088D01*
G37*
G36*
G01X7158206Y4160970D02*
G01X7156606Y4160047D01*
G01X7155091Y4159438D01*
G01X7152376Y4158137D01*
G01X7149345Y4156921D01*
G01X7146199Y4155905D01*
G01X7143338Y4155319D01*
G01X7140876Y4154964D01*
G01X7138299Y4154810D01*
G01X7135807Y4154970D01*
G01X7133629Y4155047D01*
G01X7131853Y4155354D01*
G01X7125544Y4157044D01*
G01X7124167Y4157582D01*
G01X7122359Y4158405D01*
G01X7120004Y4159712D01*
G01X7116126Y4162272D01*
G01X7114287Y4163610D01*
G01X7112648Y4165063D01*
G01X7111094Y4166832D01*
G01X7109224Y4168686D01*
G01X7107785Y4170254D01*
G01X7106661Y4171739D01*
G01X7102305Y4178822D01*
G01X7098349Y4186137D01*
G01X7097625Y4187852D01*
G01X7096755Y4190283D01*
G01X7096316Y4192429D01*
G01X7095676Y4194460D01*
G01X7095006Y4197006D01*
G01X7094652Y4199467D01*
G01X7094250Y4206167D01*
G01X7094408Y4207803D01*
G01X7107704Y4207803D01*
G01X7107743Y4205425D01*
G01X7108098Y4202964D01*
G01X7108568Y4200302D01*
G01X7109007Y4198156D01*
G01X7110223Y4195126D01*
G01X7112363Y4190495D01*
G01X7114126Y4186980D01*
G01X7116289Y4183696D01*
G01X7117412Y4182212D01*
G01X7119229Y4179528D01*
G01X7121014Y4177359D01*
G01X7122022Y4176075D01*
G01X7123346Y4174706D01*
G01X7124869Y4173452D01*
G01X7126277Y4172399D01*
G01X7129724Y4170123D01*
G01X7131217Y4169385D01*
G01X7133971Y4168309D01*
G01X7136179Y4167717D01*
G01X7138672Y4167556D01*
G01X7141049Y4167596D01*
G01X7143311Y4167835D01*
G01X7144941Y4168243D01*
G01X7146856Y4169082D01*
G01X7146856Y4169082D01*
G01X7148372Y4169691D01*
G01X7150087Y4170414D01*
G01X7153171Y4172461D01*
G01X7155340Y4174247D01*
G01X7156624Y4175255D01*
G01X7157793Y4176463D01*
G01X7158931Y4178187D01*
G01X7159869Y4179795D01*
G01X7160723Y4181087D01*
G01X7161461Y4182580D01*
G01X7162306Y4185734D01*
G01X7162382Y4187911D01*
G01X7162574Y4189888D01*
G01X7162565Y4191750D01*
G01X7161980Y4194612D01*
G01X7161510Y4197273D01*
G01X7160724Y4200019D01*
G01X7159854Y4202450D01*
G01X7156013Y4209564D01*
G01X7151772Y4216448D01*
G01X7149756Y4219016D01*
G01X7148317Y4220585D01*
G01X7146563Y4222239D01*
G01X7143284Y4225146D01*
G01X7141561Y4226283D01*
G01X7138576Y4227760D01*
G01X7136883Y4228382D01*
G01X7135306Y4228805D01*
G01X7133214Y4229196D01*
G01X7131236Y4229388D01*
G01X7129690Y4229295D01*
G01X7127944Y4229087D01*
G01X7125798Y4228648D01*
G01X7123767Y4228009D01*
G01X7120452Y4226361D01*
G01X7116168Y4223621D01*
G01X7113515Y4221290D01*
G01X7111777Y4219220D01*
G01X7110355Y4217065D01*
G01X7109532Y4215257D01*
G01X7108456Y4212503D01*
G01X7108118Y4211241D01*
G01X7107895Y4209779D01*
G01X7107704Y4207803D01*
G01X7094408Y4207803D01*
G01X7094633Y4210121D01*
G01X7095025Y4212214D01*
G01X7095447Y4213791D01*
G01X7095754Y4215568D01*
G01X7096546Y4217892D01*
G01X7097453Y4220015D01*
G01X7098191Y4221508D01*
G01X7100067Y4224724D01*
G01X7101121Y4226132D01*
G01X7102374Y4227656D01*
G01X7104227Y4229526D01*
G01X7105881Y4231280D01*
G01X7107450Y4232719D01*
G01X7109134Y4233958D01*
G01X7112618Y4236236D01*
G01X7116333Y4238114D01*
G01X7120163Y4239793D01*
G01X7127202Y4241456D01*
G01X7129663Y4241811D01*
G01X7135248Y4241836D01*
G01X7140579Y4240915D01*
G01X7143733Y4240070D01*
G01X7145857Y4239162D01*
G01X7148412Y4237971D01*
G01X7150650Y4236864D01*
G01X7152805Y4235441D01*
G01X7156483Y4232766D01*
G01X7158122Y4231312D01*
G01X7164340Y4224237D01*
G01X7167888Y4218553D01*
G01X7171498Y4211839D01*
G01X7173007Y4207377D01*
G01X7173993Y4204747D01*
G01X7174516Y4202916D01*
G01X7175155Y4200885D01*
G01X7175595Y4198739D01*
G01X7175842Y4194616D01*
G01X7176166Y4192670D01*
G01X7176174Y4190808D01*
G01X7175791Y4186854D01*
G01X7175007Y4182669D01*
G01X7174585Y4181092D01*
G01X7173509Y4178337D01*
G01X7172886Y4176645D01*
G01X7171410Y4173660D01*
G01X7168734Y4169982D01*
G01X7166996Y4167912D01*
G01X7165343Y4166157D01*
G01X7162774Y4164141D01*
G01X7160890Y4162786D01*
G01X7158206Y4160970D01*
G37*
G36*
G01X7297748Y4243935D02*
G01X7291833Y4240786D01*
G01X7286159Y4249575D01*
G01X7270567Y4276235D01*
G01X7255246Y4303118D01*
G01X7250385Y4312576D01*
G01X7254953Y4315747D01*
G01X7260668Y4318780D01*
G01X7262183Y4319388D01*
G01X7264031Y4316189D01*
G01X7265595Y4313826D01*
G01X7266593Y4313136D01*
G01X7267478Y4313913D01*
G01X7269123Y4317529D01*
G01X7269861Y4319022D01*
G01X7270883Y4320945D01*
G01X7272106Y4322984D01*
G01X7274951Y4327293D01*
G01X7276204Y4328816D01*
G01X7279342Y4331694D01*
G01X7283226Y4334203D01*
G01X7288541Y4337005D01*
G01X7291687Y4338022D01*
G01X7293633Y4338346D01*
G01X7295263Y4338754D01*
G01X7297525Y4338993D01*
G01X7300017Y4338832D01*
G01X7301995Y4338641D01*
G01X7305149Y4337795D01*
G01X7307903Y4336719D01*
G01X7309396Y4335981D01*
G01X7310113Y4335662D01*
G01X7310942Y4336074D01*
G01X7311995Y4337482D01*
G01X7312533Y4338859D01*
G01X7314348Y4343106D01*
G01X7315370Y4345030D01*
G01X7316193Y4346838D01*
G01X7317131Y4348446D01*
G01X7318269Y4350170D01*
G01X7319607Y4352008D01*
G01X7321344Y4354078D01*
G01X7322598Y4355602D01*
G01X7325336Y4358249D01*
G01X7329620Y4360989D01*
G01X7334934Y4363791D01*
G01X7337965Y4365007D01*
G01X7340511Y4365677D01*
G01X7342773Y4365916D01*
G01X7345350Y4366071D01*
G01X7347327Y4365880D01*
G01X7348788Y4365657D01*
G01X7351943Y4364812D01*
G01X7353635Y4364189D01*
G01X7357713Y4361744D01*
G01X7359552Y4360406D01*
G01X7361076Y4359153D01*
G01X7362399Y4357784D01*
G01X7363954Y4356015D01*
G01X7365277Y4354646D01*
G01X7380602Y4328565D01*
G01X7395757Y4301853D01*
G01X7396134Y4300738D01*
G01X7391735Y4298198D01*
G01X7385821Y4295050D01*
G01X7384305Y4294442D01*
G01X7371605Y4316439D01*
G01X7358359Y4338920D01*
G01X7356774Y4341204D01*
G01X7354957Y4343889D01*
G01X7353634Y4345257D01*
G01X7352626Y4346542D01*
G01X7351071Y4348311D01*
G01X7349232Y4349649D01*
G01X7347624Y4350587D01*
G01X7345931Y4351209D01*
G01X7343954Y4351401D01*
G01X7341377Y4351246D01*
G01X7339231Y4350807D01*
G01X7335116Y4348698D01*
G01X7331232Y4346189D01*
G01X7329948Y4345181D01*
G01X7328579Y4343857D01*
G01X7327126Y4342218D01*
G01X7325872Y4340694D01*
G01X7323312Y4336817D01*
G01X7321267Y4332969D01*
G01X7319622Y4329354D01*
G01X7319114Y4327461D01*
G01X7319807Y4326261D01*
G01X7322516Y4322493D01*
G01X7336340Y4299011D01*
G01X7346263Y4281477D01*
G01X7349479Y4274868D01*
G01X7348326Y4273402D01*
G01X7345141Y4271297D01*
G01X7339427Y4268264D01*
G01X7337911Y4267656D01*
G01X7325558Y4289053D01*
G01X7312658Y4310935D01*
G01X7309487Y4315503D01*
G01X7308248Y4317188D01*
G01X7306778Y4319272D01*
G01X7305454Y4320641D01*
G01X7304246Y4321810D01*
G01X7302523Y4322948D01*
G01X7300284Y4324055D01*
G01X7297761Y4324731D01*
G01X7295183Y4324576D01*
G01X7293237Y4324252D01*
G01X7288922Y4322028D01*
G01X7284438Y4319172D01*
G01X7283069Y4317849D01*
G01X7281501Y4316410D01*
G01X7280047Y4314771D01*
G01X7277487Y4310893D01*
G01X7274873Y4306184D01*
G01X7273766Y4303945D01*
G01X7272943Y4302137D01*
G01X7276476Y4294978D01*
G01X7287814Y4274994D01*
G01X7303001Y4247767D01*
G01X7301661Y4246394D01*
G01X7297748Y4243935D01*
G37*
G36*
G01X7440083Y4323446D02*
G01X7438168Y4322607D01*
G01X7436653Y4321998D01*
G01X7434338Y4320928D01*
G01X7430676Y4319881D01*
G01X7428730Y4319557D01*
G01X7424607Y4319310D01*
G01X7422745Y4319301D01*
G01X7420968Y4319609D01*
G01X7418045Y4320054D01*
G01X7413798Y4321868D01*
G01X7411990Y4322690D01*
G01X7409836Y4324113D01*
G01X7407766Y4325851D01*
G01X7406242Y4327104D01*
G01X7403995Y4330073D01*
G01X7402756Y4331757D01*
G01X7401917Y4333672D01*
G01X7401193Y4335388D01*
G01X7400007Y4337903D01*
G01X7399106Y4340849D01*
G01X7398752Y4343310D01*
G01X7398513Y4345572D01*
G01X7398504Y4347433D01*
G01X7398599Y4348900D01*
G01X7412589Y4348900D01*
G01X7412659Y4346007D01*
G01X7413099Y4343861D01*
G01X7414169Y4341546D01*
G01X7415870Y4339062D01*
G01X7417424Y4337293D01*
G01X7419178Y4335639D01*
G01X7421333Y4334217D01*
G01X7423341Y4333510D01*
G01X7425318Y4333318D01*
G01X7427379Y4333442D01*
G01X7429126Y4333650D01*
G01X7431156Y4334289D01*
G01X7431156Y4334289D01*
G01X7432672Y4334898D01*
G01X7435587Y4336314D01*
G01X7439871Y4339054D01*
G01X7442040Y4340839D01*
G01X7443808Y4342394D01*
G01X7445462Y4344148D01*
G01X7450014Y4351042D01*
G01X7451036Y4352966D01*
G01X7452143Y4355205D01*
G01X7453081Y4356813D01*
G01X7452117Y4359522D01*
G01X7448255Y4366558D01*
G01X7442166Y4376641D01*
G01X7441513Y4377197D01*
G01X7441105Y4377095D01*
G01X7438220Y4375163D01*
G01X7435136Y4373116D01*
G01X7430568Y4369945D01*
G01X7428684Y4368590D01*
G01X7426400Y4367005D01*
G01X7425031Y4365681D01*
G01X7422462Y4363665D01*
G01X7420493Y4361995D01*
G01X7418040Y4359779D01*
G01X7416302Y4357709D01*
G01X7414880Y4355555D01*
G01X7414057Y4353746D01*
G01X7413403Y4352569D01*
G01X7412865Y4351192D01*
G01X7412589Y4348900D01*
G01X7398599Y4348900D01*
G01X7398612Y4349095D01*
G01X7398919Y4350872D01*
G01X7399933Y4354657D01*
G01X7401778Y4358389D01*
G01X7402716Y4359997D01*
G01X7403854Y4361721D01*
G01X7404907Y4363129D01*
G01X7406161Y4364652D01*
G01X7409468Y4368161D01*
G01X7411321Y4370031D01*
G01X7413090Y4371586D01*
G01X7416058Y4373833D01*
G01X7420227Y4376773D01*
G01X7424795Y4379944D01*
G01X7427364Y4381960D01*
G01X7433932Y4386285D01*
G01X7435217Y4387294D01*
G01X7435614Y4387990D01*
G01X7435208Y4389155D01*
G01X7433392Y4391839D01*
G01X7431291Y4394093D01*
G01X7429452Y4395430D01*
G01X7427529Y4396453D01*
G01X7425520Y4397160D01*
G01X7423344Y4397236D01*
G01X7420967Y4397197D01*
G01X7418620Y4396642D01*
G01X7416590Y4396003D01*
G01X7411959Y4393863D01*
G01X7409244Y4392562D01*
G01X7406760Y4390861D01*
G01X7405076Y4389622D01*
G01X7402192Y4387691D01*
G01X7399623Y4385674D01*
G01X7397854Y4384120D01*
G01X7396485Y4382796D01*
G01X7393179Y4379287D01*
G01X7391810Y4377964D01*
G01X7388903Y4374686D01*
G01X7387503Y4373877D01*
G01X7383755Y4379446D01*
G01X7381394Y4383882D01*
G01X7380776Y4385991D01*
G01X7382714Y4388177D01*
G01X7385367Y4390508D01*
G01X7386820Y4392147D01*
G01X7389389Y4394164D01*
G01X7392358Y4396411D01*
G01X7396126Y4399120D01*
G01X7401010Y4402206D01*
G01X7406125Y4404893D01*
G01X7408040Y4405732D01*
G01X7411155Y4407264D01*
G01X7414186Y4408480D01*
G01X7417847Y4409528D01*
G01X7419993Y4409967D01*
G01X7422455Y4410321D01*
G01X7424516Y4410445D01*
G01X7428670Y4410177D01*
G01X7430963Y4409901D01*
G01X7433171Y4409309D01*
G01X7436902Y4407464D01*
G01X7438511Y4406526D01*
G01X7440349Y4405188D01*
G01X7442219Y4403335D01*
G01X7443774Y4401566D01*
G01X7447407Y4396198D01*
G01X7461692Y4371917D01*
G01X7475378Y4347289D01*
G01X7474237Y4346031D01*
G01X7470924Y4343918D01*
G01X7465010Y4340770D01*
G01X7463495Y4340162D01*
G01X7461647Y4343361D01*
G01X7459285Y4346530D01*
G01X7458316Y4345437D01*
G01X7456671Y4341821D01*
G01X7455564Y4339582D01*
G01X7454541Y4337659D01*
G01X7453203Y4335820D01*
G01X7451665Y4333865D01*
G01X7450327Y4332026D01*
G01X7449074Y4330503D01*
G01X7445936Y4327625D01*
G01X7442168Y4324916D01*
G01X7440083Y4323446D01*
G37*
G54D10*
G01X6639255Y5362702D02*
G01X6632905Y5359654D01*
G01X6626809Y5353304D01*
G01X6623761Y5347208D01*
G01X6623761Y5334762D01*
G01X6626809Y5328666D01*
G01X6632905Y5322316D01*
G01X6639255Y5319268D01*
G01X6648399Y5316220D01*
G01X6663893Y5316220D01*
G01X6673291Y5319268D01*
G01X6679387Y5322316D01*
G01X6685737Y5328666D01*
G01X6688785Y5334762D01*
G01X6688785Y5347208D01*
G01X6685737Y5353304D01*
G01X6679387Y5359654D01*
G01X6673291Y5362702D01*
G01X6636207Y5392928D02*
G01X6632905Y5399024D01*
G01X6623761Y5408168D01*
G01X6688785Y5408168D01*
G01X5667502Y4828540D02*
G01X5664454Y4834890D01*
G01X5658104Y4840986D01*
G01X5652008Y4844034D01*
G01X5639562Y4844034D01*
G01X5633466Y4840986D01*
G01X5627116Y4834890D01*
G01X5624068Y4828540D01*
G01X5621020Y4819396D01*
G01X5621020Y4803902D01*
G01X5624068Y4794504D01*
G01X5627116Y4788408D01*
G01X5633466Y4782058D01*
G01X5639562Y4779010D01*
G01X5652008Y4779010D01*
G01X5658104Y4782058D01*
G01X5664454Y4788408D01*
G01X5667502Y4794504D01*
G01X5700776Y4828540D02*
G01X5700776Y4831588D01*
G01X5703824Y4837938D01*
G01X5706872Y4840986D01*
G01X5712968Y4844034D01*
G01X5725414Y4844034D01*
G01X5731764Y4840986D01*
G01X5734812Y4837938D01*
G01X5737860Y4831588D01*
G01X5737860Y4825492D01*
G01X5734812Y4819396D01*
G01X5728462Y4809998D01*
G01X5697728Y4779010D01*
G01X5740908Y4779010D01*
G01X3737102Y4815840D02*
G01X3734054Y4822190D01*
G01X3727704Y4828286D01*
G01X3721608Y4831334D01*
G01X3709162Y4831334D01*
G01X3703066Y4828286D01*
G01X3696716Y4822190D01*
G01X3693668Y4815840D01*
G01X3690620Y4806696D01*
G01X3690620Y4791202D01*
G01X3693668Y4781804D01*
G01X3696716Y4775708D01*
G01X3703066Y4769358D01*
G01X3709162Y4766310D01*
G01X3721608Y4766310D01*
G01X3727704Y4769358D01*
G01X3734054Y4775708D01*
G01X3737102Y4781804D01*
G01X3773424Y4831334D02*
G01X3807460Y4831334D01*
G01X3788918Y4806696D01*
G01X3798062Y4806696D01*
G01X3804412Y4803648D01*
G01X3807460Y4800346D01*
G01X3810508Y4791202D01*
G01X3810508Y4784852D01*
G01X3807460Y4775708D01*
G01X3801364Y4769358D01*
G01X3791966Y4766310D01*
G01X3782568Y4766310D01*
G01X3773424Y4769358D01*
G01X3770376Y4772660D01*
G01X3767328Y4778756D01*
G01X6137402Y5349240D02*
G01X6134354Y5355590D01*
G01X6128004Y5361686D01*
G01X6121908Y5364734D01*
G01X6109462Y5364734D01*
G01X6103366Y5361686D01*
G01X6097016Y5355590D01*
G01X6093968Y5349240D01*
G01X6090920Y5340096D01*
G01X6090920Y5324602D01*
G01X6093968Y5315204D01*
G01X6097016Y5309108D01*
G01X6103366Y5302758D01*
G01X6109462Y5299710D01*
G01X6121908Y5299710D01*
G01X6128004Y5302758D01*
G01X6134354Y5309108D01*
G01X6137402Y5315204D01*
G01X6198362Y5364734D02*
G01X6167628Y5321554D01*
G01X6213856Y5321554D01*
G01X6198362Y5364734D02*
G01X6198362Y5299710D01*
G01X3648202Y5336540D02*
G01X3645154Y5342890D01*
G01X3638804Y5348986D01*
G01X3632708Y5352034D01*
G01X3620262Y5352034D01*
G01X3614166Y5348986D01*
G01X3607816Y5342890D01*
G01X3604768Y5336540D01*
G01X3601720Y5327396D01*
G01X3601720Y5311902D01*
G01X3604768Y5302504D01*
G01X3607816Y5296408D01*
G01X3614166Y5290058D01*
G01X3620262Y5287010D01*
G01X3632708Y5287010D01*
G01X3638804Y5290058D01*
G01X3645154Y5296408D01*
G01X3648202Y5302504D01*
G01X3715512Y5352034D02*
G01X3684524Y5352034D01*
G01X3681476Y5324348D01*
G01X3684524Y5327396D01*
G01X3693668Y5330444D01*
G01X3703066Y5330444D01*
G01X3712464Y5327396D01*
G01X3718560Y5321046D01*
G01X3721608Y5311902D01*
G01X3721608Y5305552D01*
G01X3718560Y5296408D01*
G01X3712464Y5290058D01*
G01X3703066Y5287010D01*
G01X3693668Y5287010D01*
G01X3684524Y5290058D01*
G01X3681476Y5293360D01*
G01X3678428Y5299456D01*
G01X5891581Y5055545D02*
G01X5897931Y5058593D01*
G01X5904027Y5064943D01*
G01X5907075Y5071039D01*
G01X5907075Y5083485D01*
G01X5904027Y5089581D01*
G01X5897931Y5095931D01*
G01X5891581Y5098979D01*
G01X5882437Y5102027D01*
G01X5866943Y5102027D01*
G01X5857545Y5098979D01*
G01X5851449Y5095931D01*
G01X5845099Y5089581D01*
G01X5842051Y5083485D01*
G01X5842051Y5071039D01*
G01X5845099Y5064943D01*
G01X5851449Y5058593D01*
G01X5857545Y5055545D01*
G01X5897931Y4988235D02*
G01X5904027Y4991283D01*
G01X5907075Y5000681D01*
G01X5907075Y5006777D01*
G01X5904027Y5016175D01*
G01X5894629Y5022271D01*
G01X5879389Y5025319D01*
G01X5863895Y5025319D01*
G01X5851449Y5022271D01*
G01X5845099Y5016175D01*
G01X5842051Y5006777D01*
G01X5842051Y5003729D01*
G01X5845099Y4994585D01*
G01X5851449Y4988235D01*
G01X5860593Y4985187D01*
G01X5863895Y4985187D01*
G01X5873039Y4988235D01*
G01X5879389Y4994585D01*
G01X5882437Y5003729D01*
G01X5882437Y5006777D01*
G01X5879389Y5016175D01*
G01X5873039Y5022271D01*
G01X5863895Y5025319D01*
G01X5896102Y5222240D02*
G01X5893054Y5228590D01*
G01X5886704Y5234686D01*
G01X5880608Y5237734D01*
G01X5868162Y5237734D01*
G01X5862066Y5234686D01*
G01X5855716Y5228590D01*
G01X5852668Y5222240D01*
G01X5849620Y5213096D01*
G01X5849620Y5197602D01*
G01X5852668Y5188204D01*
G01X5855716Y5182108D01*
G01X5862066Y5175758D01*
G01X5868162Y5172710D01*
G01X5880608Y5172710D01*
G01X5886704Y5175758D01*
G01X5893054Y5182108D01*
G01X5896102Y5188204D01*
G01X5969508Y5237734D02*
G01X5938520Y5172710D01*
G01X5926328Y5237734D02*
G01X5969508Y5237734D01*
G01X4344204Y5260340D02*
G01X4341156Y5266690D01*
G01X4334806Y5272786D01*
G01X4328710Y5275834D01*
G01X4316264Y5275834D01*
G01X4310168Y5272786D01*
G01X4303818Y5266690D01*
G01X4300770Y5260340D01*
G01X4297722Y5251196D01*
G01X4297722Y5235702D01*
G01X4300770Y5226304D01*
G01X4303818Y5220208D01*
G01X4310168Y5213858D01*
G01X4316264Y5210810D01*
G01X4328710Y5210810D01*
G01X4334806Y5213858D01*
G01X4341156Y5220208D01*
G01X4344204Y5226304D01*
G01X4389670Y5275834D02*
G01X4380526Y5272786D01*
G01X4377478Y5266690D01*
G01X4377478Y5260340D01*
G01X4380526Y5254244D01*
G01X4386622Y5251196D01*
G01X4399068Y5248148D01*
G01X4408466Y5244846D01*
G01X4414562Y5238750D01*
G01X4417610Y5232654D01*
G01X4417610Y5223256D01*
G01X4414562Y5217160D01*
G01X4411514Y5213858D01*
G01X4402116Y5210810D01*
G01X4389670Y5210810D01*
G01X4380526Y5213858D01*
G01X4377478Y5217160D01*
G01X4374430Y5223256D01*
G01X4374430Y5232654D01*
G01X4377478Y5238750D01*
G01X4383574Y5244846D01*
G01X4392972Y5248148D01*
G01X4405164Y5251196D01*
G01X4411514Y5254244D01*
G01X4414562Y5260340D01*
G01X4414562Y5266690D01*
G01X4411514Y5272786D01*
G01X4402116Y5275834D01*
G01X4389670Y5275834D01*
G01X4345728Y5412740D02*
G01X4342680Y5419090D01*
G01X4336330Y5425186D01*
G01X4330234Y5428234D01*
G01X4317788Y5428234D01*
G01X4311692Y5425186D01*
G01X4305342Y5419090D01*
G01X4302294Y5412740D01*
G01X4299246Y5403596D01*
G01X4299246Y5388102D01*
G01X4302294Y5378704D01*
G01X4305342Y5372608D01*
G01X4311692Y5366258D01*
G01X4317788Y5363210D01*
G01X4330234Y5363210D01*
G01X4336330Y5366258D01*
G01X4342680Y5372608D01*
G01X4345728Y5378704D01*
G01X4416086Y5406644D02*
G01X4413038Y5397246D01*
G01X4406688Y5391150D01*
G01X4397544Y5388102D01*
G01X4394496Y5388102D01*
G01X4385098Y5391150D01*
G01X4379002Y5397246D01*
G01X4375954Y5406644D01*
G01X4375954Y5409692D01*
G01X4379002Y5419090D01*
G01X4385098Y5425186D01*
G01X4394496Y5428234D01*
G01X4397544Y5428234D01*
G01X4406688Y5425186D01*
G01X4413038Y5419090D01*
G01X4416086Y5406644D01*
G01X4416086Y5391150D01*
G01X4413038Y5375656D01*
G01X4406688Y5366258D01*
G01X4397544Y5363210D01*
G01X4391194Y5363210D01*
G01X4382050Y5366258D01*
G01X4379002Y5372608D01*
G01X4323969Y5082540D02*
G01X4320921Y5088890D01*
G01X4314571Y5094986D01*
G01X4308475Y5098034D01*
G01X4296029Y5098034D01*
G01X4289933Y5094986D01*
G01X4283583Y5088890D01*
G01X4280535Y5082540D01*
G01X4277487Y5073396D01*
G01X4277487Y5057902D01*
G01X4280535Y5048504D01*
G01X4283583Y5042408D01*
G01X4289933Y5036058D01*
G01X4296029Y5033010D01*
G01X4308475Y5033010D01*
G01X4314571Y5036058D01*
G01X4320921Y5042408D01*
G01X4323969Y5048504D01*
G01X4354195Y5085588D02*
G01X4360291Y5088890D01*
G01X4369435Y5098034D01*
G01X4369435Y5033010D01*
G01X4418203Y5098034D02*
G01X4408805Y5094986D01*
G01X4402709Y5085588D01*
G01X4399661Y5070348D01*
G01X4399661Y5060950D01*
G01X4402709Y5045456D01*
G01X4408805Y5036058D01*
G01X4418203Y5033010D01*
G01X4424299Y5033010D01*
G01X4433697Y5036058D01*
G01X4439793Y5045456D01*
G01X4442841Y5060950D01*
G01X4442841Y5070348D01*
G01X4439793Y5085588D01*
G01X4433697Y5094986D01*
G01X4424299Y5098034D01*
G01X4418203Y5098034D01*
G01X4337939Y4942840D02*
G01X4334891Y4949190D01*
G01X4328541Y4955286D01*
G01X4322445Y4958334D01*
G01X4309999Y4958334D01*
G01X4303903Y4955286D01*
G01X4297553Y4949190D01*
G01X4294505Y4942840D01*
G01X4291457Y4933696D01*
G01X4291457Y4918202D01*
G01X4294505Y4908804D01*
G01X4297553Y4902708D01*
G01X4303903Y4896358D01*
G01X4309999Y4893310D01*
G01X4322445Y4893310D01*
G01X4328541Y4896358D01*
G01X4334891Y4902708D01*
G01X4337939Y4908804D01*
G01X4368165Y4945888D02*
G01X4374261Y4949190D01*
G01X4383405Y4958334D01*
G01X4383405Y4893310D01*
G01X4413631Y4945888D02*
G01X4419727Y4949190D01*
G01X4428871Y4958334D01*
G01X4428871Y4893310D01*
G01X6615919Y4922520D02*
G01X6680943Y4922520D01*
G01X6615919Y4922520D02*
G01X6615919Y4950460D01*
G01X6618967Y4959604D01*
G01X6622015Y4962652D01*
G01X6628365Y4965954D01*
G01X6634461Y4965954D01*
G01X6640557Y4962652D01*
G01X6643605Y4959604D01*
G01X6646907Y4950460D01*
G01X6646907Y4922520D01*
G01X6646907Y4944110D02*
G01X6680943Y4965954D01*
G01X6628365Y4996180D02*
G01X6625063Y5002276D01*
G01X6615919Y5011420D01*
G01X6680943Y5011420D01*
G01X6626945Y5151120D02*
G01X6691969Y5151120D01*
G01X6626945Y5151120D02*
G01X6626945Y5179060D01*
G01X6629993Y5188204D01*
G01X6633041Y5191252D01*
G01X6639391Y5194554D01*
G01X6645487Y5194554D01*
G01X6651583Y5191252D01*
G01X6654631Y5188204D01*
G01X6657933Y5179060D01*
G01X6657933Y5151120D01*
G01X6657933Y5172710D02*
G01X6691969Y5194554D01*
G01X6642439Y5227828D02*
G01X6639391Y5227828D01*
G01X6633041Y5230876D01*
G01X6629993Y5233924D01*
G01X6626945Y5240020D01*
G01X6626945Y5252466D01*
G01X6629993Y5258816D01*
G01X6633041Y5261864D01*
G01X6639391Y5264912D01*
G01X6645487Y5264912D01*
G01X6651583Y5261864D01*
G01X6660981Y5255514D01*
G01X6691969Y5224780D01*
G01X6691969Y5267960D01*
G01X5925820Y5377434D02*
G01X5925820Y5312410D01*
G01X5925820Y5377434D02*
G01X5953760Y5377434D01*
G01X5962904Y5374386D01*
G01X5965952Y5371338D01*
G01X5969254Y5364988D01*
G01X5969254Y5358892D01*
G01X5965952Y5352796D01*
G01X5962904Y5349748D01*
G01X5953760Y5346446D01*
G01X5925820Y5346446D01*
G01X5947410Y5346446D02*
G01X5969254Y5312410D01*
G01X6030214Y5377434D02*
G01X5999480Y5334254D01*
G01X6045708Y5334254D01*
G01X6030214Y5377434D02*
G01X6030214Y5312410D01*
G01X3741420Y5352034D02*
G01X3741420Y5287010D01*
G01X3741420Y5352034D02*
G01X3769360Y5352034D01*
G01X3778504Y5348986D01*
G01X3781552Y5345938D01*
G01X3784854Y5339588D01*
G01X3784854Y5333492D01*
G01X3781552Y5327396D01*
G01X3778504Y5324348D01*
G01X3769360Y5321046D01*
G01X3741420Y5321046D01*
G01X3763010Y5321046D02*
G01X3784854Y5287010D01*
G01X3852164Y5352034D02*
G01X3821176Y5352034D01*
G01X3818128Y5324348D01*
G01X3821176Y5327396D01*
G01X3830320Y5330444D01*
G01X3839718Y5330444D01*
G01X3849116Y5327396D01*
G01X3855212Y5321046D01*
G01X3858260Y5311902D01*
G01X3858260Y5305552D01*
G01X3855212Y5296408D01*
G01X3849116Y5290058D01*
G01X3839718Y5287010D01*
G01X3830320Y5287010D01*
G01X3821176Y5290058D01*
G01X3818128Y5293360D01*
G01X3815080Y5299456D01*
G01X4058920Y5352034D02*
G01X4058920Y5287010D01*
G01X4058920Y5352034D02*
G01X4086860Y5352034D01*
G01X4096004Y5348986D01*
G01X4099052Y5345938D01*
G01X4102354Y5339588D01*
G01X4102354Y5333492D01*
G01X4099052Y5327396D01*
G01X4096004Y5324348D01*
G01X4086860Y5321046D01*
G01X4058920Y5321046D01*
G01X4080510Y5321046D02*
G01X4102354Y5287010D01*
G01X4169664Y5342890D02*
G01X4166616Y5348986D01*
G01X4157218Y5352034D01*
G01X4151122Y5352034D01*
G01X4141724Y5348986D01*
G01X4135628Y5339588D01*
G01X4132580Y5324348D01*
G01X4132580Y5308854D01*
G01X4135628Y5296408D01*
G01X4141724Y5290058D01*
G01X4151122Y5287010D01*
G01X4154170Y5287010D01*
G01X4163314Y5290058D01*
G01X4169664Y5296408D01*
G01X4172712Y5305552D01*
G01X4172712Y5308854D01*
G01X4169664Y5317998D01*
G01X4163314Y5324348D01*
G01X4154170Y5327396D01*
G01X4151122Y5327396D01*
G01X4141724Y5324348D01*
G01X4135628Y5317998D01*
G01X4132580Y5308854D01*
G01X3843020Y4831334D02*
G01X3843020Y4766310D01*
G01X3843020Y4831334D02*
G01X3870960Y4831334D01*
G01X3880104Y4828286D01*
G01X3883152Y4825238D01*
G01X3886454Y4818888D01*
G01X3886454Y4812792D01*
G01X3883152Y4806696D01*
G01X3880104Y4803648D01*
G01X3870960Y4800346D01*
G01X3843020Y4800346D01*
G01X3864610Y4800346D02*
G01X3886454Y4766310D01*
G01X3956812Y4809744D02*
G01X3953764Y4800346D01*
G01X3947414Y4794250D01*
G01X3938270Y4791202D01*
G01X3935222Y4791202D01*
G01X3925824Y4794250D01*
G01X3919728Y4800346D01*
G01X3916680Y4809744D01*
G01X3916680Y4812792D01*
G01X3919728Y4822190D01*
G01X3925824Y4828286D01*
G01X3935222Y4831334D01*
G01X3938270Y4831334D01*
G01X3947414Y4828286D01*
G01X3953764Y4822190D01*
G01X3956812Y4809744D01*
G01X3956812Y4794250D01*
G01X3953764Y4778756D01*
G01X3947414Y4769358D01*
G01X3938270Y4766310D01*
G01X3931920Y4766310D01*
G01X3922776Y4769358D01*
G01X3919728Y4775708D01*
G01X4109720Y4831334D02*
G01X4109720Y4766310D01*
G01X4109720Y4831334D02*
G01X4137660Y4831334D01*
G01X4146804Y4828286D01*
G01X4149852Y4825238D01*
G01X4153154Y4818888D01*
G01X4153154Y4812792D01*
G01X4149852Y4806696D01*
G01X4146804Y4803648D01*
G01X4137660Y4800346D01*
G01X4109720Y4800346D01*
G01X4131310Y4800346D02*
G01X4153154Y4766310D01*
G01X4183380Y4818888D02*
G01X4189476Y4822190D01*
G01X4198620Y4831334D01*
G01X4198620Y4766310D01*
G01X4247388Y4831334D02*
G01X4237990Y4828286D01*
G01X4231894Y4818888D01*
G01X4228846Y4803648D01*
G01X4228846Y4794250D01*
G01X4231894Y4778756D01*
G01X4237990Y4769358D01*
G01X4247388Y4766310D01*
G01X4253484Y4766310D01*
G01X4262882Y4769358D01*
G01X4268978Y4778756D01*
G01X4272026Y4794250D01*
G01X4272026Y4803648D01*
G01X4268978Y4818888D01*
G01X4262882Y4828286D01*
G01X4253484Y4831334D01*
G01X4247388Y4831334D01*
G01X5062220Y4742434D02*
G01X5062220Y4695952D01*
G01X5065268Y4686808D01*
G01X5071618Y4680458D01*
G01X5080762Y4677410D01*
G01X5087112Y4677410D01*
G01X5096256Y4680458D01*
G01X5102352Y4686808D01*
G01X5105654Y4695952D01*
G01X5105654Y4742434D01*
G01X5135880Y4729988D02*
G01X5141976Y4733290D01*
G01X5151120Y4742434D01*
G01X5151120Y4677410D01*
G01X4515866Y5824220D02*
G01X4562348Y5824220D01*
G01X4571492Y5827268D01*
G01X4577842Y5833618D01*
G01X4580890Y5842762D01*
G01X4580890Y5849112D01*
G01X4577842Y5858256D01*
G01X4571492Y5864352D01*
G01X4562348Y5867654D01*
G01X4515866Y5867654D01*
G01X4525010Y5941060D02*
G01X4518914Y5934964D01*
G01X4515866Y5925566D01*
G01X4515866Y5913120D01*
G01X4518914Y5903976D01*
G01X4525010Y5897880D01*
G01X4531360Y5897880D01*
G01X4537456Y5900928D01*
G01X4540504Y5903976D01*
G01X4543552Y5910072D01*
G01X4549902Y5928614D01*
G01X4552950Y5934964D01*
G01X4555998Y5938012D01*
G01X4562348Y5941060D01*
G01X4571492Y5941060D01*
G01X4577842Y5934964D01*
G01X4580890Y5925566D01*
G01X4580890Y5913120D01*
G01X4577842Y5903976D01*
G01X4571492Y5897880D01*
G01X4515866Y5971286D02*
G01X4580890Y5971286D01*
G01X4515866Y5971286D02*
G01X4515866Y5998972D01*
G01X4518914Y6008370D01*
G01X4521962Y6011418D01*
G01X4528312Y6014466D01*
G01X4534408Y6014466D01*
G01X4540504Y6011418D01*
G01X4543552Y6008370D01*
G01X4546854Y5998972D01*
G01X4546854Y5971286D02*
G01X4546854Y5998972D01*
G01X4549902Y6008370D01*
G01X4552950Y6011418D01*
G01X4559046Y6014466D01*
G01X4568444Y6014466D01*
G01X4574540Y6011418D01*
G01X4577842Y6008370D01*
G01X4580890Y5998972D01*
G01X4580890Y5971286D01*
G01X4528312Y6044692D02*
G01X4525010Y6050788D01*
G01X4515866Y6059932D01*
G01X4580890Y6059932D01*
G01X6507734Y6012180D02*
G01X6461252Y6012180D01*
G01X6452108Y6009132D01*
G01X6445758Y6002782D01*
G01X6442710Y5993638D01*
G01X6442710Y5987288D01*
G01X6445758Y5978144D01*
G01X6452108Y5972048D01*
G01X6461252Y5968746D01*
G01X6507734Y5968746D01*
G01X6498590Y5895340D02*
G01X6504686Y5901436D01*
G01X6507734Y5910834D01*
G01X6507734Y5923280D01*
G01X6504686Y5932424D01*
G01X6498590Y5938520D01*
G01X6492240Y5938520D01*
G01X6486144Y5935472D01*
G01X6483096Y5932424D01*
G01X6480048Y5926328D01*
G01X6473698Y5907786D01*
G01X6470650Y5901436D01*
G01X6467602Y5898388D01*
G01X6461252Y5895340D01*
G01X6452108Y5895340D01*
G01X6445758Y5901436D01*
G01X6442710Y5910834D01*
G01X6442710Y5923280D01*
G01X6445758Y5932424D01*
G01X6452108Y5938520D01*
G01X6507734Y5865114D02*
G01X6442710Y5865114D01*
G01X6507734Y5865114D02*
G01X6507734Y5837428D01*
G01X6504686Y5828030D01*
G01X6501638Y5824982D01*
G01X6495288Y5821934D01*
G01X6489192Y5821934D01*
G01X6483096Y5824982D01*
G01X6480048Y5828030D01*
G01X6476746Y5837428D01*
G01X6476746Y5865114D02*
G01X6476746Y5837428D01*
G01X6473698Y5828030D01*
G01X6470650Y5824982D01*
G01X6464554Y5821934D01*
G01X6455156Y5821934D01*
G01X6449060Y5824982D01*
G01X6445758Y5828030D01*
G01X6442710Y5837428D01*
G01X6442710Y5865114D01*
G01X6492240Y5788660D02*
G01X6495288Y5788660D01*
G01X6501638Y5785612D01*
G01X6504686Y5782564D01*
G01X6507734Y5776468D01*
G01X6507734Y5764022D01*
G01X6504686Y5757672D01*
G01X6501638Y5754624D01*
G01X6495288Y5751576D01*
G01X6489192Y5751576D01*
G01X6483096Y5754624D01*
G01X6473698Y5760974D01*
G01X6442710Y5791708D01*
G01X6442710Y5748528D01*
G01X3398266Y4109720D02*
G01X3444748Y4109720D01*
G01X3453892Y4112768D01*
G01X3460242Y4119118D01*
G01X3463290Y4128262D01*
G01X3463290Y4134612D01*
G01X3460242Y4143756D01*
G01X3453892Y4149852D01*
G01X3444748Y4153154D01*
G01X3398266Y4153154D01*
G01X3407410Y4226560D02*
G01X3401314Y4220464D01*
G01X3398266Y4211066D01*
G01X3398266Y4198620D01*
G01X3401314Y4189476D01*
G01X3407410Y4183380D01*
G01X3413760Y4183380D01*
G01X3419856Y4186428D01*
G01X3422904Y4189476D01*
G01X3425952Y4195572D01*
G01X3432302Y4214114D01*
G01X3435350Y4220464D01*
G01X3438398Y4223512D01*
G01X3444748Y4226560D01*
G01X3453892Y4226560D01*
G01X3460242Y4220464D01*
G01X3463290Y4211066D01*
G01X3463290Y4198620D01*
G01X3460242Y4189476D01*
G01X3453892Y4183380D01*
G01X3398266Y4256786D02*
G01X3463290Y4256786D01*
G01X3398266Y4256786D02*
G01X3398266Y4284472D01*
G01X3401314Y4293870D01*
G01X3404362Y4296918D01*
G01X3410712Y4299966D01*
G01X3416808Y4299966D01*
G01X3422904Y4296918D01*
G01X3425952Y4293870D01*
G01X3429254Y4284472D01*
G01X3429254Y4256786D02*
G01X3429254Y4284472D01*
G01X3432302Y4293870D01*
G01X3435350Y4296918D01*
G01X3441446Y4299966D01*
G01X3450844Y4299966D01*
G01X3456940Y4296918D01*
G01X3460242Y4293870D01*
G01X3463290Y4284472D01*
G01X3463290Y4256786D01*
G01X3398266Y4336288D02*
G01X3398266Y4370324D01*
G01X3422904Y4351782D01*
G01X3422904Y4360926D01*
G01X3425952Y4367276D01*
G01X3429254Y4370324D01*
G01X3438398Y4373372D01*
G01X3444748Y4373372D01*
G01X3453892Y4370324D01*
G01X3460242Y4364228D01*
G01X3463290Y4354830D01*
G01X3463290Y4345432D01*
G01X3460242Y4336288D01*
G01X3456940Y4333240D01*
G01X3450844Y4330192D01*
G01X6979008Y4620268D02*
G01X7025490Y4620268D01*
G01X7034634Y4623316D01*
G01X7040984Y4629666D01*
G01X7044032Y4638810D01*
G01X7044032Y4645160D01*
G01X7040984Y4654304D01*
G01X7034634Y4660400D01*
G01X7025490Y4663702D01*
G01X6979008Y4663702D01*
G01X6988152Y4737108D02*
G01X6982056Y4731012D01*
G01X6979008Y4721614D01*
G01X6979008Y4709168D01*
G01X6982056Y4700024D01*
G01X6988152Y4693928D01*
G01X6994502Y4693928D01*
G01X7000598Y4696976D01*
G01X7003646Y4700024D01*
G01X7006694Y4706120D01*
G01X7013044Y4724662D01*
G01X7016092Y4731012D01*
G01X7019140Y4734060D01*
G01X7025490Y4737108D01*
G01X7034634Y4737108D01*
G01X7040984Y4731012D01*
G01X7044032Y4721614D01*
G01X7044032Y4709168D01*
G01X7040984Y4700024D01*
G01X7034634Y4693928D01*
G01X6979008Y4767334D02*
G01X7044032Y4767334D01*
G01X6979008Y4767334D02*
G01X6979008Y4795020D01*
G01X6982056Y4804418D01*
G01X6985104Y4807466D01*
G01X6991454Y4810514D01*
G01X6997550Y4810514D01*
G01X7003646Y4807466D01*
G01X7006694Y4804418D01*
G01X7009996Y4795020D01*
G01X7009996Y4767334D02*
G01X7009996Y4795020D01*
G01X7013044Y4804418D01*
G01X7016092Y4807466D01*
G01X7022188Y4810514D01*
G01X7031586Y4810514D01*
G01X7037682Y4807466D01*
G01X7040984Y4804418D01*
G01X7044032Y4795020D01*
G01X7044032Y4767334D01*
G01X6979008Y4871474D02*
G01X7022188Y4840740D01*
G01X7022188Y4886968D01*
G01X6979008Y4871474D02*
G01X7044032Y4871474D01*
G01X5341366Y4109720D02*
G01X5387848Y4109720D01*
G01X5396992Y4112768D01*
G01X5403342Y4119118D01*
G01X5406390Y4128262D01*
G01X5406390Y4134612D01*
G01X5403342Y4143756D01*
G01X5396992Y4149852D01*
G01X5387848Y4153154D01*
G01X5341366Y4153154D01*
G01X5350510Y4226560D02*
G01X5344414Y4220464D01*
G01X5341366Y4211066D01*
G01X5341366Y4198620D01*
G01X5344414Y4189476D01*
G01X5350510Y4183380D01*
G01X5356860Y4183380D01*
G01X5362956Y4186428D01*
G01X5366004Y4189476D01*
G01X5369052Y4195572D01*
G01X5375402Y4214114D01*
G01X5378450Y4220464D01*
G01X5381498Y4223512D01*
G01X5387848Y4226560D01*
G01X5396992Y4226560D01*
G01X5403342Y4220464D01*
G01X5406390Y4211066D01*
G01X5406390Y4198620D01*
G01X5403342Y4189476D01*
G01X5396992Y4183380D01*
G01X5341366Y4256786D02*
G01X5406390Y4256786D01*
G01X5341366Y4256786D02*
G01X5341366Y4284472D01*
G01X5344414Y4293870D01*
G01X5347462Y4296918D01*
G01X5353812Y4299966D01*
G01X5359908Y4299966D01*
G01X5366004Y4296918D01*
G01X5369052Y4293870D01*
G01X5372354Y4284472D01*
G01X5372354Y4256786D02*
G01X5372354Y4284472D01*
G01X5375402Y4293870D01*
G01X5378450Y4296918D01*
G01X5384546Y4299966D01*
G01X5393944Y4299966D01*
G01X5400040Y4296918D01*
G01X5403342Y4293870D01*
G01X5406390Y4284472D01*
G01X5406390Y4256786D01*
G01X5341366Y4367276D02*
G01X5341366Y4336288D01*
G01X5369052Y4333240D01*
G01X5366004Y4336288D01*
G01X5362956Y4345432D01*
G01X5362956Y4354830D01*
G01X5366004Y4364228D01*
G01X5372354Y4370324D01*
G01X5381498Y4373372D01*
G01X5387848Y4373372D01*
G01X5396992Y4370324D01*
G01X5403342Y4364228D01*
G01X5406390Y4354830D01*
G01X5406390Y4345432D01*
G01X5403342Y4336288D01*
G01X5400040Y4333240D01*
G01X5393944Y4330192D01*
G01X6052820Y4856734D02*
G01X6052820Y4791710D01*
G01X6052820Y4856734D02*
G01X6080760Y4856734D01*
G01X6089904Y4853686D01*
G01X6092952Y4850638D01*
G01X6096254Y4844288D01*
G01X6096254Y4838192D01*
G01X6092952Y4832096D01*
G01X6089904Y4829048D01*
G01X6080760Y4825746D01*
G01X6052820Y4825746D01*
G01X6074410Y4825746D02*
G01X6096254Y4791710D01*
G01X6141720Y4856734D02*
G01X6132576Y4853686D01*
G01X6129528Y4847590D01*
G01X6129528Y4841240D01*
G01X6132576Y4835144D01*
G01X6138672Y4832096D01*
G01X6151118Y4829048D01*
G01X6160516Y4825746D01*
G01X6166612Y4819650D01*
G01X6169660Y4813554D01*
G01X6169660Y4804156D01*
G01X6166612Y4798060D01*
G01X6163564Y4794758D01*
G01X6154166Y4791710D01*
G01X6141720Y4791710D01*
G01X6132576Y4794758D01*
G01X6129528Y4798060D01*
G01X6126480Y4804156D01*
G01X6126480Y4813554D01*
G01X6129528Y4819650D01*
G01X6135624Y4825746D01*
G01X6145022Y4829048D01*
G01X6157214Y4832096D01*
G01X6163564Y4835144D01*
G01X6166612Y4841240D01*
G01X6166612Y4847590D01*
G01X6163564Y4853686D01*
G01X6154166Y4856734D01*
G01X6141720Y4856734D01*
G01X5773420Y4844034D02*
G01X5773420Y4779010D01*
G01X5773420Y4844034D02*
G01X5801360Y4844034D01*
G01X5810504Y4840986D01*
G01X5813552Y4837938D01*
G01X5816854Y4831588D01*
G01X5816854Y4825492D01*
G01X5813552Y4819396D01*
G01X5810504Y4816348D01*
G01X5801360Y4813046D01*
G01X5773420Y4813046D01*
G01X5795010Y4813046D02*
G01X5816854Y4779010D01*
G01X5890260Y4844034D02*
G01X5859272Y4779010D01*
G01X5847080Y4844034D02*
G01X5890260Y4844034D01*
G01X5646420Y5377434D02*
G01X5646420Y5312410D01*
G01X5646420Y5377434D02*
G01X5674360Y5377434D01*
G01X5683504Y5374386D01*
G01X5686552Y5371338D01*
G01X5689854Y5364988D01*
G01X5689854Y5358892D01*
G01X5686552Y5352796D01*
G01X5683504Y5349748D01*
G01X5674360Y5346446D01*
G01X5646420Y5346446D01*
G01X5668010Y5346446D02*
G01X5689854Y5312410D01*
G01X5726176Y5377434D02*
G01X5760212Y5377434D01*
G01X5741670Y5352796D01*
G01X5750814Y5352796D01*
G01X5757164Y5349748D01*
G01X5760212Y5346446D01*
G01X5763260Y5337302D01*
G01X5763260Y5330952D01*
G01X5760212Y5321808D01*
G01X5754116Y5315458D01*
G01X5744718Y5312410D01*
G01X5735320Y5312410D01*
G01X5726176Y5315458D01*
G01X5723128Y5318760D01*
G01X5720080Y5324856D01*
G04 Text End*

G04 PolygonModel Start*
G54D11*
G01X6898719Y5430357D02*
G01X6978716Y5430357D01*
G01X6842674Y5430403D02*
G01X6762676Y5430403D01*
G01X6898719Y5288389D02*
G01X6978716Y5288389D01*
G01X6842674Y5288437D02*
G01X6762676Y5288437D01*
G01X7009691Y5399375D02*
G01X7009691Y5319370D01*
G01X6731699Y5319423D02*
G01X6731699Y5399425D01*
G01X6762681Y5288437D02*
G02X6731699Y5319423I0J30983D01*
G01X6731699Y5399420D02*
G02X6762681Y5430403I30983J0D01*
G01X6978711Y5430357D02*
G02X7009691Y5399375I-3J-30983D01*
G01X7009691Y5319377D02*
G02X6978711Y5288389I-30983J-5D01*
G01X5747857Y4569381D02*
G01X5747857Y4489384D01*
G01X5747903Y4625426D02*
G01X5747903Y4705424D01*
G01X5605889Y4569381D02*
G01X5605889Y4489384D01*
G01X5605937Y4625426D02*
G01X5605937Y4705424D01*
G01X5716875Y4458409D02*
G01X5636870Y4458409D01*
G01X5636923Y4736402D02*
G01X5716925Y4736402D01*
G01X5605937Y4705419D02*
G02X5636923Y4736402I30983J0D01*
G01X5716920Y4736402D02*
G02X5747903Y4705419I0J-30983D01*
G01X5747857Y4489389D02*
G02X5716875Y4458409I-30983J3D01*
G01X5636877Y4458409D02*
G02X5605889Y4489389I-5J30983D01*
G01X3818578Y4560984D02*
G01X3818578Y4480987D01*
G01X3818623Y4617029D02*
G01X3818623Y4697026D01*
G01X3676609Y4560984D02*
G01X3676609Y4480987D01*
G01X3676658Y4617029D02*
G01X3676658Y4697026D01*
G01X3787595Y4450011D02*
G01X3707590Y4450011D01*
G01X3707643Y4728004D02*
G01X3787645Y4728004D01*
G01X3676658Y4697021D02*
G02X3707643Y4728004I30983J0D01*
G01X3787640Y4728004D02*
G02X3818623Y4697021I0J-30983D01*
G01X3818578Y4480992D02*
G02X3787595Y4450011I-30983J3D01*
G01X3707597Y4450011D02*
G02X3676609Y4480992I-5J30983D01*
G01X6075843Y5565219D02*
G01X6075843Y5645216D01*
G01X6075797Y5509174D02*
G01X6075797Y5429176D01*
G01X6217811Y5565219D02*
G01X6217811Y5645216D01*
G01X6217763Y5509174D02*
G01X6217763Y5429176D01*
G01X6106825Y5676191D02*
G01X6186830Y5676191D01*
G01X6186777Y5398199D02*
G01X6106775Y5398199D01*
G01X6217763Y5429181D02*
G02X6186777Y5398199I-30983J0D01*
G01X6106780Y5398199D02*
G02X6075797Y5429181I0J30983D01*
G01X6075843Y5645211D02*
G02X6106825Y5676191I30983J-3D01*
G01X6186823Y5676191D02*
G02X6217811Y5645211I5J-30983D01*
G01X3573943Y5552519D02*
G01X3573943Y5632516D01*
G01X3573897Y5496474D02*
G01X3573897Y5416476D01*
G01X3715911Y5552519D02*
G01X3715911Y5632516D01*
G01X3715863Y5496474D02*
G01X3715863Y5416476D01*
G01X3604925Y5663491D02*
G01X3684930Y5663491D01*
G01X3684877Y5385499D02*
G01X3604875Y5385499D01*
G01X3715863Y5416481D02*
G02X3684877Y5385499I-30983J0D01*
G01X3604880Y5385499D02*
G02X3573897Y5416481I0J30983D01*
G01X3573943Y5632511D02*
G02X3604925Y5663491I30983J-3D01*
G01X3684923Y5663491D02*
G02X3715911Y5632511I5J-30983D01*
G01X5636273Y4968596D02*
G01X5556275Y4968596D01*
G01X5692318Y4968550D02*
G01X5772315Y4968550D01*
G01X5636273Y5110564D02*
G01X5556275Y5110564D01*
G01X5692318Y5110516D02*
G01X5772315Y5110516D01*
G01X5525300Y4999579D02*
G01X5525300Y5079583D01*
G01X5803293Y5079530D02*
G01X5803293Y4999528D01*
G01X5772310Y5110516D02*
G02X5803293Y5079530I0J-30983D01*
G01X5803293Y4999533D02*
G02X5772310Y4968550I-30983J0D01*
G01X5556280Y4968596D02*
G02X5525300Y4999579I3J30983D01*
G01X5525300Y5079576D02*
G02X5556280Y5110564I30983J5D01*
G01X5636181Y5136043D02*
G01X5556184Y5136043D01*
G01X5692226Y5135997D02*
G01X5772224Y5135997D01*
G01X5636181Y5278011D02*
G01X5556184Y5278011D01*
G01X5692226Y5277963D02*
G01X5772224Y5277963D01*
G01X5525209Y5167025D02*
G01X5525209Y5247030D01*
G01X5803202Y5246977D02*
G01X5803202Y5166975D01*
G01X5772219Y5277963D02*
G02X5803202Y5246977I0J-30983D01*
G01X5803202Y5166980D02*
G02X5772219Y5135997I-30983J0D01*
G01X5556189Y5136043D02*
G02X5525209Y5167025I3J30983D01*
G01X5525209Y5247023D02*
G02X5556189Y5278011I30983J5D01*
G01X4625419Y5303357D02*
G01X4705416Y5303357D01*
G01X4569374Y5303403D02*
G01X4489376Y5303403D01*
G01X4625419Y5161389D02*
G01X4705416Y5161389D01*
G01X4569374Y5161437D02*
G01X4489376Y5161437D01*
G01X4736391Y5272375D02*
G01X4736391Y5192370D01*
G01X4458399Y5192423D02*
G01X4458399Y5272425D01*
G01X4489381Y5161437D02*
G02X4458399Y5192423I0J30983D01*
G01X4458399Y5272420D02*
G02X4489381Y5303403I30983J0D01*
G01X4705411Y5303357D02*
G02X4736391Y5272375I-3J-30983D01*
G01X4736391Y5192377D02*
G02X4705411Y5161389I-30983J-5D01*
G01X4625419Y5455757D02*
G01X4705416Y5455757D01*
G01X4569374Y5455803D02*
G01X4489376Y5455803D01*
G01X4625419Y5313789D02*
G01X4705416Y5313789D01*
G01X4569374Y5313837D02*
G01X4489376Y5313837D01*
G01X4736391Y5424775D02*
G01X4736391Y5344770D01*
G01X4458399Y5344823D02*
G01X4458399Y5424825D01*
G01X4489381Y5313837D02*
G02X4458399Y5344823I0J30983D01*
G01X4458399Y5424820D02*
G02X4489381Y5455803I30983J0D01*
G01X4705411Y5455757D02*
G02X4736391Y5424775I-3J-30983D01*
G01X4736391Y5344777D02*
G02X4705411Y5313789I-30983J-5D01*
G01X4627917Y5134092D02*
G01X4707914Y5134092D01*
G01X4571872Y5134138D02*
G01X4491874Y5134138D01*
G01X4627917Y4992124D02*
G01X4707914Y4992124D01*
G01X4571872Y4992172D02*
G01X4491874Y4992172D01*
G01X4738889Y5103109D02*
G01X4738889Y5023104D01*
G01X4460897Y5023157D02*
G01X4460897Y5103160D01*
G01X4491880Y4992172D02*
G02X4460897Y5023157I0J30983D01*
G01X4460897Y5103155D02*
G02X4491880Y5134138I30983J0D01*
G01X4707909Y5134092D02*
G02X4738889Y5103109I-3J-30983D01*
G01X4738889Y5023112D02*
G02X4707909Y4992124I-30983J-5D01*
G01X4627917Y4985857D02*
G01X4707914Y4985857D01*
G01X4571872Y4985903D02*
G01X4491874Y4985903D01*
G01X4627917Y4843889D02*
G01X4707914Y4843889D01*
G01X4571872Y4843937D02*
G01X4491874Y4843937D01*
G01X4738889Y4954875D02*
G01X4738889Y4874870D01*
G01X4460897Y4874923D02*
G01X4460897Y4954925D01*
G01X4491880Y4843937D02*
G02X4460897Y4874923I0J30983D01*
G01X4460897Y4954920D02*
G02X4491880Y4985903I30983J0D01*
G01X4707909Y4985857D02*
G02X4738889Y4954875I-3J-30983D01*
G01X4738889Y4874877D02*
G02X4707909Y4843889I-30983J-5D01*
G54D10*
G01X6890800Y4903915D02*
G01X6986688Y4903915D01*
G01X6986688Y4903915D02*
G01X6986688Y5036035D01*
G01X6986688Y5036035D02*
G01X6890800Y5036035D01*
G01X6805558Y4903915D02*
G01X6709670Y4903915D01*
G01X6709670Y4903915D02*
G01X6709670Y5036035D01*
G01X6709670Y5036035D02*
G01X6805558Y5036035D01*
G01X6903500Y5140940D02*
G01X6999388Y5140940D01*
G01X6999388Y5140940D02*
G01X6999388Y5273060D01*
G01X6999388Y5273060D02*
G01X6903500Y5273060D01*
G01X6818258Y5140940D02*
G01X6722370Y5140940D01*
G01X6722370Y5140940D02*
G01X6722370Y5273060D01*
G01X6722370Y5273060D02*
G01X6818258Y5273060D01*
G01X5636240Y5507279D02*
G01X5636240Y5411391D01*
G01X5636240Y5411391D02*
G01X5768360Y5411391D01*
G01X5768360Y5411391D02*
G01X5768360Y5507279D01*
G01X5636240Y5592521D02*
G01X5636240Y5688409D01*
G01X5636240Y5688409D02*
G01X5768360Y5688409D01*
G01X5768360Y5688409D02*
G01X5768360Y5592521D01*
G01X5923821Y5505963D02*
G01X5923821Y5410076D01*
G01X5923821Y5410076D02*
G01X6055942Y5410076D01*
G01X6055942Y5410076D02*
G01X6055942Y5505963D01*
G01X5923821Y5591205D02*
G01X5923821Y5687093D01*
G01X5923821Y5687093D02*
G01X6055942Y5687093D01*
G01X6055942Y5687093D02*
G01X6055942Y5591205D01*
G01X3731240Y5481879D02*
G01X3731240Y5385991D01*
G01X3731240Y5385991D02*
G01X3863360Y5385991D01*
G01X3863360Y5385991D02*
G01X3863360Y5481879D01*
G01X3731240Y5567121D02*
G01X3731240Y5663009D01*
G01X3731240Y5663009D02*
G01X3863360Y5663009D01*
G01X3863360Y5663009D02*
G01X3863360Y5567121D01*
G01X4045397Y5478836D02*
G01X4045397Y5382948D01*
G01X4045397Y5382948D02*
G01X4177518Y5382948D01*
G01X4177518Y5382948D02*
G01X4177518Y5478836D01*
G01X4045397Y5564078D02*
G01X4045397Y5659966D01*
G01X4045397Y5659966D02*
G01X4177518Y5659966D01*
G01X4177518Y5659966D02*
G01X4177518Y5564078D01*
G01X5895360Y4640021D02*
G01X5895360Y4735909D01*
G01X5895360Y4735909D02*
G01X5763240Y4735909D01*
G01X5763240Y4735909D02*
G01X5763240Y4640021D01*
G01X5895360Y4554779D02*
G01X5895360Y4458891D01*
G01X5895360Y4458891D02*
G01X5763240Y4458891D01*
G01X5763240Y4458891D02*
G01X5763240Y4554779D01*
G01X6168225Y4656209D02*
G01X6168225Y4752096D01*
G01X6168225Y4752096D02*
G01X6036104Y4752096D01*
G01X6036104Y4752096D02*
G01X6036104Y4656209D01*
G01X6168225Y4570966D02*
G01X6168225Y4475079D01*
G01X6168225Y4475079D02*
G01X6036104Y4475079D01*
G01X6036104Y4475079D02*
G01X6036104Y4570966D01*
G01X3964960Y4627321D02*
G01X3964960Y4723209D01*
G01X3964960Y4723209D02*
G01X3832840Y4723209D01*
G01X3832840Y4723209D02*
G01X3832840Y4627321D01*
G01X3964960Y4542079D02*
G01X3964960Y4446191D01*
G01X3964960Y4446191D02*
G01X3832840Y4446191D01*
G01X3832840Y4446191D02*
G01X3832840Y4542079D01*
G01X4259880Y4632536D02*
G01X4259880Y4728423D01*
G01X4259880Y4728423D02*
G01X4127759Y4728423D01*
G01X4127759Y4728423D02*
G01X4127759Y4632536D01*
G01X4259880Y4547293D02*
G01X4259880Y4451406D01*
G01X4259880Y4451406D02*
G01X4127759Y4451406D01*
G01X4127759Y4451406D02*
G01X4127759Y4547293D01*
G54D11*
G01X5235400Y4791499D02*
G01X5155400Y4791499D01*
G01X4975400Y4791499D02*
G01X5055400Y4791499D01*
G01X5235400Y5241501D02*
G01X5235400Y5237612D01*
G01X5235400Y4791499D02*
G01X5235400Y4795385D01*
G01X4975400Y5237612D02*
G01X4975400Y5241501D01*
G01X4975400Y4791499D02*
G01X4975400Y4795388D01*
G01X4975400Y5241501D02*
G01X5235400Y5241501D01*
G01X5155400Y4791499D02*
G03X5055362Y4791456I-50019J-377D01*
G01X3517892Y6159495D02*
G01X3517892Y5960100D01*
G01X3517892Y6502397D02*
G01X3517892Y6355100D01*
G01X4425091Y6159183D02*
G01X4425091Y5960410D01*
G01X4425091Y6517297D02*
G01X4425091Y6355413D01*
G01X3525093Y6517297D02*
G01X4425091Y6517297D01*
G01X5422892Y6159495D02*
G01X5422892Y5960100D01*
G01X5422892Y6502397D02*
G01X5422892Y6355100D01*
G01X6330091Y6159183D02*
G01X6330091Y5960410D01*
G01X6330091Y6517297D02*
G01X6330091Y6355413D01*
G01X5430093Y6517297D02*
G01X6330091Y6517297D01*
G01X4483108Y3987805D02*
G01X4483108Y4187200D01*
G01X4483108Y3644903D02*
G01X4483108Y3792200D01*
G01X3575909Y3988118D02*
G01X3575909Y4186890D01*
G01X3575909Y3630003D02*
G01X3575909Y3791887D01*
G01X4475907Y3630003D02*
G01X3575909Y3630003D01*
G01X7518395Y5562608D02*
G01X7319000Y5562608D01*
G01X7861297Y5562608D02*
G01X7714000Y5562608D01*
G01X7518083Y4655409D02*
G01X7319310Y4655409D01*
G01X7876197Y4655409D02*
G01X7714313Y4655409D01*
G01X7876197Y5555407D02*
G01X7876197Y4655409D01*
G01X6388108Y4000505D02*
G01X6388108Y4199900D01*
G01X6388108Y3657603D02*
G01X6388108Y3804900D01*
G01X5480909Y4000818D02*
G01X5480909Y4199590D01*
G01X5480909Y3642703D02*
G01X5480909Y3804587D01*
G01X6380907Y3642703D02*
G01X5480909Y3642703D01*

G04 Circle Start*
G01X5278882Y4784496D02*
G03X5303926Y4784496I12522J0D01*
G03X5278882Y4784496I-12522J0D01*
G04 Circle End*

M02*

