G04 Layer: BottomLayer*
G04 EasyEDA Pro v2.2.47.7, 2026-05-31 17:46:15*
G04 Gerber Generator version 0.3*
G04 Scale: 100 percent, Rotated: No, Reflected: No*
G04 Dimensions in millimeters*
G04 Leading zeros omitted, absolute positions, 4 integers and 5 decimals*
G04 Generated by one-click*
G04 Object Configs: Pad,Via,Track,Text,Image,Dimension,BoardOutline,BoardCutout,CopperFilled,SolidRegion,FPCStiffener,Line,PlaneZone,ComponentProperty,ComponentSilkscreen,TearDrop*
G04 Layer Configs: 1,2,3,4,5,6,7,8,9,10,11,13,14,56*
G04 Copper Areas: 75*
%FSLAX45Y45*%
%MOMM*%
%ADD10C,0.2032*%
%ADD11C,0.254*%
%ADD12O,1.1X2.0*%
%ADD13O,1.2X1.8*%
%ADD14O,2.0X1.1*%
%ADD15O,1.8X1.2*%
%ADD16C,0.6147*%
%ADD17C,0.61*%
G75*


G04 Copper Start*
G36*
G01X4402313Y3782314D02*
G01X3649487Y3782314D01*
G01X3663089Y3794241D01*
G01X3674207Y3808512D01*
G01X3682445Y3824619D01*
G01X3687507Y3841987D01*
G01X3689215Y3859997D01*
G01X3689215Y3919997D01*
G01X3687374Y3938690D01*
G01X3681922Y3956664D01*
G01X3673068Y3973229D01*
G01X3661152Y3987748D01*
G01X3646633Y3999664D01*
G01X3630068Y4008518D01*
G01X3612094Y4013970D01*
G01X3593402Y4015811D01*
G01X3574709Y4013970D01*
G01X3556735Y4008518D01*
G01X3540170Y3999664D01*
G01X3525651Y3987748D01*
G01X3513735Y3973229D01*
G01X3504881Y3956664D01*
G01X3499429Y3938690D01*
G01X3497588Y3919997D01*
G01X3497588Y3859997D01*
G01X3499296Y3841987D01*
G01X3504358Y3824619D01*
G01X3512596Y3808512D01*
G01X3523714Y3794241D01*
G01X3537316Y3782314D01*
G01X3098800Y3782314D01*
G01X3090245Y3783669D01*
G01X3082527Y3787602D01*
G01X3076402Y3793727D01*
G01X3072469Y3801445D01*
G01X3071114Y3810000D01*
G01X3071114Y3992196D01*
G01X3095189Y3992196D01*
G01X3097177Y3968196D01*
G01X3103089Y3944850D01*
G01X3112763Y3922796D01*
G01X3125935Y3902635D01*
G01X3142246Y3884917D01*
G01X3161250Y3870125D01*
G01X3182430Y3858663D01*
G01X3205207Y3850844D01*
G01X3228961Y3846880D01*
G01X3253044Y3846880D01*
G01X3276798Y3850844D01*
G01X3299575Y3858663D01*
G01X3320755Y3870125D01*
G01X3339760Y3884917D01*
G01X3356070Y3902635D01*
G01X3369242Y3922796D01*
G01X3378916Y3944850D01*
G01X3384828Y3968196D01*
G01X3386817Y3992196D01*
G01X3384828Y4016196D01*
G01X3378916Y4039541D01*
G01X3369242Y4061596D01*
G01X3356070Y4081757D01*
G01X3339760Y4099475D01*
G01X3320755Y4114266D01*
G01X3299575Y4125728D01*
G01X3276798Y4133548D01*
G01X3253044Y4137512D01*
G01X3228961Y4137512D01*
G01X3205207Y4133548D01*
G01X3182430Y4125728D01*
G01X3161250Y4114266D01*
G01X3142246Y4099475D01*
G01X3125935Y4081757D01*
G01X3112763Y4061596D01*
G01X3103089Y4039541D01*
G01X3097177Y4016196D01*
G01X3095189Y3992196D01*
G01X3095189Y3992196D01*
G01X3071114Y3992196D01*
G01X3071114Y4355012D01*
G01X3502588Y4355012D01*
G01X3502588Y4265012D01*
G01X3504507Y4246441D01*
G01X3510183Y4228655D01*
G01X3519376Y4212406D01*
G01X3531698Y4198380D01*
G01X3546627Y4187170D01*
G01X3563534Y4179250D01*
G01X3581702Y4174955D01*
G01X3600366Y4174465D01*
G01X3618734Y4177803D01*
G01X3636033Y4184826D01*
G01X3651529Y4195238D01*
G01X3664569Y4208599D01*
G01X3674601Y4224345D01*
G01X3683905Y4211034D01*
G01X3695997Y4200193D01*
G01X3710241Y4192391D01*
G01X3725888Y4188041D01*
G01X3742115Y4187369D01*
G01X3758068Y4190411D01*
G01X3772908Y4197008D01*
G01X3785855Y4206813D01*
G01X3796227Y4219309D01*
G01X3803481Y4233840D01*
G01X3807233Y4249641D01*
G01X3807286Y4265873D01*
G01X4244539Y4265873D01*
G01X4244594Y4249636D01*
G01X4244594Y4249636D01*
G01X4248346Y4233838D01*
G01X4255597Y4219310D01*
G01X4265968Y4206815D01*
G01X4278912Y4197012D01*
G01X4293748Y4190414D01*
G01X4309698Y4187370D01*
G01X4325922Y4188038D01*
G01X4341567Y4192384D01*
G01X4355810Y4200180D01*
G01X4367904Y4211015D01*
G01X4377211Y4224320D01*
G01X4387247Y4208580D01*
G01X4400289Y4195224D01*
G01X4415786Y4184816D01*
G01X4433084Y4177798D01*
G01X4451451Y4174464D01*
G01X4470112Y4174957D01*
G01X4488278Y4179254D01*
G01X4505182Y4187175D01*
G01X4520108Y4198386D01*
G01X4532428Y4212411D01*
G01X4541619Y4228659D01*
G01X4547294Y4246443D01*
G01X4549212Y4265012D01*
G01X4549212Y4355012D01*
G01X4547228Y4373893D01*
G01X4546674Y4375599D01*
G01X5026649Y4375599D01*
G01X5029778Y4360564D01*
G01X5036280Y4346652D01*
G01X5045809Y4334609D01*
G01X5045809Y4334609D01*
G01X5057852Y4325080D01*
G01X5071764Y4318578D01*
G01X5086799Y4315449D01*
G01X5102150Y4315863D01*
G01X5116994Y4319796D01*
G01X5130536Y4327039D01*
G01X5142048Y4337202D01*
G01X5150914Y4349741D01*
G01X5156659Y4363982D01*
G01X5157227Y4367712D01*
G01X5407588Y4367712D01*
G01X5407588Y4277712D01*
G01X5409507Y4259141D01*
G01X5415183Y4241355D01*
G01X5424376Y4225106D01*
G01X5436698Y4211080D01*
G01X5451627Y4199870D01*
G01X5468534Y4191950D01*
G01X5486702Y4187655D01*
G01X5505366Y4187165D01*
G01X5523734Y4190503D01*
G01X5541033Y4197526D01*
G01X5556529Y4207938D01*
G01X5569569Y4221299D01*
G01X5579601Y4237045D01*
G01X5588905Y4223734D01*
G01X5600997Y4212893D01*
G01X5615241Y4205091D01*
G01X5630888Y4200741D01*
G01X5647115Y4200069D01*
G01X5663068Y4203111D01*
G01X5677908Y4209708D01*
G01X5690855Y4219513D01*
G01X5701227Y4232009D01*
G01X5708481Y4246540D01*
G01X5712233Y4262341D01*
G01X5712286Y4278573D01*
G01X6149539Y4278573D01*
G01X6149594Y4262336D01*
G01X6149594Y4262336D01*
G01X6153346Y4246538D01*
G01X6160597Y4232010D01*
G01X6170968Y4219515D01*
G01X6183912Y4209712D01*
G01X6198748Y4203114D01*
G01X6214698Y4200070D01*
G01X6230922Y4200738D01*
G01X6246567Y4205084D01*
G01X6260810Y4212880D01*
G01X6272904Y4223715D01*
G01X6282211Y4237020D01*
G01X6292247Y4221280D01*
G01X6305289Y4207924D01*
G01X6320786Y4197516D01*
G01X6338084Y4190498D01*
G01X6356451Y4187164D01*
G01X6375112Y4187657D01*
G01X6393278Y4191954D01*
G01X6410182Y4199875D01*
G01X6425108Y4211086D01*
G01X6437428Y4225111D01*
G01X6446619Y4241359D01*
G01X6452294Y4259143D01*
G01X6454212Y4277712D01*
G01X6454212Y4367712D01*
G01X6452228Y4386593D01*
G01X6446361Y4404649D01*
G01X6436868Y4421091D01*
G01X6424165Y4435199D01*
G01X6408805Y4446359D01*
G01X6391462Y4454081D01*
G01X6372891Y4458028D01*
G01X6353906Y4458028D01*
G01X6335335Y4454081D01*
G01X6317992Y4446359D01*
G01X6302632Y4435199D01*
G01X6289929Y4421091D01*
G01X6280436Y4404649D01*
G01X6274569Y4386593D01*
G01X6272585Y4367712D01*
G01X6272585Y4318027D01*
G01X6260418Y4328780D01*
G01X6246122Y4336480D01*
G01X6230448Y4340720D01*
G01X6214220Y4341278D01*
G01X6198292Y4338126D01*
G01X6183500Y4331428D01*
G01X6170623Y4321537D01*
G01X6160337Y4308973D01*
G01X6153184Y4294396D01*
G01X6149539Y4278573D01*
G01X5712286Y4278573D01*
G01X5712286Y4278581D01*
G01X5708638Y4294407D01*
G01X5701481Y4308985D01*
G01X5691190Y4321549D01*
G01X5678308Y4331438D01*
G01X5663512Y4338133D01*
G01X5647579Y4341281D01*
G01X5631349Y4340716D01*
G01X5615674Y4336468D01*
G01X5601379Y4328760D01*
G01X5589215Y4317999D01*
G01X5589215Y4367712D01*
G01X5589215Y4367712D01*
G01X5587231Y4386593D01*
G01X5581364Y4404649D01*
G01X5571871Y4421091D01*
G01X5559168Y4435199D01*
G01X5543808Y4446359D01*
G01X5526465Y4454081D01*
G01X5507894Y4458028D01*
G01X5488909Y4458028D01*
G01X5470338Y4454081D01*
G01X5452995Y4446359D01*
G01X5437635Y4435199D01*
G01X5424932Y4421091D01*
G01X5415439Y4404649D01*
G01X5409572Y4386593D01*
G01X5407588Y4367712D01*
G01X5157227Y4367712D01*
G01X5158973Y4379164D01*
G01X5310936Y4531127D01*
G01X5326118Y4533441D01*
G01X5340359Y4539186D01*
G01X5352898Y4548052D01*
G01X5363061Y4559564D01*
G01X5370304Y4573106D01*
G01X5374237Y4587950D01*
G01X5374651Y4603301D01*
G01X5371522Y4618336D01*
G01X5365020Y4632248D01*
G01X5355491Y4644291D01*
G01X5343448Y4653820D01*
G01X5329536Y4660322D01*
G01X5314501Y4663451D01*
G01X5299150Y4663037D01*
G01X5284306Y4659104D01*
G01X5270764Y4651861D01*
G01X5259252Y4641698D01*
G01X5250386Y4629159D01*
G01X5244641Y4614918D01*
G01X5242327Y4599736D01*
G01X5090364Y4447773D01*
G01X5075182Y4445459D01*
G01X5060941Y4439714D01*
G01X5048402Y4430848D01*
G01X5038239Y4419336D01*
G01X5030996Y4405794D01*
G01X5027063Y4390950D01*
G01X5026649Y4375599D01*
G01X4546674Y4375599D01*
G01X4541361Y4391949D01*
G01X4531868Y4408391D01*
G01X4519165Y4422499D01*
G01X4503805Y4433659D01*
G01X4486462Y4441381D01*
G01X4467891Y4445328D01*
G01X4448906Y4445328D01*
G01X4430335Y4441381D01*
G01X4412992Y4433659D01*
G01X4397632Y4422499D01*
G01X4384929Y4408391D01*
G01X4375436Y4391949D01*
G01X4369569Y4373893D01*
G01X4367585Y4355012D01*
G01X4367585Y4305327D01*
G01X4355418Y4316080D01*
G01X4341122Y4323780D01*
G01X4325448Y4328020D01*
G01X4309220Y4328578D01*
G01X4293292Y4325426D01*
G01X4278500Y4318728D01*
G01X4265623Y4308837D01*
G01X4255337Y4296273D01*
G01X4248184Y4281696D01*
G01X4244539Y4265873D01*
G01X3807286Y4265873D01*
G01X3807286Y4265881D01*
G01X3803638Y4281707D01*
G01X3796481Y4296285D01*
G01X3786190Y4308849D01*
G01X3773308Y4318738D01*
G01X3758512Y4325433D01*
G01X3742579Y4328581D01*
G01X3726349Y4328016D01*
G01X3710674Y4323768D01*
G01X3696379Y4316060D01*
G01X3684215Y4305299D01*
G01X3684215Y4355012D01*
G01X3684215Y4355012D01*
G01X3682231Y4373893D01*
G01X3676364Y4391949D01*
G01X3666871Y4408391D01*
G01X3654168Y4422499D01*
G01X3638808Y4433659D01*
G01X3621465Y4441381D01*
G01X3602894Y4445328D01*
G01X3583909Y4445328D01*
G01X3565338Y4441381D01*
G01X3547995Y4433659D01*
G01X3532635Y4422499D01*
G01X3519932Y4408391D01*
G01X3510439Y4391949D01*
G01X3504572Y4373893D01*
G01X3502588Y4355012D01*
G01X3071114Y4355012D01*
G01X3071114Y4682394D01*
G01X7060872Y4682394D01*
G01X7060872Y4663409D01*
G01X7064819Y4644838D01*
G01X7072541Y4627495D01*
G01X7083701Y4612135D01*
G01X7097809Y4599432D01*
G01X7114251Y4589939D01*
G01X7132307Y4584072D01*
G01X7151188Y4582088D01*
G01X7241188Y4582088D01*
G01X7259759Y4584007D01*
G01X7277545Y4589683D01*
G01X7293794Y4598876D01*
G01X7307820Y4611198D01*
G01X7319030Y4626127D01*
G01X7326950Y4643034D01*
G01X7331245Y4661202D01*
G01X7331735Y4679866D01*
G01X7328397Y4698234D01*
G01X7321374Y4715533D01*
G01X7310962Y4731029D01*
G01X7297601Y4744069D01*
G01X7281855Y4754101D01*
G01X7295166Y4763405D01*
G01X7306007Y4775497D01*
G01X7313809Y4789741D01*
G01X7318159Y4805388D01*
G01X7318831Y4821615D01*
G01X7315789Y4837568D01*
G01X7309192Y4852408D01*
G01X7299387Y4865355D01*
G01X7286891Y4875727D01*
G01X7272360Y4882981D01*
G01X7256559Y4886733D01*
G01X7240319Y4886786D01*
G01X7224493Y4883138D01*
G01X7209915Y4875981D01*
G01X7197351Y4865690D01*
G01X7187462Y4852808D01*
G01X7180767Y4838012D01*
G01X7177619Y4822079D01*
G01X7178184Y4805849D01*
G01X7182432Y4790174D01*
G01X7190140Y4775879D01*
G01X7200901Y4763715D01*
G01X7151188Y4763715D01*
G01X7151188Y4763715D01*
G01X7132307Y4761731D01*
G01X7114251Y4755864D01*
G01X7097809Y4746371D01*
G01X7083701Y4733668D01*
G01X7072541Y4718308D01*
G01X7064819Y4700965D01*
G01X7060872Y4682394D01*
G01X3071114Y4682394D01*
G01X3071114Y4905271D01*
G01X5318352Y4905271D01*
G01X5318417Y4889082D01*
G01X5322402Y4873392D01*
G01X5330070Y4859134D01*
G01X5322525Y4844858D01*
G01X5318653Y4829182D01*
G01X5318686Y4813035D01*
G01X5322619Y4797374D01*
G01X5330221Y4783128D01*
G01X5341041Y4771142D01*
G01X5354437Y4762126D01*
G01X5369614Y4756615D01*
G01X5385674Y4754936D01*
G01X5401664Y4757188D01*
G01X5416635Y4763237D01*
G01X5429700Y4772726D01*
G01X5440390Y4772726D01*
G01X5452947Y4774379D01*
G01X5464647Y4779225D01*
G01X5474695Y4786935D01*
G01X5478265Y4790506D01*
G01X5896934Y4790506D01*
G01X5909490Y4792159D01*
G01X5921191Y4797005D01*
G01X5931238Y4804715D01*
G01X5973005Y4846482D01*
G01X5980715Y4856530D01*
G01X5985562Y4868230D01*
G01X5987215Y4880787D01*
G01X5987215Y5282073D01*
G01X5985562Y5294629D01*
G01X5980715Y5306330D01*
G01X5973005Y5316378D01*
G01X5906551Y5382832D01*
G01X5906551Y5547391D01*
G01X7060872Y5547391D01*
G01X7060872Y5528406D01*
G01X7064819Y5509835D01*
G01X7072541Y5492492D01*
G01X7083701Y5477132D01*
G01X7097809Y5464429D01*
G01X7114251Y5454936D01*
G01X7132307Y5449069D01*
G01X7151188Y5447085D01*
G01X7200873Y5447085D01*
G01X7190120Y5434918D01*
G01X7182420Y5420622D01*
G01X7178180Y5404948D01*
G01X7177622Y5388720D01*
G01X7180774Y5372792D01*
G01X7187472Y5358000D01*
G01X7197363Y5345123D01*
G01X7209927Y5334837D01*
G01X7224504Y5327684D01*
G01X7240327Y5324039D01*
G01X7256564Y5324094D01*
G01X7272362Y5327846D01*
G01X7286890Y5335097D01*
G01X7299385Y5345468D01*
G01X7309188Y5358412D01*
G01X7315786Y5373248D01*
G01X7318830Y5389198D01*
G01X7318162Y5405422D01*
G01X7313816Y5421067D01*
G01X7306020Y5435310D01*
G01X7295185Y5447404D01*
G01X7281880Y5456711D01*
G01X7297620Y5466747D01*
G01X7310976Y5479789D01*
G01X7321384Y5495286D01*
G01X7328402Y5512584D01*
G01X7331736Y5530951D01*
G01X7331243Y5549612D01*
G01X7326946Y5567778D01*
G01X7319025Y5584682D01*
G01X7307814Y5599608D01*
G01X7293789Y5611928D01*
G01X7277541Y5621119D01*
G01X7259757Y5626794D01*
G01X7241188Y5628712D01*
G01X7241188Y5628712D01*
G01X7151188Y5628712D01*
G01X7132307Y5626728D01*
G01X7114251Y5620861D01*
G01X7097809Y5611368D01*
G01X7083701Y5598665D01*
G01X7072541Y5583305D01*
G01X7064819Y5565962D01*
G01X7060872Y5547391D01*
G01X5906551Y5547391D01*
G01X5906551Y5580605D01*
G01X5910122Y5584176D01*
G01X5917831Y5594223D01*
G01X5922678Y5605924D01*
G01X5924331Y5618480D01*
G01X5924331Y5629170D01*
G01X5933830Y5642254D01*
G01X5939880Y5657247D01*
G01X5942122Y5673259D01*
G01X5940422Y5689337D01*
G01X5934883Y5704527D01*
G01X5925832Y5717924D01*
G01X5913808Y5728733D01*
G01X5899526Y5736311D01*
G01X5883835Y5740208D01*
G01X5867667Y5740192D01*
G01X5851984Y5736263D01*
G01X5837717Y5728657D01*
G01X5823450Y5736263D01*
G01X5807767Y5740192D01*
G01X5791599Y5740208D01*
G01X5775907Y5736311D01*
G01X5761625Y5728733D01*
G01X5749602Y5717924D01*
G01X5740551Y5704527D01*
G01X5735012Y5689337D01*
G01X5733312Y5673259D01*
G01X5735554Y5657247D01*
G01X5741604Y5642254D01*
G01X5751103Y5629170D01*
G01X5751103Y5618480D01*
G01X5752756Y5605924D01*
G01X5757602Y5594223D01*
G01X5765312Y5584176D01*
G01X5768883Y5580605D01*
G01X5768883Y5345903D01*
G01X5770536Y5333347D01*
G01X5775382Y5321646D01*
G01X5783092Y5311599D01*
G01X5849547Y5245144D01*
G01X5849547Y4928174D01*
G01X5476757Y4928174D01*
G01X5476757Y4928174D01*
G01X5473187Y4931744D01*
G01X5463139Y4939454D01*
G01X5451438Y4944301D01*
G01X5438882Y4945954D01*
G01X5429412Y4945954D01*
G01X5416310Y4955462D01*
G01X5401294Y4961513D01*
G01X5385260Y4963745D01*
G01X5369163Y4962026D01*
G01X5353962Y4956458D01*
G01X5340563Y4947372D01*
G01X5329765Y4935311D01*
G01X5322211Y4920993D01*
G01X5318352Y4905271D01*
G01X3071114Y4905271D01*
G01X3071114Y5882288D01*
G01X3451788Y5882288D01*
G01X3451788Y5792288D01*
G01X3453772Y5773407D01*
G01X3459639Y5755351D01*
G01X3469132Y5738909D01*
G01X3481835Y5724801D01*
G01X3497195Y5713641D01*
G01X3514538Y5705919D01*
G01X3533109Y5701972D01*
G01X3552094Y5701972D01*
G01X3570665Y5705919D01*
G01X3588008Y5713641D01*
G01X3603368Y5724801D01*
G01X3616071Y5738909D01*
G01X3625564Y5755351D01*
G01X3631431Y5773407D01*
G01X3633415Y5792288D01*
G01X3633415Y5841973D01*
G01X3645582Y5831220D01*
G01X3659878Y5823520D01*
G01X3675552Y5819280D01*
G01X3691780Y5818722D01*
G01X3707708Y5821874D01*
G01X3722500Y5828572D01*
G01X3735377Y5838463D01*
G01X3745663Y5851027D01*
G01X3752816Y5865604D01*
G01X3756461Y5881427D01*
G01X3756406Y5897664D01*
G01X3752654Y5913462D01*
G01X3745403Y5927990D01*
G01X3735032Y5940485D01*
G01X3722088Y5950288D01*
G01X3707252Y5956886D01*
G01X3691302Y5959930D01*
G01X3675078Y5959262D01*
G01X3659433Y5954916D01*
G01X3645190Y5947120D01*
G01X3633096Y5936285D01*
G01X3623789Y5922980D01*
G01X3613753Y5938720D01*
G01X3600711Y5952076D01*
G01X3585214Y5962484D01*
G01X3569155Y5969000D01*
G01X3871080Y5969000D01*
G01X3872858Y5953747D01*
G01X3878097Y5939311D01*
G01X3886516Y5926468D01*
G01X3897663Y5915906D01*
G01X3910941Y5908190D01*
G01X3925638Y5903736D01*
G01X3940965Y5902782D01*
G01X3956100Y5905379D01*
G01X3970232Y5911388D01*
G01X3982604Y5920486D01*
G01X4120390Y5920486D01*
G01X4133614Y5910910D01*
G01X4148776Y5904855D01*
G01X4164959Y5902689D01*
G01X4181180Y5904542D01*
G01X4196457Y5910303D01*
G01X4193473Y5894619D01*
G01X4194077Y5878666D01*
G01X4198240Y5863254D01*
G01X4205749Y5849166D01*
G01X4216224Y5837118D01*
G01X4229131Y5827722D01*
G01X4229131Y5827722D01*
G01X4243814Y5821457D01*
G01X4259528Y5818639D01*
G01X4275474Y5819414D01*
G01X4290841Y5823740D01*
G01X4304849Y5831399D01*
G01X4316785Y5842001D01*
G01X4316785Y5792288D01*
G01X4318769Y5773407D01*
G01X4324636Y5755351D01*
G01X4334129Y5738909D01*
G01X4346832Y5724801D01*
G01X4362192Y5713641D01*
G01X4379535Y5705919D01*
G01X4398106Y5701972D01*
G01X4417091Y5701972D01*
G01X4435662Y5705919D01*
G01X4453005Y5713641D01*
G01X4468365Y5724801D01*
G01X4481068Y5738909D01*
G01X4490561Y5755351D01*
G01X4496428Y5773407D01*
G01X4498412Y5792288D01*
G01X4498412Y5882288D01*
G01X5356788Y5882288D01*
G01X5356788Y5792288D01*
G01X5358772Y5773407D01*
G01X5364639Y5755351D01*
G01X5374132Y5738909D01*
G01X5386835Y5724801D01*
G01X5402195Y5713641D01*
G01X5419538Y5705919D01*
G01X5438109Y5701972D01*
G01X5457094Y5701972D01*
G01X5475665Y5705919D01*
G01X5493008Y5713641D01*
G01X5508368Y5724801D01*
G01X5521071Y5738909D01*
G01X5530564Y5755351D01*
G01X5536431Y5773407D01*
G01X5538415Y5792288D01*
G01X5538415Y5841973D01*
G01X5550582Y5831220D01*
G01X5564878Y5823520D01*
G01X5580552Y5819280D01*
G01X5596780Y5818722D01*
G01X5612708Y5821874D01*
G01X5627500Y5828572D01*
G01X5640377Y5838463D01*
G01X5650663Y5851027D01*
G01X5657816Y5865604D01*
G01X5661460Y5881419D01*
G01X6098714Y5881419D01*
G01X6102362Y5865593D01*
G01X6109519Y5851015D01*
G01X6119810Y5838451D01*
G01X6132692Y5828562D01*
G01X6147488Y5821867D01*
G01X6163421Y5818719D01*
G01X6179651Y5819284D01*
G01X6195326Y5823532D01*
G01X6209621Y5831240D01*
G01X6221785Y5842001D01*
G01X6221785Y5792288D01*
G01X6223769Y5773407D01*
G01X6229636Y5755351D01*
G01X6239129Y5738909D01*
G01X6251832Y5724801D01*
G01X6267192Y5713641D01*
G01X6284535Y5705919D01*
G01X6303106Y5701972D01*
G01X6322091Y5701972D01*
G01X6340662Y5705919D01*
G01X6358005Y5713641D01*
G01X6373365Y5724801D01*
G01X6386068Y5738909D01*
G01X6395561Y5755351D01*
G01X6401428Y5773407D01*
G01X6403412Y5792288D01*
G01X6403412Y5882288D01*
G01X6401493Y5900859D01*
G01X6395817Y5918645D01*
G01X6386624Y5934894D01*
G01X6374302Y5948920D01*
G01X6359373Y5960130D01*
G01X6342466Y5968050D01*
G01X6324298Y5972345D01*
G01X6305634Y5972835D01*
G01X6287266Y5969497D01*
G01X6269967Y5962474D01*
G01X6254471Y5952062D01*
G01X6241431Y5938701D01*
G01X6231399Y5922955D01*
G01X6222095Y5936266D01*
G01X6210003Y5947107D01*
G01X6195759Y5954909D01*
G01X6180112Y5959259D01*
G01X6163885Y5959931D01*
G01X6147932Y5956889D01*
G01X6133092Y5950292D01*
G01X6120145Y5940487D01*
G01X6109773Y5927991D01*
G01X6102519Y5913460D01*
G01X6098767Y5897659D01*
G01X6098767Y5897659D01*
G01X6098714Y5881419D01*
G01X5661460Y5881419D01*
G01X5661461Y5881427D01*
G01X5661406Y5897664D01*
G01X5657654Y5913462D01*
G01X5650403Y5927990D01*
G01X5640032Y5940485D01*
G01X5627088Y5950288D01*
G01X5612252Y5956886D01*
G01X5596302Y5959930D01*
G01X5580078Y5959262D01*
G01X5564433Y5954916D01*
G01X5550190Y5947120D01*
G01X5538096Y5936285D01*
G01X5528789Y5922980D01*
G01X5518753Y5938720D01*
G01X5505711Y5952076D01*
G01X5490214Y5962484D01*
G01X5472916Y5969502D01*
G01X5454549Y5972836D01*
G01X5435888Y5972343D01*
G01X5417722Y5968046D01*
G01X5400818Y5960125D01*
G01X5385892Y5948914D01*
G01X5373572Y5934889D01*
G01X5364381Y5918641D01*
G01X5358706Y5900857D01*
G01X5356788Y5882288D01*
G01X5356788Y5882288D01*
G01X4498412Y5882288D01*
G01X4496493Y5900859D01*
G01X4490817Y5918645D01*
G01X4481624Y5934894D01*
G01X4469302Y5948920D01*
G01X4454373Y5960130D01*
G01X4437466Y5968050D01*
G01X4419298Y5972345D01*
G01X4400634Y5972835D01*
G01X4382266Y5969497D01*
G01X4364967Y5962474D01*
G01X4349471Y5952062D01*
G01X4336431Y5938701D01*
G01X4326399Y5922955D01*
G01X4317242Y5936099D01*
G01X4305365Y5946849D01*
G01X4291377Y5954654D01*
G01X4275991Y5959115D01*
G01X4259997Y5960004D01*
G01X4244212Y5957276D01*
G01X4229444Y5951070D01*
G01X4231804Y5965185D01*
G01X4231081Y5979478D01*
G01X4227308Y5993282D01*
G01X4220662Y6005956D01*
G01X4211450Y6016909D01*
G01X4200104Y6025631D01*
G01X4187150Y6031715D01*
G01X4173193Y6034878D01*
G01X4158882Y6034973D01*
G01X4144885Y6031995D01*
G01X4131851Y6026084D01*
G01X4120390Y6017514D01*
G01X3982604Y6017514D01*
G01X3970232Y6026612D01*
G01X3956100Y6032621D01*
G01X3940965Y6035218D01*
G01X3925638Y6034264D01*
G01X3910941Y6029810D01*
G01X3897663Y6022094D01*
G01X3886516Y6011532D01*
G01X3878097Y5998689D01*
G01X3872858Y5984253D01*
G01X3871080Y5969000D01*
G01X3569155Y5969000D01*
G01X3567916Y5969502D01*
G01X3549549Y5972836D01*
G01X3530888Y5972343D01*
G01X3512722Y5968046D01*
G01X3495818Y5960125D01*
G01X3480892Y5948914D01*
G01X3468572Y5934889D01*
G01X3459381Y5918641D01*
G01X3453706Y5900857D01*
G01X3451788Y5882288D01*
G01X3451788Y5882288D01*
G01X3071114Y5882288D01*
G01X3071114Y6197600D01*
G01X3092686Y6197600D01*
G01X3094675Y6173600D01*
G01X3100587Y6150254D01*
G01X3110260Y6128200D01*
G01X3123432Y6108039D01*
G01X3139743Y6090321D01*
G01X3158747Y6075529D01*
G01X3179927Y6064067D01*
G01X3202705Y6056248D01*
G01X3226459Y6052284D01*
G01X3250541Y6052284D01*
G01X3274295Y6056248D01*
G01X3297073Y6064067D01*
G01X3318253Y6075529D01*
G01X3337257Y6090321D01*
G01X3353568Y6108039D01*
G01X3366740Y6128200D01*
G01X3376413Y6150254D01*
G01X3382325Y6173600D01*
G01X3384314Y6197600D01*
G01X3382325Y6221600D01*
G01X3376413Y6244946D01*
G01X3366740Y6267000D01*
G01X3353568Y6287161D01*
G01X3353437Y6287303D01*
G01X3446788Y6287303D01*
G01X3446788Y6227303D01*
G01X3448629Y6208610D01*
G01X3454081Y6190636D01*
G01X3462935Y6174071D01*
G01X3474851Y6159552D01*
G01X3489370Y6147636D01*
G01X3505935Y6138782D01*
G01X3523909Y6133330D01*
G01X3542602Y6131489D01*
G01X3561294Y6133330D01*
G01X3579268Y6138782D01*
G01X3595833Y6147636D01*
G01X3610352Y6159552D01*
G01X3622268Y6174071D01*
G01X3631122Y6190636D01*
G01X3636574Y6208610D01*
G01X3638415Y6227303D01*
G01X3638415Y6227303D01*
G01X3638415Y6287303D01*
G01X4311785Y6287303D01*
G01X4311785Y6227303D01*
G01X4313626Y6208610D01*
G01X4319078Y6190636D01*
G01X4327932Y6174071D01*
G01X4339848Y6159552D01*
G01X4354367Y6147636D01*
G01X4370932Y6138782D01*
G01X4388906Y6133330D01*
G01X4407599Y6131489D01*
G01X4426291Y6133330D01*
G01X4444265Y6138782D01*
G01X4460830Y6147636D01*
G01X4475349Y6159552D01*
G01X4487265Y6174071D01*
G01X4496119Y6190636D01*
G01X4501571Y6208610D01*
G01X4503412Y6227303D01*
G01X4503412Y6227303D01*
G01X4503412Y6287303D01*
G01X5351788Y6287303D01*
G01X5351788Y6227303D01*
G01X5353629Y6208610D01*
G01X5359081Y6190636D01*
G01X5367935Y6174071D01*
G01X5379851Y6159552D01*
G01X5394370Y6147636D01*
G01X5410935Y6138782D01*
G01X5428909Y6133330D01*
G01X5447602Y6131489D01*
G01X5466294Y6133330D01*
G01X5484268Y6138782D01*
G01X5500833Y6147636D01*
G01X5515352Y6159552D01*
G01X5527268Y6174071D01*
G01X5536122Y6190636D01*
G01X5541574Y6208610D01*
G01X5543415Y6227303D01*
G01X5543415Y6227303D01*
G01X5543415Y6287303D01*
G01X6216785Y6287303D01*
G01X6216785Y6227303D01*
G01X6218626Y6208610D01*
G01X6224078Y6190636D01*
G01X6232932Y6174071D01*
G01X6244848Y6159552D01*
G01X6259367Y6147636D01*
G01X6275932Y6138782D01*
G01X6293906Y6133330D01*
G01X6312599Y6131489D01*
G01X6331291Y6133330D01*
G01X6349265Y6138782D01*
G01X6365830Y6147636D01*
G01X6380349Y6159552D01*
G01X6392265Y6174071D01*
G01X6401119Y6190636D01*
G01X6403231Y6197600D01*
G01X7372586Y6197600D01*
G01X7374575Y6173600D01*
G01X7380487Y6150254D01*
G01X7390160Y6128200D01*
G01X7403332Y6108039D01*
G01X7419643Y6090321D01*
G01X7438647Y6075529D01*
G01X7459827Y6064067D01*
G01X7482605Y6056248D01*
G01X7506359Y6052284D01*
G01X7530441Y6052284D01*
G01X7554195Y6056248D01*
G01X7576973Y6064067D01*
G01X7598153Y6075529D01*
G01X7617157Y6090321D01*
G01X7633468Y6108039D01*
G01X7646640Y6128200D01*
G01X7656313Y6150254D01*
G01X7662225Y6173600D01*
G01X7664214Y6197600D01*
G01X7662225Y6221600D01*
G01X7656313Y6244946D01*
G01X7646640Y6267000D01*
G01X7633468Y6287161D01*
G01X7617157Y6304879D01*
G01X7598153Y6319671D01*
G01X7576973Y6331133D01*
G01X7554195Y6338952D01*
G01X7530441Y6342916D01*
G01X7506359Y6342916D01*
G01X7482605Y6338952D01*
G01X7459827Y6331133D01*
G01X7438647Y6319671D01*
G01X7419643Y6304879D01*
G01X7403332Y6287161D01*
G01X7390160Y6267000D01*
G01X7380487Y6244946D01*
G01X7374575Y6221600D01*
G01X7372586Y6197600D01*
G01X7372586Y6197600D01*
G01X6403231Y6197600D01*
G01X6406571Y6208610D01*
G01X6408412Y6227303D01*
G01X6408412Y6227303D01*
G01X6408412Y6287303D01*
G01X6406571Y6305995D01*
G01X6401119Y6323969D01*
G01X6392265Y6340534D01*
G01X6380349Y6355053D01*
G01X6365830Y6366969D01*
G01X6349265Y6375823D01*
G01X6331291Y6381275D01*
G01X6312599Y6383117D01*
G01X6293906Y6381275D01*
G01X6275932Y6375823D01*
G01X6259367Y6366969D01*
G01X6244848Y6355053D01*
G01X6232932Y6340534D01*
G01X6224078Y6323969D01*
G01X6218626Y6305995D01*
G01X6216785Y6287303D01*
G01X5543415Y6287303D01*
G01X5541574Y6305995D01*
G01X5536122Y6323969D01*
G01X5527268Y6340534D01*
G01X5515352Y6355053D01*
G01X5500833Y6366969D01*
G01X5484268Y6375823D01*
G01X5466294Y6381275D01*
G01X5447602Y6383117D01*
G01X5428909Y6381275D01*
G01X5410935Y6375823D01*
G01X5394370Y6366969D01*
G01X5379851Y6355053D01*
G01X5367935Y6340534D01*
G01X5359081Y6323969D01*
G01X5353629Y6305995D01*
G01X5351788Y6287303D01*
G01X4503412Y6287303D01*
G01X4501571Y6305995D01*
G01X4496119Y6323969D01*
G01X4487265Y6340534D01*
G01X4475349Y6355053D01*
G01X4460830Y6366969D01*
G01X4444265Y6375823D01*
G01X4426291Y6381275D01*
G01X4407599Y6383117D01*
G01X4388906Y6381275D01*
G01X4370932Y6375823D01*
G01X4354367Y6366969D01*
G01X4339848Y6355053D01*
G01X4327932Y6340534D01*
G01X4319078Y6323969D01*
G01X4313626Y6305995D01*
G01X4311785Y6287303D01*
G01X3638415Y6287303D01*
G01X3636574Y6305995D01*
G01X3631122Y6323969D01*
G01X3622268Y6340534D01*
G01X3610352Y6355053D01*
G01X3595833Y6366969D01*
G01X3579268Y6375823D01*
G01X3561294Y6381275D01*
G01X3542602Y6383117D01*
G01X3523909Y6381275D01*
G01X3505935Y6375823D01*
G01X3489370Y6366969D01*
G01X3474851Y6355053D01*
G01X3462935Y6340534D01*
G01X3454081Y6323969D01*
G01X3448629Y6305995D01*
G01X3446788Y6287303D01*
G01X3353437Y6287303D01*
G01X3337257Y6304879D01*
G01X3318253Y6319671D01*
G01X3297073Y6331133D01*
G01X3274295Y6338952D01*
G01X3250541Y6342916D01*
G01X3226459Y6342916D01*
G01X3202705Y6338952D01*
G01X3179927Y6331133D01*
G01X3158747Y6319671D01*
G01X3139743Y6304879D01*
G01X3123432Y6287161D01*
G01X3110260Y6267000D01*
G01X3100587Y6244946D01*
G01X3094675Y6221600D01*
G01X3092686Y6197600D01*
G01X3092686Y6197600D01*
G01X3071114Y6197600D01*
G01X3071114Y6362700D01*
G01X3072469Y6371255D01*
G01X3076402Y6378973D01*
G01X3082527Y6385098D01*
G01X3090245Y6389031D01*
G01X3098800Y6390386D01*
G01X7708900Y6390386D01*
G01X7717455Y6389031D01*
G01X7725173Y6385098D01*
G01X7731298Y6378973D01*
G01X7735231Y6371255D01*
G01X7736586Y6362700D01*
G01X7736586Y5569697D01*
G01X7728200Y5587465D01*
G01X7716366Y5603148D01*
G01X7701581Y5616088D01*
G01X7684468Y5625740D01*
G01X7665746Y5631698D01*
G01X7646203Y5633712D01*
G01X7586203Y5633712D01*
G01X7567510Y5631871D01*
G01X7549536Y5626419D01*
G01X7532971Y5617565D01*
G01X7518452Y5605649D01*
G01X7506536Y5591130D01*
G01X7497682Y5574565D01*
G01X7492230Y5556591D01*
G01X7490389Y5537899D01*
G01X7492230Y5519206D01*
G01X7497682Y5501232D01*
G01X7506536Y5484667D01*
G01X7518452Y5470148D01*
G01X7532971Y5458232D01*
G01X7549536Y5449378D01*
G01X7567510Y5443926D01*
G01X7586203Y5442085D01*
G01X7646203Y5442085D01*
G01X7665746Y5444099D01*
G01X7684468Y5450057D01*
G01X7701581Y5459709D01*
G01X7716366Y5472649D01*
G01X7728200Y5488332D01*
G01X7736586Y5506100D01*
G01X7736586Y4704700D01*
G01X7728200Y4722468D01*
G01X7716366Y4738151D01*
G01X7701581Y4751091D01*
G01X7684468Y4760743D01*
G01X7665746Y4766701D01*
G01X7646203Y4768715D01*
G01X7586203Y4768715D01*
G01X7567510Y4766874D01*
G01X7549536Y4761422D01*
G01X7532971Y4752568D01*
G01X7518452Y4740652D01*
G01X7506536Y4726133D01*
G01X7497682Y4709568D01*
G01X7492230Y4691594D01*
G01X7490389Y4672902D01*
G01X7492230Y4654209D01*
G01X7497682Y4636235D01*
G01X7506536Y4619670D01*
G01X7518452Y4605151D01*
G01X7532971Y4593235D01*
G01X7549536Y4584381D01*
G01X7567510Y4578929D01*
G01X7586203Y4577088D01*
G01X7646203Y4577088D01*
G01X7665746Y4579102D01*
G01X7684468Y4585060D01*
G01X7701581Y4594712D01*
G01X7716366Y4607652D01*
G01X7728200Y4623335D01*
G01X7736586Y4641103D01*
G01X7736586Y3810000D01*
G01X7735231Y3801445D01*
G01X7731298Y3793727D01*
G01X7725173Y3787602D01*
G01X7717455Y3783669D01*
G01X7708900Y3782314D01*
G01X6395197Y3782314D01*
G01X6412965Y3790700D01*
G01X6428648Y3802534D01*
G01X6441588Y3817319D01*
G01X6451240Y3834432D01*
G01X6457198Y3853154D01*
G01X6459212Y3872697D01*
G01X6459212Y3932697D01*
G01X6457371Y3951390D01*
G01X6451919Y3969364D01*
G01X6443065Y3985929D01*
G01X6437922Y3992196D01*
G01X7372586Y3992196D01*
G01X7374575Y3968196D01*
G01X7380487Y3944850D01*
G01X7390160Y3922796D01*
G01X7403332Y3902635D01*
G01X7419643Y3884917D01*
G01X7438647Y3870125D01*
G01X7459827Y3858663D01*
G01X7482605Y3850844D01*
G01X7506359Y3846880D01*
G01X7530441Y3846880D01*
G01X7554195Y3850844D01*
G01X7576973Y3858663D01*
G01X7598153Y3870125D01*
G01X7617157Y3884917D01*
G01X7633468Y3902635D01*
G01X7646640Y3922796D01*
G01X7656313Y3944850D01*
G01X7662225Y3968196D01*
G01X7664214Y3992196D01*
G01X7662225Y4016196D01*
G01X7656313Y4039541D01*
G01X7646640Y4061596D01*
G01X7633468Y4081757D01*
G01X7617157Y4099475D01*
G01X7598153Y4114266D01*
G01X7576973Y4125728D01*
G01X7554195Y4133548D01*
G01X7530441Y4137512D01*
G01X7506359Y4137512D01*
G01X7482605Y4133548D01*
G01X7459827Y4125728D01*
G01X7438647Y4114266D01*
G01X7419643Y4099475D01*
G01X7403332Y4081757D01*
G01X7390160Y4061596D01*
G01X7380487Y4039541D01*
G01X7374575Y4016196D01*
G01X7372586Y3992196D01*
G01X7372586Y3992196D01*
G01X6437922Y3992196D01*
G01X6431149Y4000448D01*
G01X6416630Y4012364D01*
G01X6400065Y4021218D01*
G01X6382091Y4026670D01*
G01X6363399Y4028511D01*
G01X6344706Y4026670D01*
G01X6326732Y4021218D01*
G01X6310167Y4012364D01*
G01X6295648Y4000448D01*
G01X6283732Y3985929D01*
G01X6274878Y3969364D01*
G01X6269426Y3951390D01*
G01X6267585Y3932697D01*
G01X6267585Y3872697D01*
G01X6269599Y3853154D01*
G01X6275557Y3834432D01*
G01X6285209Y3817319D01*
G01X6298149Y3802534D01*
G01X6313832Y3790700D01*
G01X6331600Y3782314D01*
G01X5530200Y3782314D01*
G01X5547968Y3790700D01*
G01X5563651Y3802534D01*
G01X5576591Y3817319D01*
G01X5586243Y3834432D01*
G01X5592201Y3853154D01*
G01X5594215Y3872697D01*
G01X5594215Y3932697D01*
G01X5592374Y3951390D01*
G01X5586922Y3969364D01*
G01X5578068Y3985929D01*
G01X5566152Y4000448D01*
G01X5551633Y4012364D01*
G01X5535068Y4021218D01*
G01X5517094Y4026670D01*
G01X5498402Y4028511D01*
G01X5479709Y4026670D01*
G01X5461735Y4021218D01*
G01X5445170Y4012364D01*
G01X5430651Y4000448D01*
G01X5418735Y3985929D01*
G01X5409881Y3969364D01*
G01X5404429Y3951390D01*
G01X5402588Y3932697D01*
G01X5402588Y3872697D01*
G01X5404602Y3853154D01*
G01X5410560Y3834432D01*
G01X5420212Y3817319D01*
G01X5433152Y3802534D01*
G01X5448835Y3790700D01*
G01X5466603Y3782314D01*
G01X4514484Y3782314D01*
G01X4528086Y3794241D01*
G01X4539204Y3808512D01*
G01X4547442Y3824619D01*
G01X4552504Y3841987D01*
G01X4554212Y3859997D01*
G01X4554212Y3919997D01*
G01X4552371Y3938690D01*
G01X4546919Y3956664D01*
G01X4538065Y3973229D01*
G01X4526149Y3987748D01*
G01X4511630Y3999664D01*
G01X4495065Y4008518D01*
G01X4477091Y4013970D01*
G01X4458399Y4015811D01*
G01X4439706Y4013970D01*
G01X4421732Y4008518D01*
G01X4405167Y3999664D01*
G01X4390648Y3987748D01*
G01X4378732Y3973229D01*
G01X4369878Y3956664D01*
G01X4364426Y3938690D01*
G01X4362585Y3919997D01*
G01X4362585Y3859997D01*
G01X4364293Y3841987D01*
G01X4369355Y3824619D01*
G01X4377593Y3808512D01*
G01X4388711Y3794241D01*
G01X4402313Y3782314D01*
G37*
G54D10*
G01X4402313Y3782314D02*
G01X3649487Y3782314D01*
G03X3689215Y3859997I-56086J77683D01*
G01X3689215Y3919997D01*
G03X3497588Y3919997I-95814J0D01*
G01X3497588Y3859997D01*
G03X3537316Y3782314I95814J0D01*
G01X3098800Y3782314D01*
G02X3071114Y3810000I0J27686D01*
G01X3071114Y6362700D01*
G02X3098800Y6390386I27686J0D01*
G01X7708900Y6390386D01*
G02X7736586Y6362700I0J-27686D01*
G01X7736586Y5569697D01*
G03X7646203Y5633712I-90383J-31799D01*
G01X7586203Y5633712D01*
G03X7586203Y5442085I0J-95814D01*
G01X7646203Y5442085D01*
G03X7736586Y5506100I0J95814D01*
G01X7736586Y4704700D01*
G03X7646203Y4768715I-90383J-31799D01*
G01X7586203Y4768715D01*
G03X7586203Y4577088I0J-95814D01*
G01X7646203Y4577088D01*
G03X7736586Y4641103I0J95814D01*
G01X7736586Y3810000D01*
G02X7708900Y3782314I-27686J0D01*
G01X6395197Y3782314D01*
G03X6459212Y3872697I-31799J90383D01*
G01X6459212Y3932697D01*
G03X6267585Y3932697I-95814J0D01*
G01X6267585Y3872697D01*
G03X6331600Y3782314I95814J0D01*
G01X5530200Y3782314D01*
G03X5594215Y3872697I-31799J90383D01*
G01X5594215Y3932697D01*
G03X5402588Y3932697I-95814J0D01*
G01X5402588Y3872697D01*
G03X5466603Y3782314I95814J0D01*
G01X4514484Y3782314D01*
G03X4554212Y3859997I-56086J77683D01*
G01X4554212Y3919997D01*
G03X4362585Y3919997I-95814J0D01*
G01X4362585Y3859997D01*
G03X4402313Y3782314I95814J0D01*
G01X3092686Y6197600D02*
G03X3384314Y6197600I145814J0D01*
G03X3092686Y6197600I-145814J0D01*
G01X3095189Y3992196D02*
G03X3386817Y3992196I145814J0D01*
G03X3095189Y3992196I-145814J0D01*
G01X3638415Y6227303D02*
G01X3638415Y6287303D01*
G03X3446788Y6287303I-95814J0D01*
G01X3446788Y6227303D01*
G03X3638415Y6227303I95814J0D01*
G01X3451788Y5882288D02*
G01X3451788Y5792288D01*
G03X3633415Y5792288I90814J0D01*
G01X3633415Y5841973D01*
G03X3756406Y5897664I52671J47335D01*
G03X3623789Y5922980I-70320J-8357D01*
G03X3451788Y5882288I-81187J-40692D01*
G01X3684215Y4355012D02*
G03X3502588Y4355012I-90814J0D01*
G01X3502588Y4265012D01*
G03X3674601Y4224345I90814J0D01*
G03X3807233Y4249641I62311J33648D01*
G03X3684215Y4305299I-70321J8352D01*
G01X3684215Y4355012D01*
G01X4229131Y5827722D02*
G03X4316785Y5842001I34958J61585D01*
G01X4316785Y5792288D01*
G03X4498412Y5792288I90814J0D01*
G01X4498412Y5882288D01*
G03X4326399Y5922955I-90814J0D01*
G03X4229444Y5951070I-62311J-33648D01*
G03X4200104Y6025631I-63844J17930D01*
G03X4120390Y6017514I-34504J-56631D01*
G01X3982604Y6017514D01*
G03X3871080Y5969000I-45210J-48514D01*
G03X3982604Y5920486I66314J0D01*
G01X4120390Y5920486D01*
G03X4196457Y5910303I45210J48514D01*
G03X4229131Y5827722I67631J-20995D01*
G01X4244594Y4249636D02*
G03X4377211Y4224320I70320J8357D01*
G03X4549212Y4265012I81187J40692D01*
G01X4549212Y4355012D01*
G03X4367585Y4355012I-90814J0D01*
G01X4367585Y4305327D01*
G03X4244594Y4249636I-52671J-47335D01*
G01X4503412Y6227303D02*
G01X4503412Y6287303D01*
G03X4311785Y6287303I-95814J0D01*
G01X4311785Y6227303D01*
G03X4503412Y6227303I95814J0D01*
G01X5045809Y4334609D02*
G03X5158973Y4379164I46891J46891D01*
G01X5310936Y4531127D01*
G03X5355491Y4644291I-2336J66273D01*
G03X5242327Y4599736I-46891J-46891D01*
G01X5090364Y4447773D01*
G03X5045809Y4334609I2336J-66273D01*
G01X5476757Y4928174D02*
G01X5473187Y4931744D01*
G03X5438882Y4945954I-34305J-34304D01*
G01X5429412Y4945954D01*
G03X5340563Y4947372I-45210J-48514D01*
G03X5330070Y4859134I43638J-49932D01*
G03X5341041Y4771142I54420J-37895D01*
G03X5429700Y4772726I43449J50097D01*
G01X5440390Y4772726D01*
G03X5474695Y4786935I0J48514D01*
G01X5478265Y4790506D01*
G01X5896934Y4790506D01*
G03X5931238Y4804715I0J48514D01*
G01X5973005Y4846482D01*
G03X5987215Y4880787I-34305J34305D01*
G01X5987215Y5282073D01*
G03X5973005Y5316378I-48514J0D01*
G01X5906551Y5382832D01*
G01X5906551Y5580605D01*
G01X5910122Y5584176D01*
G03X5924331Y5618480I-34305J34305D01*
G01X5924331Y5629170D01*
G03X5925832Y5717924I-48514J45210D01*
G03X5837717Y5728657I-50015J-43544D01*
G03X5749602Y5717924I-38100J-54276D01*
G03X5751103Y5629170I50015J-43544D01*
G01X5751103Y5618480D01*
G03X5765312Y5584176I48514J0D01*
G01X5768883Y5580605D01*
G01X5768883Y5345903D01*
G03X5783092Y5311599I48514J0D01*
G01X5849547Y5245144D01*
G01X5849547Y4928174D01*
G01X5476757Y4928174D01*
G01X5543415Y6227303D02*
G01X5543415Y6287303D01*
G03X5351788Y6287303I-95814J0D01*
G01X5351788Y6227303D01*
G03X5543415Y6227303I95814J0D01*
G01X5356788Y5882288D02*
G01X5356788Y5792288D01*
G03X5538415Y5792288I90814J0D01*
G01X5538415Y5841973D01*
G03X5661406Y5897664I52671J47335D01*
G03X5528789Y5922980I-70320J-8357D01*
G03X5356788Y5882288I-81187J-40692D01*
G01X5589215Y4367712D02*
G03X5407588Y4367712I-90814J0D01*
G01X5407588Y4277712D01*
G03X5579601Y4237045I90814J0D01*
G03X5712233Y4262341I62311J33648D01*
G03X5589215Y4317999I-70321J8352D01*
G01X5589215Y4367712D01*
G01X6098767Y5897659D02*
G03X6221785Y5842001I70321J-8352D01*
G01X6221785Y5792288D01*
G03X6403412Y5792288I90814J0D01*
G01X6403412Y5882288D01*
G03X6231399Y5922955I-90814J0D01*
G03X6098767Y5897659I-62311J-33648D01*
G01X6149594Y4262336D02*
G03X6282211Y4237020I70320J8357D01*
G03X6454212Y4277712I81187J40692D01*
G01X6454212Y4367712D01*
G03X6272585Y4367712I-90814J0D01*
G01X6272585Y4318027D01*
G03X6149594Y4262336I-52671J-47335D01*
G01X6408412Y6227303D02*
G01X6408412Y6287303D01*
G03X6216785Y6287303I-95814J0D01*
G01X6216785Y6227303D01*
G03X6408412Y6227303I95814J0D01*
G01X7241188Y5628712D02*
G01X7151188Y5628712D01*
G03X7151188Y5447085I0J-90814D01*
G01X7200873Y5447085D01*
G03X7256564Y5324094I47335J-52671D01*
G03X7281880Y5456711I-8357J70320D01*
G03X7241188Y5628712I-40692J81187D01*
G01X7151188Y4763715D02*
G03X7151188Y4582088I0J-90814D01*
G01X7241188Y4582088D01*
G03X7281855Y4754101I0J90814D01*
G03X7256559Y4886733I-33648J62311D01*
G03X7200901Y4763715I-8352J-70321D01*
G01X7151188Y4763715D01*
G01X7372586Y6197600D02*
G03X7664214Y6197600I145814J0D01*
G03X7372586Y6197600I-145814J0D01*
G01X7372586Y3992196D02*
G03X7664214Y3992196I145814J0D01*
G03X7372586Y3992196I-145814J0D01*
G54D11*
G01X3602347Y6257303D02*
G01X3628255Y6257303D01*
G01X3482856Y6257303D02*
G01X3456948Y6257303D01*
G01X3542602Y6167557D02*
G01X3542602Y6141649D01*
G01X3542602Y6347049D02*
G01X3542602Y6372957D01*
G01X3597347Y5837288D02*
G01X3623255Y5837288D01*
G01X3487856Y5837288D02*
G01X3461948Y5837288D01*
G01X3542602Y5737543D02*
G01X3542602Y5711635D01*
G01X3542602Y5937034D02*
G01X3542602Y5962942D01*
G01X3538656Y4310012D02*
G01X3512748Y4310012D01*
G01X3648147Y4310012D02*
G01X3674055Y4310012D01*
G01X3593402Y4409758D02*
G01X3593402Y4435666D01*
G01X3593402Y4210266D02*
G01X3593402Y4184358D01*
G01X3533656Y3889997D02*
G01X3507748Y3889997D01*
G01X3653147Y3889997D02*
G01X3679055Y3889997D01*
G01X3593402Y3979743D02*
G01X3593402Y4005651D01*
G01X4462344Y5837288D02*
G01X4488252Y5837288D01*
G01X4352853Y5837288D02*
G01X4326945Y5837288D01*
G01X4407599Y5737543D02*
G01X4407599Y5711635D01*
G01X4407599Y5937034D02*
G01X4407599Y5962942D01*
G01X4467344Y6257303D02*
G01X4493252Y6257303D01*
G01X4347853Y6257303D02*
G01X4321945Y6257303D01*
G01X4407599Y6167557D02*
G01X4407599Y6141649D01*
G01X4407599Y6347049D02*
G01X4407599Y6372957D01*
G01X4398653Y3889997D02*
G01X4372745Y3889997D01*
G01X4518144Y3889997D02*
G01X4544052Y3889997D01*
G01X4458399Y3979743D02*
G01X4458399Y4005651D01*
G01X4403653Y4310012D02*
G01X4377745Y4310012D01*
G01X4513144Y4310012D02*
G01X4539052Y4310012D01*
G01X4458399Y4409758D02*
G01X4458399Y4435666D01*
G01X4458399Y4210266D02*
G01X4458399Y4184358D01*
G01X5502347Y5837288D02*
G01X5528255Y5837288D01*
G01X5392856Y5837288D02*
G01X5366948Y5837288D01*
G01X5447602Y5737543D02*
G01X5447602Y5711635D01*
G01X5447602Y5937034D02*
G01X5447602Y5962942D01*
G01X5507347Y6257303D02*
G01X5533255Y6257303D01*
G01X5387856Y6257303D02*
G01X5361948Y6257303D01*
G01X5447602Y6167557D02*
G01X5447602Y6141649D01*
G01X5447602Y6347049D02*
G01X5447602Y6372957D01*
G01X5438656Y3902697D02*
G01X5412748Y3902697D01*
G01X5558147Y3902697D02*
G01X5584055Y3902697D01*
G01X5498402Y3992443D02*
G01X5498402Y4018351D01*
G01X5443656Y4322712D02*
G01X5417748Y4322712D01*
G01X5553147Y4322712D02*
G01X5579055Y4322712D01*
G01X5498402Y4422458D02*
G01X5498402Y4448366D01*
G01X5498402Y4222966D02*
G01X5498402Y4197058D01*
G01X6372344Y6257303D02*
G01X6398252Y6257303D01*
G01X6252853Y6257303D02*
G01X6226945Y6257303D01*
G01X6312599Y6167557D02*
G01X6312599Y6141649D01*
G01X6312599Y6347049D02*
G01X6312599Y6372957D01*
G01X6367344Y5837288D02*
G01X6393252Y5837288D01*
G01X6257853Y5837288D02*
G01X6231945Y5837288D01*
G01X6312599Y5737543D02*
G01X6312599Y5711635D01*
G01X6312599Y5937034D02*
G01X6312599Y5962942D01*
G01X6308653Y4322712D02*
G01X6282745Y4322712D01*
G01X6418144Y4322712D02*
G01X6444052Y4322712D01*
G01X6363399Y4422458D02*
G01X6363399Y4448366D01*
G01X6363399Y4222966D02*
G01X6363399Y4197058D01*
G01X6303653Y3902697D02*
G01X6277745Y3902697D01*
G01X6423144Y3902697D02*
G01X6449052Y3902697D01*
G01X6363399Y3992443D02*
G01X6363399Y4018351D01*
G01X7196188Y4618156D02*
G01X7196188Y4592248D01*
G01X7196188Y4727647D02*
G01X7196188Y4753555D01*
G01X7096443Y4672902D02*
G01X7070535Y4672902D01*
G01X7295934Y4672902D02*
G01X7321842Y4672902D01*
G01X7196188Y5483153D02*
G01X7196188Y5457245D01*
G01X7196188Y5592644D02*
G01X7196188Y5618552D01*
G01X7096443Y5537899D02*
G01X7070535Y5537899D01*
G01X7295934Y5537899D02*
G01X7321842Y5537899D01*
G01X7616203Y5478153D02*
G01X7616203Y5452245D01*
G01X7616203Y5597644D02*
G01X7616203Y5623552D01*
G01X7526457Y5537899D02*
G01X7500549Y5537899D01*
G01X7616203Y4613156D02*
G01X7616203Y4587248D01*
G01X7616203Y4732647D02*
G01X7616203Y4758555D01*
G01X7526457Y4672902D02*
G01X7500549Y4672902D01*
G04 Copper End*

G04 Pad Start*
G54D12*
G01X4407599Y5837288D03*
G01X3542602Y5837288D03*
G54D13*
G01X4407599Y6257303D03*
G01X3542602Y6257303D03*
G54D12*
G01X6312599Y5837288D03*
G01X5447602Y5837288D03*
G54D13*
G01X6312599Y6257303D03*
G01X5447602Y6257303D03*
G54D12*
G01X3593402Y4310012D03*
G01X4458399Y4310012D03*
G54D13*
G01X3593402Y3889997D03*
G01X4458399Y3889997D03*
G54D14*
G01X7196188Y4672902D03*
G01X7196188Y5537899D03*
G54D15*
G01X7616203Y4672902D03*
G01X7616203Y5537899D03*
G54D12*
G01X5498402Y4322712D03*
G01X6363399Y4322712D03*
G54D13*
G01X5498402Y3902697D03*
G01X6363399Y3902697D03*
G04 Pad End*

G04 Via Start*
G54D17*
G01X5384202Y4897440D03*
G01X5384490Y4821240D03*
G01X5799617Y5674380D03*
G01X5875817Y5674380D03*
G01X6781800Y4851400D03*
G01X6616700Y5270500D03*
G01X6604000Y5422900D03*
G01X6172200Y5270500D03*
G01X5715000Y5334000D03*
G01X5803900Y5029200D03*
G01X5499100Y4597400D03*
G01X3530600Y5422900D03*
G01X3606800Y4659005D03*
G01X4368800Y4991100D03*
G01X4826000Y5048408D03*
G01X5384800Y5201996D03*
G01X3937394Y5969000D03*
G01X4165600Y5969000D03*
G01X5308600Y4597400D03*
G01X5092700Y4381500D03*
G04 Via End*

G04 Track Start*
G54D11*
G01X5384490Y4821240D02*
G01X5440390Y4821240D01*
G01X5458170Y4839020D01*
G01X5456662Y4879660D02*
G01X5880100Y4879660D01*
G01X5898061Y4897620D01*
G01X5898061Y5265239D01*
G01X5896934Y4839020D02*
G01X5938701Y4880787D01*
G01X5938701Y5282073D01*
G01X5858037Y5362737D01*
G01X5817397Y5345903D02*
G01X5817397Y5600700D01*
G01X5858037Y5362737D02*
G01X5858037Y5600700D01*
G01X5799617Y5618480D02*
G01X5799617Y5674380D01*
G01X5875817Y5618480D02*
G01X5875817Y5674380D01*
G01X5817397Y5600700D02*
G01X5799617Y5618480D01*
G01X5858037Y5600700D02*
G01X5875817Y5618480D01*
G01X5458170Y4839020D02*
G01X5896934Y4839020D01*
G01X5898061Y5265239D02*
G01X5817397Y5345903D01*
G01X5384202Y4897440D02*
G01X5438882Y4897440D01*
G01X5456662Y4879660D01*
G01X3937394Y5969000D02*
G01X4165600Y5969000D01*
G01X5308600Y4597400D02*
G01X5092700Y4381500D01*
G04 Track End*

M02*

