G04 Layer: BottomSilkscreenLayer*
G04 EasyEDA Pro v2.2.47.7, 2026-05-31 17:46:15*
G04 Gerber Generator version 0.3*
G04 Scale: 100 percent, Rotated: No, Reflected: No*
G04 Dimensions in millimeters*
G04 Leading zeros omitted, absolute positions, 4 integers and 5 decimals*
G04 Generated by one-click*
G04 Object Configs: Pad,Via,Track,Text,Image,Dimension,BoardOutline,BoardCutout,CopperFilled,SolidRegion,FPCStiffener,Line,PlaneZone,ComponentProperty,ComponentSilkscreen,TearDrop*
G04 Layer Configs: 1,2,3,4,5,6,7,8,9,10,11,13,14,56*
G04 Copper Areas: 0*
%FSLAX45Y45*%
%MOMM*%
%ADD10C,0.254*%
%ADD11C,0.0894*%
G75*


G04 Text Start*
G36*
G01X4739871Y5095471D02*
G01X4735253Y5094547D01*
G01X4731096Y5094085D01*
G01X4727864Y5093624D01*
G01X4715394Y5093162D01*
G01X4702002Y5093624D01*
G01X4693689Y5094547D01*
G01X4684453Y5096856D01*
G01X4678449Y5098242D01*
G01X4669213Y5101013D01*
G01X4665056Y5102398D01*
G01X4657667Y5105169D01*
G01X4653973Y5107016D01*
G01X4645660Y5110711D01*
G01X4641966Y5112558D01*
G01X4640118Y5116714D01*
G01X4639656Y5132878D01*
G01X4640003Y5142923D01*
G01X4641042Y5147194D01*
G01X4642312Y5147887D01*
G01X4643351Y5147194D01*
G01X4647969Y5143500D01*
G01X4650740Y5141191D01*
G01X4654434Y5138882D01*
G01X4658591Y5136111D01*
G01X4665980Y5131493D01*
G01X4669674Y5129645D01*
G01X4672907Y5128260D01*
G01X4677064Y5126413D01*
G01X4681220Y5125027D01*
G01X4684914Y5123642D01*
G01X4688609Y5122718D01*
G01X4691842Y5122256D01*
G01X4700154Y5120409D01*
G01X4709391Y5119485D01*
G01X4719089Y5119024D01*
G01X4728787Y5119485D01*
G01X4732482Y5119947D01*
G01X4736638Y5120871D01*
G01X4741718Y5122256D01*
G01X4746336Y5123642D01*
G01X4754649Y5127336D01*
G01X4758344Y5129645D01*
G01X4761576Y5131954D01*
G01X4763886Y5133802D01*
G01X4767580Y5136573D01*
G01X4770813Y5139805D01*
G01X4776354Y5147194D01*
G01X4780973Y5154584D01*
G01X4782820Y5158278D01*
G01X4786514Y5166591D01*
G01X4787900Y5170747D01*
G01X4788824Y5173980D01*
G01X4789747Y5177674D01*
G01X4791133Y5182754D01*
G01X4792056Y5188296D01*
G01X4792518Y5192453D01*
G01X4792980Y5209540D01*
G01X4792518Y5226627D01*
G01X4792056Y5229860D01*
G01X4791133Y5233554D01*
G01X4790209Y5237711D01*
G01X4789747Y5241405D01*
G01X4786514Y5251104D01*
G01X4784667Y5255722D01*
G01X4782820Y5259878D01*
G01X4780511Y5264034D01*
G01X4777740Y5268191D01*
G01X4775431Y5271424D01*
G01X4773584Y5273733D01*
G01X4768966Y5278351D01*
G01X4765733Y5281122D01*
G01X4762500Y5283431D01*
G01X4760191Y5285278D01*
G01X4756958Y5287587D01*
G01X4750493Y5290820D01*
G01X4747260Y5292205D01*
G01X4743566Y5293591D01*
G01X4740333Y5294514D01*
G01X4737100Y5294976D01*
G01X4732482Y5296362D01*
G01X4715856Y5297285D01*
G01X4701078Y5296824D01*
G01X4697384Y5295900D01*
G01X4691842Y5294976D01*
G01X4686762Y5293591D01*
G01X4682606Y5292205D01*
G01X4678911Y5290820D01*
G01X4672446Y5288049D01*
G01X4665056Y5284354D01*
G01X4657667Y5279736D01*
G01X4651202Y5275118D01*
G01X4647507Y5272347D01*
G01X4643351Y5269576D01*
G01X4641734Y5269230D01*
G01X4640580Y5270038D01*
G01X4639656Y5286202D01*
G01X4640003Y5297747D01*
G01X4641042Y5302827D01*
G01X4644274Y5305136D01*
G01X4647507Y5306522D01*
G01X4655820Y5310216D01*
G01X4659053Y5311602D01*
G01X4666442Y5314373D01*
G01X4669674Y5315296D01*
G01X4673831Y5316682D01*
G01X4678911Y5318067D01*
G01X4683529Y5318991D01*
G01X4689071Y5320376D01*
G01X4694151Y5321300D01*
G01X4697384Y5321762D01*
G01X4702926Y5322685D01*
G01X4718627Y5323147D01*
G01X4731558Y5322685D01*
G01X4737100Y5321762D01*
G01X4744027Y5320376D01*
G01X4749569Y5318991D01*
G01X4757882Y5316220D01*
G01X4761576Y5314834D01*
G01X4768042Y5312064D01*
G01X4770351Y5310678D01*
G01X4773122Y5309293D01*
G01X4776354Y5307445D01*
G01X4780049Y5305136D01*
G01X4783282Y5302827D01*
G01X4786976Y5300056D01*
G01X4799446Y5287587D01*
G01X4801754Y5284354D01*
G01X4807296Y5276042D01*
G01X4809144Y5272809D01*
G01X4812376Y5266344D01*
G01X4814224Y5262187D01*
G01X4816071Y5257569D01*
G01X4817918Y5252489D01*
G01X4819304Y5247409D01*
G01X4820227Y5243253D01*
G01X4821151Y5239558D01*
G01X4822074Y5234016D01*
G01X4822998Y5229398D01*
G01X4823922Y5221085D01*
G01X4824384Y5205845D01*
G01X4823922Y5190605D01*
G01X4822998Y5183216D01*
G01X4822074Y5178598D01*
G01X4821151Y5173056D01*
G01X4819304Y5165667D01*
G01X4817918Y5161973D01*
G01X4816533Y5157816D01*
G01X4815147Y5154122D01*
G01X4813762Y5150889D01*
G01X4812376Y5147194D01*
G01X4806834Y5137496D01*
G01X4803140Y5131954D01*
G01X4796213Y5123642D01*
G01X4791594Y5119024D01*
G01X4787900Y5116253D01*
G01X4783744Y5113020D01*
G01X4780511Y5110711D01*
G01X4777740Y5108864D01*
G01X4774046Y5107016D01*
G01X4770813Y5105169D01*
G01X4768042Y5103784D01*
G01X4764809Y5102398D01*
G01X4757420Y5099627D01*
G01X4753264Y5098242D01*
G01X4749107Y5097318D01*
G01X4745413Y5096394D01*
G01X4739871Y5095471D01*
G37*
G36*
G01X4490489Y5318529D02*
G01X4491528Y5290358D01*
G01X4491874Y5207693D01*
G01X4490951Y5097318D01*
G01X4476634Y5096856D01*
G01X4463242Y5096856D01*
G01X4462780Y5099165D01*
G01X4462318Y5153198D01*
G01X4461972Y5192106D01*
G01X4460933Y5205384D01*
G01X4458162Y5205384D01*
G01X4405514Y5204922D01*
G01X4352867Y5205384D01*
G01X4351828Y5192222D01*
G01X4351482Y5151813D01*
G01X4351482Y5097780D01*
G01X4348249Y5097318D01*
G01X4334394Y5096856D01*
G01X4326197Y5097203D01*
G01X4322849Y5098242D01*
G01X4321926Y5209078D01*
G01X4321926Y5318529D01*
G01X4326082Y5318991D01*
G01X4339936Y5319453D01*
G01X4347441Y5319106D01*
G01X4350558Y5318067D01*
G01X4351482Y5274656D01*
G01X4351482Y5232631D01*
G01X4461394Y5232631D01*
G01X4461856Y5234940D01*
G01X4462318Y5277889D01*
G01X4462318Y5318529D01*
G01X4465551Y5318991D01*
G01X4478944Y5319453D01*
G01X4490489Y5318529D01*
G37*
G36*
G01X4014354Y5094085D02*
G01X4011122Y5093624D01*
G01X4005580Y5093162D01*
G01X4000962Y5092700D01*
G01X3997267Y5092238D01*
G01X3983413Y5093624D01*
G01X3973714Y5096856D01*
G01X3969096Y5099165D01*
G01X3961707Y5103784D01*
G01X3958474Y5106093D01*
G01X3954780Y5108864D01*
G01X3949238Y5114405D01*
G01X3943696Y5120871D01*
G01X3941849Y5123180D01*
G01X3940464Y5125951D01*
G01X3938616Y5129184D01*
G01X3934922Y5136573D01*
G01X3933074Y5140729D01*
G01X3931227Y5145347D01*
G01X3929842Y5150427D01*
G01X3928918Y5154584D01*
G01X3927994Y5158278D01*
G01X3927071Y5163820D01*
G01X3926147Y5168438D01*
G01X3925839Y5179522D01*
G01X3955242Y5179522D01*
G01X3955704Y5162896D01*
G01X3957551Y5153660D01*
G01X3958474Y5150427D01*
G01X3961246Y5143038D01*
G01X3962631Y5139805D01*
G01X3964478Y5137034D01*
G01X3967249Y5133340D01*
G01X3971406Y5129645D01*
G01X3974638Y5126874D01*
G01X3977409Y5125027D01*
G01X3981104Y5123180D01*
G01X3985722Y5121333D01*
G01X3990340Y5119947D01*
G01X3995420Y5119024D01*
G01X3995420Y5119024D01*
G01X4000038Y5118562D01*
G01X4006966Y5118100D01*
G01X4012969Y5118562D01*
G01X4017126Y5119024D01*
G01X4022667Y5119947D01*
G01X4026362Y5120871D01*
G01X4029594Y5121333D01*
G01X4033289Y5122718D01*
G01X4037907Y5124565D01*
G01X4042064Y5126874D01*
G01X4043449Y5139690D01*
G01X4043911Y5175365D01*
G01X4043564Y5210925D01*
G01X4042526Y5223394D01*
G01X4039293Y5225704D01*
G01X4035136Y5228474D01*
G01X4030980Y5230784D01*
G01X4023591Y5234478D01*
G01X4019434Y5236325D01*
G01X4015278Y5237711D01*
G01X4012046Y5238634D01*
G01X4008351Y5239558D01*
G01X4003733Y5240020D01*
G01X4000038Y5240482D01*
G01X3996344Y5241405D01*
G01X3992649Y5241405D01*
G01X3988031Y5240482D01*
G01X3982489Y5239558D01*
G01X3978794Y5238173D01*
G01X3976024Y5236787D01*
G01X3972791Y5234940D01*
G01X3969558Y5232631D01*
G01X3967711Y5230322D01*
G01X3966326Y5228013D01*
G01X3964016Y5224780D01*
G01X3961707Y5220162D01*
G01X3959860Y5216005D01*
G01X3957089Y5205845D01*
G01X3956166Y5200765D01*
G01X3955704Y5196147D01*
G01X3955242Y5179522D01*
G01X3925839Y5179522D01*
G01X3925686Y5185064D01*
G01X3926147Y5201689D01*
G01X3927071Y5205384D01*
G01X3927533Y5209540D01*
G01X3929842Y5218776D01*
G01X3931227Y5223856D01*
G01X3933998Y5231245D01*
G01X3935846Y5234478D01*
G01X3938154Y5238634D01*
G01X3940926Y5243253D01*
G01X3944158Y5247871D01*
G01X3952009Y5255722D01*
G01X3955242Y5258031D01*
G01X3959398Y5260340D01*
G01X3966787Y5264034D01*
G01X3971867Y5265882D01*
G01X3977871Y5267267D01*
G01X3983874Y5267729D01*
G01X3988031Y5268191D01*
G01X3991264Y5268653D01*
G01X3994496Y5268191D01*
G01X4004656Y5267267D01*
G01X4008813Y5265882D01*
G01X4013431Y5264496D01*
G01X4016664Y5263111D01*
G01X4023129Y5259878D01*
G01X4031442Y5255260D01*
G01X4040678Y5248794D01*
G01X4042526Y5248102D01*
G01X4043449Y5248794D01*
G01X4043911Y5289434D01*
G01X4043911Y5328689D01*
G01X4048067Y5329151D01*
G01X4060998Y5329613D01*
G01X4067810Y5329266D01*
G01X4070696Y5328227D01*
G01X4071620Y5212311D01*
G01X4071620Y5097780D01*
G01X4069311Y5097318D01*
G01X4057304Y5096856D01*
G01X4049684Y5097318D01*
G01X4046220Y5098704D01*
G01X4044373Y5102398D01*
G01X4043449Y5103668D01*
G01X4041602Y5103784D01*
G01X4038369Y5102398D01*
G01X4035598Y5101013D01*
G01X4032366Y5099627D01*
G01X4024976Y5096856D01*
G01X4021744Y5095933D01*
G01X4014354Y5094085D01*
G37*
G36*
G01X4235104Y5097318D02*
G01X4230947Y5095471D01*
G01X4227253Y5094547D01*
G01X4224482Y5093624D01*
G01X4211089Y5093162D01*
G01X4197696Y5093624D01*
G01X4193078Y5094547D01*
G01X4187998Y5095933D01*
G01X4183842Y5097780D01*
G01X4179224Y5099627D01*
G01X4175529Y5101474D01*
G01X4169987Y5105169D01*
G01X4166293Y5107478D01*
G01X4162136Y5110249D01*
G01X4158904Y5112558D01*
G01X4156133Y5113944D01*
G01X4155209Y5113482D01*
G01X4155209Y5111173D01*
G01X4155671Y5103322D01*
G01X4155209Y5099627D01*
G01X4153824Y5097780D01*
G01X4139969Y5096856D01*
G01X4127962Y5096856D01*
G01X4127500Y5099165D01*
G01X4127038Y5182754D01*
G01X4127038Y5264034D01*
G01X4154747Y5264034D01*
G01X4155209Y5261725D01*
G01X4155671Y5198918D01*
G01X4156017Y5153429D01*
G01X4157056Y5137958D01*
G01X4160751Y5135649D01*
G01X4165369Y5132416D01*
G01X4169987Y5130107D01*
G01X4176453Y5126413D01*
G01X4180609Y5124565D01*
G01X4188922Y5121794D01*
G01X4193078Y5120871D01*
G01X4196773Y5120409D01*
G01X4205086Y5119947D01*
G01X4213398Y5120409D01*
G01X4217554Y5121333D01*
G01X4221711Y5122718D01*
G01X4224482Y5124104D01*
G01X4226791Y5125951D01*
G01X4229100Y5128260D01*
G01X4230947Y5130569D01*
G01X4232333Y5133340D01*
G01X4234180Y5137496D01*
G01X4235566Y5143500D01*
G01X4237413Y5154584D01*
G01X4237874Y5210464D01*
G01X4237874Y5263111D01*
G01X4240184Y5263573D01*
G01X4254038Y5264034D01*
G01X4265584Y5264034D01*
G01X4266046Y5260802D01*
G01X4266507Y5201689D01*
G01X4266046Y5144424D01*
G01X4265122Y5139805D01*
G01X4263736Y5133340D01*
G01X4262351Y5127336D01*
G01X4260966Y5123180D01*
G01X4259118Y5119485D01*
G01X4257271Y5116253D01*
G01X4255424Y5113482D01*
G01X4253114Y5110711D01*
G01X4247111Y5104707D01*
G01X4243878Y5101936D01*
G01X4239260Y5099627D01*
G01X4235104Y5097318D01*
G37*
G36*
G01X5052522Y5095933D02*
G01X5042824Y5094547D01*
G01X5038206Y5094085D01*
G01X5034511Y5093624D01*
G01X5027584Y5093162D01*
G01X5019733Y5093624D01*
G01X5008649Y5094547D01*
G01X5001260Y5095471D01*
G01X4991562Y5098704D01*
G01X4986482Y5100089D01*
G01X4982326Y5101474D01*
G01X4974936Y5104245D01*
G01X4970318Y5106093D01*
G01X4966624Y5108402D01*
G01X4965700Y5123180D01*
G01X4966046Y5133455D01*
G01X4967086Y5137496D01*
G01X4968356Y5137843D01*
G01X4971704Y5135187D01*
G01X4978169Y5131954D01*
G01X4984634Y5128260D01*
G01X4989253Y5126413D01*
G01X4994333Y5124565D01*
G01X4998489Y5122718D01*
G01X5003107Y5121333D01*
G01X5012344Y5119485D01*
G01X5018809Y5118562D01*
G01X5028969Y5118100D01*
G01X5037282Y5118562D01*
G01X5044671Y5119485D01*
G01X5049289Y5120871D01*
G01X5053907Y5122718D01*
G01X5057602Y5124565D01*
G01X5061758Y5126874D01*
G01X5064991Y5129184D01*
G01X5069609Y5132878D01*
G01X5072380Y5136111D01*
G01X5076998Y5142576D01*
G01X5079307Y5147194D01*
G01X5081154Y5151351D01*
G01X5083002Y5156431D01*
G01X5084387Y5162896D01*
G01X5085311Y5170285D01*
G01X5085311Y5175827D01*
G01X5069840Y5176866D01*
G01X5024351Y5177213D01*
G01X4963853Y5177213D01*
G01X4963391Y5179522D01*
G01X4962929Y5188758D01*
G01X4963391Y5197071D01*
G01X4963545Y5199380D01*
G01X4990638Y5199380D01*
G01X5037744Y5199380D01*
G01X5085311Y5199842D01*
G01X5085311Y5202613D01*
G01X5084387Y5207693D01*
G01X5083002Y5212311D01*
G01X5081616Y5216005D01*
G01X5080231Y5219238D01*
G01X5078384Y5222471D01*
G01X5075613Y5226627D01*
G01X5068686Y5233554D01*
G01X5066376Y5235402D01*
G01X5063144Y5237711D01*
G01X5058526Y5240020D01*
G01X5054369Y5241867D01*
G01X5050674Y5242791D01*
G01X5040976Y5244176D01*
G01X5033587Y5244638D01*
G01X5026198Y5244176D01*
G01X5022504Y5243714D01*
G01X5018347Y5242791D01*
G01X5014191Y5241405D01*
G01X5010496Y5240020D01*
G01X5007726Y5238173D01*
G01X5004031Y5235402D01*
G01X5001260Y5232169D01*
G01X4999874Y5229860D01*
G01X4997566Y5226627D01*
G01X4995256Y5221547D01*
G01X4993871Y5217391D01*
G01X4992947Y5213696D01*
G01X4992024Y5208154D01*
G01X4991100Y5202151D01*
G01X4991100Y5202151D01*
G01X4990638Y5199380D01*
G01X4963545Y5199380D01*
G01X4964314Y5210925D01*
G01X4964776Y5214158D01*
G01X4965700Y5217391D01*
G01X4968471Y5226627D01*
G01X4969856Y5230322D01*
G01X4971704Y5234478D01*
G01X4974013Y5238634D01*
G01X4975860Y5241867D01*
G01X4978631Y5245100D01*
G01X4986482Y5252951D01*
G01X4988791Y5254798D01*
G01X4992024Y5257107D01*
G01X4996180Y5259878D01*
G01X4999874Y5261725D01*
G01X5007264Y5264496D01*
G01X5010496Y5265420D01*
G01X5014191Y5266344D01*
G01X5020656Y5267267D01*
G01X5026660Y5267729D01*
G01X5029893Y5268191D01*
G01X5034973Y5268653D01*
G01X5040053Y5268191D01*
G01X5049289Y5267267D01*
G01X5054369Y5266344D01*
G01X5059449Y5264958D01*
G01X5063144Y5263573D01*
G01X5067300Y5262187D01*
G01X5071456Y5260340D01*
G01X5074689Y5258493D01*
G01X5077922Y5256184D01*
G01X5081616Y5253874D01*
G01X5086234Y5250180D01*
G01X5093162Y5243253D01*
G01X5095933Y5239558D01*
G01X5099166Y5234940D01*
G01X5101936Y5230784D01*
G01X5104246Y5226627D01*
G01X5107940Y5218314D01*
G01X5109787Y5213234D01*
G01X5111173Y5207231D01*
G01X5112096Y5202613D01*
G01X5113944Y5194300D01*
G01X5114406Y5178598D01*
G01X5113944Y5162896D01*
G01X5113020Y5159202D01*
G01X5112096Y5154584D01*
G01X5110711Y5149042D01*
G01X5108864Y5143038D01*
G01X5107016Y5138882D01*
G01X5103322Y5131493D01*
G01X5101013Y5127798D01*
G01X5097780Y5123180D01*
G01X5094547Y5119947D01*
G01X5090853Y5115329D01*
G01X5087158Y5112558D01*
G01X5083002Y5109325D01*
G01X5078846Y5106554D01*
G01X5074689Y5104245D01*
G01X5071456Y5102398D01*
G01X5064067Y5099627D01*
G01X5055754Y5096856D01*
G01X5052522Y5095933D01*
G37*
G36*
G01X6444904Y5096856D02*
G01X6440747Y5095933D01*
G01X6436591Y5095471D01*
G01X6433358Y5094547D01*
G01X6422736Y5094085D01*
G01X6412576Y5094547D01*
G01X6405187Y5095471D01*
G01X6401031Y5095933D01*
G01X6396413Y5096856D01*
G01X6392718Y5098242D01*
G01X6391217Y5099165D01*
G01X6390409Y5101013D01*
G01X6389947Y5113020D01*
G01X6390409Y5120409D01*
G01X6391794Y5123180D01*
G01X6395027Y5123180D01*
G01X6399184Y5121794D01*
G01X6404264Y5120409D01*
G01X6408882Y5119485D01*
G01X6418580Y5119024D01*
G01X6427354Y5119485D01*
G01X6431511Y5120409D01*
G01X6435206Y5121794D01*
G01X6437514Y5123642D01*
G01X6439824Y5125951D01*
G01X6441671Y5128260D01*
G01X6443518Y5131493D01*
G01X6445366Y5135649D01*
G01X6446289Y5139805D01*
G01X6446751Y5143500D01*
G01X6447674Y5148118D01*
G01X6448136Y5195685D01*
G01X6448136Y5240020D01*
G01X6443980Y5239558D01*
G01X6416271Y5239096D01*
G01X6398260Y5239443D01*
G01X6391333Y5240482D01*
G01X6390294Y5244176D01*
G01X6389947Y5252489D01*
G01X6389947Y5263111D01*
G01X6393180Y5263573D01*
G01X6422274Y5264034D01*
G01X6448136Y5264034D01*
G01X6448136Y5311140D01*
G01X6450446Y5311602D01*
G01X6463838Y5312064D01*
G01X6474922Y5312064D01*
G01X6475384Y5309754D01*
G01X6475846Y5285740D01*
G01X6475846Y5264034D01*
G01X6494318Y5264034D01*
G01X6494780Y5261725D01*
G01X6495242Y5249718D01*
G01X6495242Y5240020D01*
G01X6491086Y5239558D01*
G01X6481387Y5239096D01*
G01X6475846Y5239096D01*
G01X6475846Y5188296D01*
G01X6475384Y5136111D01*
G01X6474922Y5132878D01*
G01X6473998Y5129184D01*
G01X6472613Y5124565D01*
G01X6471227Y5120409D01*
G01X6469380Y5116714D01*
G01X6467533Y5113482D01*
G01X6465686Y5111173D01*
G01X6463376Y5108402D01*
G01X6460606Y5106093D01*
G01X6458296Y5103784D01*
G01X6455987Y5101936D01*
G01X6452293Y5100089D01*
G01X6448136Y5098242D01*
G01X6444904Y5096856D01*
G37*
G36*
G01X6666576Y5109325D02*
G01X6667962Y5107016D01*
G01X6673504Y5100089D01*
G01X6674427Y5097780D01*
G01X6659187Y5096856D01*
G01X6643947Y5096856D01*
G01X6642100Y5099165D01*
G01X6639329Y5102398D01*
G01X6634711Y5108864D01*
G01X6631016Y5113482D01*
G01X6628707Y5116714D01*
G01X6625474Y5121333D01*
G01X6622242Y5125489D01*
G01X6619933Y5128722D01*
G01X6614391Y5136111D01*
G01X6612544Y5138420D01*
G01X6607926Y5144885D01*
G01X6606078Y5147194D01*
G01X6600536Y5154584D01*
G01X6597766Y5157816D01*
G01X6596034Y5159086D01*
G01X6594533Y5159202D01*
G01X6592686Y5157354D01*
G01X6591300Y5155045D01*
G01X6586682Y5148580D01*
G01X6584834Y5146271D01*
G01X6580216Y5139805D01*
G01X6576522Y5135187D01*
G01X6571904Y5128722D01*
G01X6568209Y5124104D01*
G01X6565900Y5120871D01*
G01X6563129Y5116714D01*
G01X6560820Y5113482D01*
G01X6558973Y5111173D01*
G01X6550660Y5100089D01*
G01X6546504Y5097318D01*
G01X6529416Y5096856D01*
G01X6514176Y5097780D01*
G01X6515100Y5099627D01*
G01X6516947Y5101936D01*
G01X6518333Y5104245D01*
G01X6520180Y5106554D01*
G01X6522951Y5110249D01*
G01X6526184Y5114405D01*
G01X6528493Y5117638D01*
G01X6535882Y5126874D01*
G01X6538653Y5130569D01*
G01X6546042Y5139805D01*
G01X6548813Y5143500D01*
G01X6552507Y5148118D01*
G01X6557126Y5154584D01*
G01X6562667Y5161511D01*
G01X6564976Y5164744D01*
G01X6567747Y5167976D01*
G01X6570056Y5170747D01*
G01X6571904Y5173518D01*
G01X6573751Y5175827D01*
G01X6576060Y5178136D01*
G01X6577446Y5181369D01*
G01X6576060Y5184602D01*
G01X6573751Y5187373D01*
G01X6571904Y5190144D01*
G01X6570056Y5192453D01*
G01X6567747Y5194762D01*
G01X6565900Y5197071D01*
G01X6564514Y5199380D01*
G01X6555278Y5210925D01*
G01X6552507Y5214620D01*
G01X6548813Y5219238D01*
G01X6546042Y5222471D01*
G01X6544194Y5224780D01*
G01X6541424Y5228474D01*
G01X6538653Y5231707D01*
G01X6525722Y5247871D01*
G01X6522951Y5251565D01*
G01X6519256Y5256184D01*
G01X6516486Y5259878D01*
G01X6514176Y5262187D01*
G01X6513946Y5262995D01*
G01X6516024Y5263573D01*
G01X6532187Y5264034D01*
G01X6545118Y5264034D01*
G01X6550660Y5257107D01*
G01X6553893Y5252951D01*
G01X6556664Y5248794D01*
G01X6558973Y5245562D01*
G01X6564514Y5238634D01*
G01X6570056Y5231245D01*
G01X6571904Y5228936D01*
G01X6576522Y5222471D01*
G01X6578369Y5220162D01*
G01X6581140Y5216467D01*
G01X6584373Y5211849D01*
G01X6586682Y5208616D01*
G01X6590376Y5203998D01*
G01X6592686Y5202613D01*
G01X6593956Y5202613D01*
G01X6594994Y5203536D01*
G01X6599613Y5210002D01*
G01X6602384Y5213696D01*
G01X6606078Y5218314D01*
G01X6608849Y5222009D01*
G01X6613467Y5228474D01*
G01X6616238Y5232169D01*
G01X6619471Y5236787D01*
G01X6622242Y5240020D01*
G01X6624089Y5242329D01*
G01X6625474Y5244638D01*
G01X6627322Y5246947D01*
G01X6638406Y5261725D01*
G01X6642562Y5263573D01*
G01X6659649Y5264034D01*
G01X6670040Y5263573D01*
G01X6673504Y5262187D01*
G01X6672118Y5259416D01*
G01X6669809Y5256645D01*
G01X6667962Y5253874D01*
G01X6666114Y5251565D01*
G01X6663344Y5247871D01*
G01X6660573Y5244638D01*
G01X6658726Y5242329D01*
G01X6644871Y5223856D01*
G01X6641176Y5219238D01*
G01X6635634Y5211849D01*
G01X6632864Y5208616D01*
G01X6631016Y5206307D01*
G01X6625474Y5198918D01*
G01X6621780Y5194300D01*
G01X6617162Y5187834D01*
G01X6614853Y5185525D01*
G01X6613006Y5183216D01*
G01X6612082Y5180445D01*
G01X6613467Y5176751D01*
G01X6617162Y5172133D01*
G01X6625474Y5161049D01*
G01X6632864Y5151813D01*
G01X6635173Y5149504D01*
G01X6637020Y5147194D01*
G01X6638406Y5144885D01*
G01X6640253Y5142576D01*
G01X6643024Y5138882D01*
G01X6646718Y5134264D01*
G01X6649489Y5130569D01*
G01X6653184Y5125951D01*
G01X6658726Y5118562D01*
G01X6662420Y5113944D01*
G01X6664729Y5111634D01*
G01X6666576Y5109325D01*
G37*
G36*
G01X6816206Y5095471D02*
G01X6808816Y5093624D01*
G01X6803736Y5093162D01*
G01X6800504Y5092700D01*
G01X6796347Y5092238D01*
G01X6791267Y5092700D01*
G01X6782031Y5093624D01*
G01X6773718Y5095471D01*
G01X6770024Y5096856D01*
G01X6765867Y5098704D01*
G01X6761249Y5100551D01*
G01X6757093Y5102398D01*
G01X6753398Y5104707D01*
G01X6749242Y5107478D01*
G01X6742776Y5112096D01*
G01X6740006Y5113020D01*
G01X6739082Y5105169D01*
G01X6739082Y5097780D01*
G01X6735849Y5097318D01*
G01X6722456Y5096856D01*
G01X6714606Y5097203D01*
G01X6711373Y5098242D01*
G01X6710449Y5155045D01*
G01X6710479Y5158740D01*
G01X6739082Y5158740D01*
G01X6739428Y5142692D01*
G01X6740467Y5137034D01*
G01X6743700Y5135187D01*
G01X6747856Y5132416D01*
G01X6751551Y5130107D01*
G01X6766329Y5122718D01*
G01X6770947Y5121333D01*
G01X6775566Y5120409D01*
G01X6775566Y5120409D01*
G01X6781107Y5119485D01*
G01X6791267Y5119024D01*
G01X6797733Y5119485D01*
G01X6800966Y5119947D01*
G01X6805122Y5120871D01*
G01X6808354Y5122256D01*
G01X6811126Y5123642D01*
G01X6813896Y5125489D01*
G01X6816667Y5127798D01*
G01X6818514Y5130569D01*
G01X6820362Y5134264D01*
G01X6821747Y5138882D01*
G01X6822671Y5143500D01*
G01X6823133Y5149504D01*
G01X6822671Y5154584D01*
G01X6821286Y5158740D01*
G01X6818514Y5163820D01*
G01X6815744Y5167514D01*
G01X6813434Y5169362D01*
G01X6811126Y5170747D01*
G01X6807893Y5173056D01*
G01X6803274Y5175365D01*
G01X6798194Y5177213D01*
G01X6791729Y5178598D01*
G01X6786649Y5179522D01*
G01X6780184Y5180445D01*
G01X6776489Y5181369D01*
G01X6770947Y5181831D01*
G01X6766329Y5182293D01*
G01X6755246Y5183216D01*
G01X6747856Y5183678D01*
G01X6740929Y5184140D01*
G01X6740121Y5183909D01*
G01X6739544Y5182293D01*
G01X6739082Y5158740D01*
G01X6710479Y5158740D01*
G01X6710911Y5211849D01*
G01X6711834Y5223856D01*
G01X6712758Y5228474D01*
G01X6714144Y5233554D01*
G01X6715991Y5237711D01*
G01X6718300Y5241867D01*
G01X6721071Y5246024D01*
G01X6723842Y5249256D01*
G01X6726151Y5251565D01*
G01X6728460Y5253413D01*
G01X6730769Y5254798D01*
G01X6736311Y5258493D01*
G01X6740006Y5260340D01*
G01X6744624Y5262187D01*
G01X6748780Y5263573D01*
G01X6756169Y5265420D01*
G01X6762634Y5266344D01*
G01X6769562Y5266805D01*
G01X6773718Y5267267D01*
G01X6785264Y5267729D01*
G01X6796809Y5267267D01*
G01X6806046Y5266344D01*
G01X6813434Y5265420D01*
G01X6819900Y5264496D01*
G01X6824056Y5263111D01*
G01X6830984Y5261725D01*
G01X6836526Y5259878D01*
G01X6837564Y5255606D01*
G01X6837911Y5245562D01*
G01X6836987Y5232169D01*
G01X6833754Y5232169D01*
G01X6825442Y5234940D01*
G01X6821747Y5235864D01*
G01X6812511Y5238634D01*
G01X6808816Y5239558D01*
G01X6804198Y5240482D01*
G01X6797733Y5241405D01*
G01X6790806Y5241867D01*
G01X6786649Y5242329D01*
G01X6780646Y5242791D01*
G01X6774642Y5242329D01*
G01X6764482Y5241405D01*
G01X6760326Y5240482D01*
G01X6755707Y5239096D01*
G01X6751551Y5236787D01*
G01X6747856Y5234478D01*
G01X6745086Y5231245D01*
G01X6742776Y5227551D01*
G01X6740929Y5223856D01*
G01X6739544Y5217391D01*
G01X6739082Y5210464D01*
G01X6739544Y5208385D01*
G01X6740929Y5207693D01*
G01X6744162Y5207231D01*
G01X6759864Y5206307D01*
G01X6766329Y5205384D01*
G01X6777413Y5204460D01*
G01X6787573Y5203536D01*
G01X6794962Y5202613D01*
G01X6799580Y5201689D01*
G01X6804660Y5200304D01*
G01X6813896Y5197533D01*
G01X6817591Y5196147D01*
G01X6820824Y5194762D01*
G01X6824518Y5192914D01*
G01X6827751Y5191067D01*
G01X6834678Y5186449D01*
G01X6840220Y5180907D01*
G01X6842529Y5178136D01*
G01X6844376Y5175365D01*
G01X6846224Y5172133D01*
G01X6848071Y5167976D01*
G01X6849456Y5164282D01*
G01X6850380Y5161049D01*
G01X6851304Y5157354D01*
G01X6851766Y5152274D01*
G01X6852689Y5143962D01*
G01X6852227Y5139805D01*
G01X6851304Y5132416D01*
G01X6849918Y5128722D01*
G01X6848071Y5123642D01*
G01X6845762Y5119024D01*
G01X6843453Y5115791D01*
G01X6840682Y5112096D01*
G01X6833293Y5104707D01*
G01X6830522Y5102398D01*
G01X6827289Y5100551D01*
G01X6819900Y5096856D01*
G01X6816206Y5095471D01*
G37*
G36*
G01X6961216Y5263688D02*
G01X6964449Y5262649D01*
G01X6965373Y5179522D01*
G01X6964449Y5097318D01*
G01X6950594Y5096856D01*
G01X6937664Y5096856D01*
G01X6937202Y5099165D01*
G01X6936740Y5158278D01*
G01X6936394Y5201112D01*
G01X6935354Y5216005D01*
G01X6933046Y5217853D01*
G01X6926580Y5222471D01*
G01X6923809Y5224318D01*
G01X6920576Y5226165D01*
G01X6916882Y5228474D01*
G01X6912726Y5230322D01*
G01X6909031Y5231707D01*
G01X6903951Y5233093D01*
G01X6894714Y5234940D01*
G01X6885016Y5235402D01*
G01X6877166Y5234940D01*
G01X6867929Y5234016D01*
G01X6863773Y5233093D01*
G01X6861002Y5232631D01*
G01X6861002Y5261264D01*
G01X6864234Y5262187D01*
G01X6870700Y5263573D01*
G01X6881784Y5264034D01*
G01X6891482Y5263111D01*
G01X6898871Y5261264D01*
G01X6903027Y5259878D01*
G01X6906722Y5258493D01*
G01X6910878Y5256645D01*
G01X6914573Y5254798D01*
G01X6917344Y5252951D01*
G01X6920576Y5251104D01*
G01X6924271Y5248794D01*
G01X6927504Y5246024D01*
G01X6929813Y5244176D01*
G01X6932122Y5242791D01*
G01X6934893Y5241405D01*
G01X6936740Y5240944D01*
G01X6936740Y5263111D01*
G01X6939973Y5263573D01*
G01X6953366Y5264034D01*
G01X6961216Y5263688D01*
G37*
G36*
G01X7159683Y5319106D02*
G01X7170420Y5318067D01*
G01X7171344Y5207231D01*
G01X7170882Y5097318D01*
G01X7125624Y5096856D01*
G01X7079442Y5097318D01*
G01X7062816Y5099165D01*
G01X7058198Y5100551D01*
G01X7052656Y5101936D01*
G01X7048962Y5103322D01*
G01X7042496Y5106093D01*
G01X7036954Y5108864D01*
G01X7028642Y5114405D01*
G01X7026333Y5116714D01*
G01X7024024Y5118562D01*
G01X7022176Y5119947D01*
G01X7019867Y5123180D01*
G01X7017096Y5126413D01*
G01X7014787Y5129645D01*
G01X7012478Y5133340D01*
G01X7010631Y5137034D01*
G01X7008784Y5141191D01*
G01X7006936Y5146271D01*
G01X7006013Y5151351D01*
G01X7005089Y5155045D01*
G01X7004210Y5164282D01*
G01X7035569Y5164282D01*
G01X7036493Y5152274D01*
G01X7037878Y5148118D01*
G01X7039726Y5143962D01*
G01X7042034Y5140267D01*
G01X7044344Y5137496D01*
G01X7048038Y5134725D01*
G01X7052194Y5131493D01*
G01X7056813Y5129184D01*
G01X7061431Y5127336D01*
G01X7066049Y5125951D01*
G01X7066049Y5125951D01*
G01X7070206Y5125027D01*
G01X7075747Y5124104D01*
G01X7110384Y5123642D01*
G01X7133359Y5123988D01*
G01X7141326Y5125027D01*
G01X7141787Y5165667D01*
G01X7141787Y5204922D01*
G01X7112693Y5204922D01*
G01X7082213Y5204460D01*
G01X7069282Y5203536D01*
G01X7060969Y5201689D01*
G01X7056813Y5200304D01*
G01X7052656Y5198456D01*
G01X7048962Y5196147D01*
G01X7045729Y5193376D01*
G01X7043420Y5191067D01*
G01X7041111Y5188296D01*
G01X7039264Y5185064D01*
G01X7037878Y5180907D01*
G01X7036493Y5176289D01*
G01X7035569Y5164282D01*
G01X7004210Y5164282D01*
G01X7004166Y5164744D01*
G01X7004627Y5173980D01*
G01X7006474Y5183216D01*
G01X7007398Y5185987D01*
G01X7010169Y5192453D01*
G01X7011554Y5195224D01*
G01X7013864Y5198918D01*
G01X7016173Y5202151D01*
G01X7018020Y5204460D01*
G01X7022638Y5209078D01*
G01X7024947Y5210925D01*
G01X7027256Y5212311D01*
G01X7030489Y5214620D01*
G01X7035107Y5217391D01*
G01X7039264Y5219238D01*
G01X7042958Y5220624D01*
G01X7047576Y5222009D01*
G01X7051271Y5223856D01*
G01X7051386Y5225126D01*
G01X7049886Y5226165D01*
G01X7045267Y5228936D01*
G01X7040649Y5232631D01*
G01X7035107Y5238173D01*
G01X7032336Y5241405D01*
G01X7030027Y5244638D01*
G01X7027256Y5250180D01*
G01X7025871Y5253413D01*
G01X7024024Y5260802D01*
G01X7023783Y5266344D01*
G01X7054504Y5266344D01*
G01X7054504Y5260802D01*
G01X7055427Y5253413D01*
G01X7056813Y5248794D01*
G01X7058198Y5246024D01*
G01X7059584Y5243714D01*
G01X7061431Y5241405D01*
G01X7064664Y5238634D01*
G01X7068820Y5236325D01*
G01X7072976Y5234478D01*
G01X7078518Y5232631D01*
G01X7084984Y5231245D01*
G01X7084984Y5231245D01*
G01X7089602Y5230322D01*
G01X7115926Y5229860D01*
G01X7141326Y5230322D01*
G01X7141787Y5261725D01*
G01X7141441Y5285047D01*
G01X7140402Y5293129D01*
G01X7137631Y5293129D01*
G01X7077594Y5292205D01*
G01X7073900Y5291282D01*
G01X7069744Y5289896D01*
G01X7066049Y5288049D01*
G01X7061893Y5285278D01*
G01X7058198Y5281122D01*
G01X7055889Y5276042D01*
G01X7054966Y5270500D01*
G01X7054504Y5266344D01*
G01X7023783Y5266344D01*
G01X7023562Y5271424D01*
G01X7024024Y5281122D01*
G01X7025409Y5285278D01*
G01X7027256Y5290358D01*
G01X7029566Y5294514D01*
G01X7031874Y5297747D01*
G01X7036493Y5302365D01*
G01X7039264Y5304674D01*
G01X7042034Y5306522D01*
G01X7045267Y5308831D01*
G01X7048962Y5310678D01*
G01X7052194Y5312064D01*
G01X7055889Y5313449D01*
G01X7059122Y5314373D01*
G01X7062816Y5315296D01*
G01X7067434Y5316682D01*
G01X7073900Y5317605D01*
G01X7079442Y5318067D01*
G01X7087754Y5318991D01*
G01X7129318Y5319453D01*
G01X7159683Y5319106D01*
G37*
G36*
G01X5366096Y4723707D02*
G01X5358707Y4722322D01*
G01X5351318Y4721860D01*
G01X5347624Y4721398D01*
G01X5344853Y4720936D01*
G01X5341158Y4721398D01*
G01X5329151Y4722322D01*
G01X5319914Y4724169D01*
G01X5316682Y4725554D01*
G01X5312526Y4727402D01*
G01X5307907Y4729711D01*
G01X5303289Y4732482D01*
G01X5300056Y4734791D01*
G01X5297747Y4736638D01*
G01X5293129Y4741256D01*
G01X5290820Y4744027D01*
G01X5288973Y4746798D01*
G01X5287126Y4749107D01*
G01X5285278Y4751878D01*
G01X5281584Y4759267D01*
G01X5277889Y4767580D01*
G01X5276504Y4771274D01*
G01X5275580Y4774969D01*
G01X5274656Y4779125D01*
G01X5273271Y4783282D01*
G01X5272347Y4787438D01*
G01X5271886Y4791594D01*
G01X5270962Y4796213D01*
G01X5270038Y4802678D01*
G01X5269576Y4809144D01*
G01X5269114Y4813762D01*
G01X5268191Y4823922D01*
G01X5267863Y4834082D01*
G01X5298209Y4834082D01*
G01X5298671Y4824845D01*
G01X5299594Y4804525D01*
G01X5300518Y4798060D01*
G01X5301442Y4788824D01*
G01X5304213Y4777740D01*
G01X5305598Y4774045D01*
G01X5308369Y4767580D01*
G01X5309754Y4764809D01*
G01X5311140Y4762500D01*
G01X5312987Y4759729D01*
G01X5315296Y4756958D01*
G01X5319914Y4753264D01*
G01X5322686Y4751416D01*
G01X5326380Y4749569D01*
G01X5330998Y4748184D01*
G01X5336540Y4747260D01*
G01X5336540Y4747260D01*
G01X5341158Y4746336D01*
G01X5346238Y4745874D01*
G01X5350394Y4746336D01*
G01X5353166Y4746798D01*
G01X5356860Y4747260D01*
G01X5360554Y4748184D01*
G01X5364249Y4749569D01*
G01X5367482Y4751416D01*
G01X5371638Y4754187D01*
G01X5374871Y4757420D01*
G01X5377642Y4761114D01*
G01X5380413Y4765733D01*
G01X5384107Y4774045D01*
G01X5385493Y4778664D01*
G01X5387340Y4786053D01*
G01X5388264Y4791594D01*
G01X5389187Y4796213D01*
G01X5390111Y4804525D01*
G01X5390573Y4835929D01*
G01X5390111Y4867333D01*
G01X5389187Y4877493D01*
G01X5388264Y4883034D01*
G01X5387340Y4889500D01*
G01X5385954Y4894580D01*
G01X5384569Y4899198D01*
G01X5380413Y4908896D01*
G01X5378566Y4911667D01*
G01X5375794Y4915362D01*
G01X5371638Y4919056D01*
G01X5367482Y4921827D01*
G01X5362864Y4924136D01*
G01X5357784Y4925522D01*
G01X5354089Y4926445D01*
G01X5343467Y4926907D01*
G01X5332384Y4925984D01*
G01X5327766Y4924598D01*
G01X5324071Y4923213D01*
G01X5318529Y4919518D01*
G01X5316220Y4917209D01*
G01X5313911Y4914438D01*
G01X5311602Y4911205D01*
G01X5309293Y4907049D01*
G01X5307446Y4903354D01*
G01X5306060Y4900122D01*
G01X5304674Y4896427D01*
G01X5301904Y4885344D01*
G01X5301442Y4882111D01*
G01X5299594Y4865485D01*
G01X5298671Y4843318D01*
G01X5298209Y4834082D01*
G01X5267863Y4834082D01*
G01X5267729Y4838238D01*
G01X5268191Y4852554D01*
G01X5270038Y4872874D01*
G01X5270962Y4879340D01*
G01X5271886Y4883958D01*
G01X5272809Y4889038D01*
G01X5273733Y4892271D01*
G01X5274656Y4896427D01*
G01X5278813Y4908896D01*
G01X5280660Y4913053D01*
G01X5282969Y4917671D01*
G01X5287587Y4925060D01*
G01X5289896Y4928293D01*
G01X5300056Y4938453D01*
G01X5302827Y4940300D01*
G01X5305598Y4941685D01*
G01X5308369Y4943533D01*
G01X5311602Y4945380D01*
G01X5314834Y4946765D01*
G01X5318529Y4948151D01*
G01X5323147Y4949536D01*
G01X5327304Y4950460D01*
G01X5330998Y4950922D01*
G01X5335154Y4951845D01*
G01X5345314Y4952769D01*
G01X5355474Y4951845D01*
G01X5365634Y4949998D01*
G01X5370253Y4948613D01*
G01X5374409Y4947227D01*
G01X5377642Y4945842D01*
G01X5380413Y4944456D01*
G01X5383646Y4942609D01*
G01X5386878Y4940300D01*
G01X5391496Y4936605D01*
G01X5398424Y4929678D01*
G01X5400733Y4926907D01*
G01X5404427Y4921365D01*
G01X5406274Y4918133D01*
G01X5408122Y4914438D01*
G01X5409969Y4909820D01*
G01X5412740Y4902431D01*
G01X5414587Y4896889D01*
G01X5415973Y4891347D01*
G01X5417820Y4882111D01*
G01X5418744Y4878416D01*
G01X5419667Y4869180D01*
G01X5420591Y4862714D01*
G01X5421514Y4847936D01*
G01X5421976Y4834082D01*
G01X5421514Y4820227D01*
G01X5420591Y4807296D01*
G01X5419667Y4800831D01*
G01X5418744Y4792518D01*
G01X5417820Y4788824D01*
G01X5416896Y4783282D01*
G01X5412740Y4769427D01*
G01X5407198Y4756496D01*
G01X5404889Y4752802D01*
G01X5402580Y4748645D01*
G01X5400271Y4745874D01*
G01X5396576Y4741256D01*
G01X5391958Y4736638D01*
G01X5388264Y4733867D01*
G01X5383646Y4730634D01*
G01X5379027Y4728325D01*
G01X5374409Y4726478D01*
G01X5370714Y4725093D01*
G01X5366096Y4723707D01*
G37*
G36*
G01X5515264Y4726478D02*
G01X5479242Y4726478D01*
G01X5479242Y4768042D01*
G01X5515264Y4768042D01*
G01X5515264Y4726478D01*
G37*
G36*
G01X5698374Y4749107D02*
G01X5704609Y4747722D01*
G01X5705533Y4736176D01*
G01X5704609Y4726016D01*
G01X5645034Y4725554D01*
G01X5600816Y4725901D01*
G01X5585460Y4726940D01*
G01X5584536Y4738024D01*
G01X5584998Y4745528D01*
G01X5586384Y4748645D01*
G01X5608089Y4749569D01*
G01X5628871Y4749107D01*
G01X5629564Y4773584D01*
G01X5629794Y4847936D01*
G01X5629794Y4947227D01*
G01X5632104Y4947689D01*
G01X5644111Y4948151D01*
G01X5653809Y4948151D01*
G01X5654271Y4944918D01*
G01X5655194Y4939376D01*
G01X5656580Y4935682D01*
G01X5658427Y4932449D01*
G01X5660736Y4929678D01*
G01X5663046Y4927831D01*
G01X5666278Y4925522D01*
G01X5670434Y4923213D01*
G01X5674129Y4921827D01*
G01X5677362Y4920904D01*
G01X5681056Y4919980D01*
G01X5686598Y4919056D01*
G01X5695834Y4918594D01*
G01X5700799Y4918248D01*
G01X5703686Y4917209D01*
G01X5705071Y4913976D01*
G01X5705533Y4907049D01*
G01X5705533Y4898274D01*
G01X5703224Y4897813D01*
G01X5680133Y4897351D01*
G01X5659351Y4897351D01*
G01X5659351Y4749569D01*
G01X5681518Y4749569D01*
G01X5698374Y4749107D01*
G37*
G36*
G01X5820064Y4726478D02*
G01X5784042Y4726478D01*
G01X5784042Y4768042D01*
G01X5820064Y4768042D01*
G01X5820064Y4726478D01*
G37*
G36*
G01X5942907Y4738485D02*
G01X5940136Y4731096D01*
G01X5938751Y4727864D01*
G01X5937366Y4726016D01*
G01X5918431Y4725554D01*
G01X5904576Y4726016D01*
G01X5899034Y4727402D01*
G01X5896726Y4732020D01*
G01X5893031Y4742180D01*
G01X5891184Y4746798D01*
G01X5889798Y4750493D01*
G01X5888874Y4753725D01*
G01X5887489Y4757882D01*
G01X5885642Y4762038D01*
G01X5884256Y4765733D01*
G01X5882871Y4769889D01*
G01X5877329Y4784667D01*
G01X5875944Y4788824D01*
G01X5873173Y4796213D01*
G01X5870402Y4804525D01*
G01X5860704Y4830387D01*
G01X5857933Y4838700D01*
G01X5852391Y4853478D01*
G01X5849620Y4861791D01*
G01X5841307Y4883958D01*
G01X5838536Y4892271D01*
G01X5835766Y4899660D01*
G01X5833918Y4904278D01*
G01X5832071Y4909358D01*
G01X5830686Y4913514D01*
G01X5823758Y4931987D01*
G01X5820987Y4940300D01*
G01X5819602Y4943994D01*
G01X5819140Y4946765D01*
G01X5822373Y4947689D01*
G01X5835766Y4948151D01*
G01X5847311Y4947227D01*
G01X5849158Y4944456D01*
G01X5853314Y4933373D01*
G01X5854700Y4929216D01*
G01X5858856Y4918133D01*
G01X5861627Y4909820D01*
G01X5863013Y4906125D01*
G01X5865784Y4897813D01*
G01X5871326Y4883034D01*
G01X5874096Y4874722D01*
G01X5878253Y4863638D01*
G01X5881024Y4855325D01*
G01X5883794Y4847936D01*
G01X5886566Y4839624D01*
G01X5888413Y4835005D01*
G01X5890260Y4829925D01*
G01X5893031Y4821613D01*
G01X5895802Y4814224D01*
G01X5897187Y4810067D01*
G01X5898573Y4806373D01*
G01X5899958Y4802216D01*
G01X5902729Y4794827D01*
G01X5904114Y4790671D01*
G01X5906886Y4783282D01*
G01X5909656Y4774969D01*
G01X5912427Y4767580D01*
G01X5915198Y4759267D01*
G01X5916584Y4756034D01*
G01X5917161Y4754764D01*
G01X5917969Y4754649D01*
G01X5919354Y4757882D01*
G01X5920740Y4762038D01*
G01X5923511Y4769427D01*
G01X5926282Y4777740D01*
G01X5929053Y4785129D01*
G01X5931824Y4793442D01*
G01X5935980Y4804525D01*
G01X5937366Y4808682D01*
G01X5941060Y4818842D01*
G01X5943831Y4826231D01*
G01X5945216Y4830387D01*
G01X5947987Y4837776D01*
G01X5950758Y4846089D01*
G01X5952144Y4849784D01*
G01X5954914Y4858096D01*
G01X5960456Y4872874D01*
G01X5963227Y4881187D01*
G01X5965998Y4888576D01*
G01X5968769Y4896889D01*
G01X5971540Y4904278D01*
G01X5974311Y4912591D01*
G01X5978467Y4923674D01*
G01X5979853Y4927831D01*
G01X5983547Y4937991D01*
G01X5984933Y4942147D01*
G01X5986780Y4945842D01*
G01X5990474Y4947689D01*
G01X6004791Y4948151D01*
G01X6014027Y4947804D01*
G01X6017722Y4946765D01*
G01X6017722Y4943994D01*
G01X6014951Y4936605D01*
G01X6012180Y4928293D01*
G01X6005253Y4909820D01*
G01X6003867Y4905664D01*
G01X6002020Y4900584D01*
G01X6000173Y4895965D01*
G01X5997402Y4888576D01*
G01X5994631Y4880264D01*
G01X5986318Y4858096D01*
G01X5983547Y4849784D01*
G01X5978006Y4835005D01*
G01X5976620Y4830849D01*
G01X5973849Y4823460D01*
G01X5972464Y4819304D01*
G01X5970616Y4814685D01*
G01X5968769Y4809605D01*
G01X5965998Y4802216D01*
G01X5964613Y4798060D01*
G01X5959071Y4783282D01*
G01X5956300Y4774969D01*
G01X5949373Y4756496D01*
G01X5946602Y4748184D01*
G01X5944754Y4743565D01*
G01X5942907Y4738485D01*
G37*
G36*
G01X5280660Y5264034D02*
G01X5288511Y5263688D01*
G01X5291744Y5262649D01*
G01X5292667Y5148580D01*
G01X5292667Y5035896D01*
G01X5264958Y5035896D01*
G01X5264496Y5038205D01*
G01X5264034Y5072380D01*
G01X5264034Y5104245D01*
G01X5261264Y5103784D01*
G01X5257569Y5102398D01*
G01X5254798Y5101013D01*
G01X5251566Y5099627D01*
G01X5247409Y5098242D01*
G01X5242791Y5096856D01*
G01X5233554Y5095009D01*
G01X5220624Y5094085D01*
G01X5208154Y5094547D01*
G01X5204460Y5095471D01*
G01X5199842Y5096856D01*
G01X5194762Y5098704D01*
G01X5190144Y5100551D01*
G01X5185987Y5102860D01*
G01X5181369Y5105631D01*
G01X5178136Y5107940D01*
G01X5175827Y5109787D01*
G01X5166591Y5119024D01*
G01X5164744Y5121333D01*
G01X5163358Y5123642D01*
G01X5161049Y5126874D01*
G01X5158278Y5131493D01*
G01X5155969Y5136111D01*
G01X5154122Y5140267D01*
G01X5152274Y5144885D01*
G01X5150427Y5150427D01*
G01X5149042Y5156431D01*
G01X5148118Y5161049D01*
G01X5147194Y5166591D01*
G01X5146733Y5174442D01*
G01X5146271Y5179522D01*
G01X5146155Y5180907D01*
G01X5175366Y5180907D01*
G01X5175827Y5168438D01*
G01X5176751Y5161973D01*
G01X5177674Y5158278D01*
G01X5178598Y5153660D01*
G01X5179984Y5149965D01*
G01X5182754Y5143500D01*
G01X5185064Y5139805D01*
G01X5187834Y5135187D01*
G01X5190606Y5132416D01*
G01X5192914Y5130569D01*
G01X5196147Y5127798D01*
G01X5199842Y5125489D01*
G01X5203536Y5123642D01*
G01X5209078Y5121794D01*
G01X5214620Y5120409D01*
G01X5214620Y5120409D01*
G01X5219700Y5119947D01*
G01X5223856Y5119485D01*
G01X5227551Y5119485D01*
G01X5234940Y5119947D01*
G01X5241406Y5120409D01*
G01X5246024Y5121794D01*
G01X5251104Y5123180D01*
G01X5258493Y5125951D01*
G01X5262187Y5127798D01*
G01X5263573Y5140614D01*
G01X5264034Y5176289D01*
G01X5263688Y5211734D01*
G01X5262649Y5223856D01*
G01X5260340Y5225242D01*
G01X5257107Y5227551D01*
G01X5252489Y5230322D01*
G01X5244176Y5234478D01*
G01X5240020Y5236325D01*
G01X5235864Y5237711D01*
G01X5231246Y5239096D01*
G01X5225704Y5240482D01*
G01X5221086Y5240944D01*
G01X5217391Y5241405D01*
G01X5213696Y5241405D01*
G01X5209078Y5240944D01*
G01X5204922Y5240020D01*
G01X5200304Y5238634D01*
G01X5196609Y5237249D01*
G01X5193376Y5234940D01*
G01X5190144Y5232169D01*
G01X5184602Y5224780D01*
G01X5182754Y5221547D01*
G01X5181369Y5218314D01*
G01X5179984Y5214620D01*
G01X5178598Y5210002D01*
G01X5177674Y5204922D01*
G01X5176751Y5200765D01*
G01X5175827Y5193376D01*
G01X5175366Y5180907D01*
G01X5146155Y5180907D01*
G01X5145809Y5185064D01*
G01X5146271Y5190605D01*
G01X5147194Y5204460D01*
G01X5148118Y5210925D01*
G01X5149042Y5214620D01*
G01X5150427Y5219700D01*
G01X5152274Y5225242D01*
G01X5154122Y5229860D01*
G01X5155507Y5233093D01*
G01X5158740Y5239558D01*
G01X5161049Y5242791D01*
G01X5162896Y5245100D01*
G01X5164282Y5247409D01*
G01X5166129Y5249718D01*
G01X5170747Y5254336D01*
G01X5173518Y5256645D01*
G01X5176289Y5258493D01*
G01X5179522Y5260340D01*
G01X5186911Y5264034D01*
G01X5192453Y5265882D01*
G01X5198918Y5267267D01*
G01X5204460Y5267729D01*
G01X5208154Y5268191D01*
G01X5211387Y5268653D01*
G01X5214620Y5268191D01*
G01X5224780Y5267267D01*
G01X5234478Y5264034D01*
G01X5239558Y5261725D01*
G01X5247871Y5257569D01*
G01X5251566Y5255260D01*
G01X5259878Y5249718D01*
G01X5263111Y5247871D01*
G01X5263804Y5249487D01*
G01X5264034Y5255260D01*
G01X5264034Y5263111D01*
G01X5267267Y5263573D01*
G01X5280660Y5264034D01*
G37*
G36*
G01X5451533Y5045594D02*
G01X5453380Y5041900D01*
G01X5454766Y5038667D01*
G01X5455689Y5036358D01*
G01X5440911Y5035896D01*
G01X5425671Y5035896D01*
G01X5425209Y5038205D01*
G01X5423824Y5041900D01*
G01X5420129Y5050213D01*
G01X5415973Y5059911D01*
G01X5414587Y5063605D01*
G01X5409046Y5076074D01*
G01X5405351Y5085311D01*
G01X5403504Y5089005D01*
G01X5402118Y5092238D01*
G01X5400733Y5095933D01*
G01X5398886Y5100089D01*
G01X5397038Y5104707D01*
G01X5393344Y5113020D01*
G01X5391496Y5117638D01*
G01X5387802Y5125951D01*
G01X5385954Y5130569D01*
G01X5382260Y5138882D01*
G01X5380413Y5143500D01*
G01X5378566Y5147656D01*
G01X5376718Y5152274D01*
G01X5374871Y5156431D01*
G01X5345776Y5224318D01*
G01X5344391Y5228013D01*
G01X5340696Y5236325D01*
G01X5338849Y5240944D01*
G01X5337002Y5245100D01*
G01X5331460Y5258031D01*
G01X5330074Y5260802D01*
G01X5330536Y5262649D01*
G01X5344853Y5263111D01*
G01X5355128Y5262649D01*
G01X5359169Y5261264D01*
G01X5362864Y5252951D01*
G01X5364249Y5249256D01*
G01X5367020Y5242791D01*
G01X5368406Y5239096D01*
G01X5370253Y5234940D01*
G01X5372100Y5230322D01*
G01X5375794Y5222009D01*
G01X5383184Y5203536D01*
G01X5386878Y5195224D01*
G01X5390573Y5185987D01*
G01X5392420Y5181831D01*
G01X5397962Y5168900D01*
G01X5399347Y5165205D01*
G01X5402118Y5158740D01*
G01X5403504Y5155045D01*
G01X5405351Y5150889D01*
G01X5407198Y5146271D01*
G01X5409507Y5143038D01*
G01X5410662Y5142923D01*
G01X5411354Y5144424D01*
G01X5414126Y5150889D01*
G01X5415511Y5154584D01*
G01X5417358Y5158740D01*
G01X5419206Y5163358D01*
G01X5421053Y5167514D01*
G01X5422900Y5172133D01*
G01X5424747Y5176289D01*
G01X5427518Y5183678D01*
G01X5429366Y5187834D01*
G01X5431213Y5192453D01*
G01X5434907Y5200765D01*
G01X5438602Y5210002D01*
G01X5440449Y5214158D01*
G01X5441834Y5217853D01*
G01X5444606Y5224318D01*
G01X5445991Y5228013D01*
G01X5447838Y5232169D01*
G01X5449686Y5236787D01*
G01X5451533Y5240944D01*
G01X5454304Y5248333D01*
G01X5456151Y5252489D01*
G01X5457998Y5257107D01*
G01X5460307Y5261264D01*
G01X5465041Y5262649D01*
G01X5476471Y5263111D01*
G01X5491249Y5263111D01*
G01X5490326Y5260340D01*
G01X5488478Y5256184D01*
G01X5481551Y5240020D01*
G01X5480166Y5236325D01*
G01X5476471Y5227089D01*
G01X5474624Y5222933D01*
G01X5472776Y5218314D01*
G01X5469082Y5210002D01*
G01X5465387Y5200765D01*
G01X5463540Y5196609D01*
G01X5457998Y5183678D01*
G01X5455227Y5176289D01*
G01X5453380Y5172133D01*
G01X5451533Y5167514D01*
G01X5447838Y5159202D01*
G01X5445991Y5154584D01*
G01X5442296Y5146271D01*
G01X5440911Y5142576D01*
G01X5439526Y5139344D01*
G01X5438140Y5135649D01*
G01X5427056Y5109787D01*
G01X5426133Y5106554D01*
G01X5426133Y5103322D01*
G01X5427518Y5099627D01*
G01X5429366Y5095471D01*
G01X5431674Y5090853D01*
G01X5433522Y5086234D01*
G01X5434907Y5083002D01*
G01X5436293Y5080231D01*
G01X5440449Y5070533D01*
G01X5444144Y5062220D01*
G01X5445991Y5058525D01*
G01X5447838Y5053907D01*
G01X5451533Y5045594D01*
G37*
G36*
G01X5579918Y5292667D02*
G01X5579456Y5290358D01*
G01X5578994Y5192914D01*
G01X5578533Y5097318D01*
G01X5564678Y5096856D01*
G01X5554403Y5097203D01*
G01X5550362Y5098242D01*
G01X5549438Y5195685D01*
G01X5549438Y5291744D01*
G01X5547129Y5292205D01*
G01X5507874Y5292667D01*
G01X5470929Y5292667D01*
G01X5470929Y5318529D01*
G01X5474162Y5318991D01*
G01X5566987Y5319453D01*
G01X5634413Y5319106D01*
G01X5657504Y5318067D01*
G01X5658427Y5304674D01*
G01X5658427Y5292667D01*
G01X5579918Y5292667D01*
G37*
G36*
G01X5876406Y5095933D02*
G01X5866707Y5094547D01*
G01X5862551Y5094085D01*
G01X5859318Y5093624D01*
G01X5848696Y5093162D01*
G01X5837151Y5093624D01*
G01X5827914Y5094547D01*
G01X5821449Y5095471D01*
G01X5817754Y5096856D01*
G01X5808518Y5100551D01*
G01X5804362Y5102860D01*
G01X5800667Y5105169D01*
G01X5796511Y5107940D01*
G01X5788660Y5115791D01*
G01X5786351Y5119024D01*
G01X5783580Y5123180D01*
G01X5781271Y5128260D01*
G01X5779886Y5133340D01*
G01X5778500Y5138882D01*
G01X5777576Y5146271D01*
G01X5778038Y5151813D01*
G01X5779886Y5160125D01*
G01X5781271Y5163820D01*
G01X5784042Y5168438D01*
G01X5786813Y5172133D01*
G01X5791431Y5176751D01*
G01X5794664Y5179522D01*
G01X5798820Y5182293D01*
G01X5803438Y5184602D01*
G01X5813598Y5188296D01*
G01X5819602Y5190144D01*
G01X5826991Y5191529D01*
G01X5832533Y5192453D01*
G01X5842693Y5194300D01*
G01X5857471Y5197994D01*
G01X5861627Y5199380D01*
G01X5865784Y5201227D01*
G01X5869016Y5203074D01*
G01X5873173Y5205845D01*
G01X5875944Y5209540D01*
G01X5877329Y5213234D01*
G01X5878253Y5220624D01*
G01X5877329Y5228013D01*
G01X5875482Y5231245D01*
G01X5873634Y5233554D01*
G01X5870864Y5235864D01*
G01X5866707Y5238173D01*
G01X5863013Y5240020D01*
G01X5859318Y5241405D01*
G01X5855624Y5242329D01*
G01X5850082Y5243253D01*
G01X5839460Y5243714D01*
G01X5831609Y5243253D01*
G01X5825144Y5242329D01*
G01X5821449Y5241405D01*
G01X5808980Y5237249D01*
G01X5805286Y5235864D01*
G01X5802053Y5234478D01*
G01X5794664Y5230784D01*
G01X5791431Y5228936D01*
G01X5788660Y5226627D01*
G01X5787621Y5225704D01*
G01X5786351Y5225704D01*
G01X5784504Y5228474D01*
G01X5784042Y5242329D01*
G01X5784504Y5251334D01*
G01X5785889Y5255260D01*
G01X5790046Y5257569D01*
G01X5800206Y5261264D01*
G01X5804824Y5262649D01*
G01X5823296Y5266344D01*
G01X5826991Y5267267D01*
G01X5840846Y5267729D01*
G01X5855162Y5266805D01*
G01X5858856Y5265882D01*
G01X5862089Y5265420D01*
G01X5866246Y5264496D01*
G01X5870864Y5263111D01*
G01X5874558Y5261725D01*
G01X5877791Y5260340D01*
G01X5881486Y5258493D01*
G01X5886104Y5255722D01*
G01X5890722Y5252027D01*
G01X5896264Y5246485D01*
G01X5898573Y5243714D01*
G01X5900420Y5240482D01*
G01X5902729Y5236787D01*
G01X5904576Y5232169D01*
G01X5906424Y5224780D01*
G01X5906886Y5215082D01*
G01X5906424Y5206307D01*
G01X5905500Y5202613D01*
G01X5904114Y5198918D01*
G01X5902729Y5196147D01*
G01X5900882Y5192914D01*
G01X5898573Y5189682D01*
G01X5893954Y5185064D01*
G01X5891646Y5183216D01*
G01X5889336Y5181831D01*
G01X5886566Y5179984D01*
G01X5882871Y5178136D01*
G01X5874558Y5174442D01*
G01X5870402Y5173056D01*
G01X5866707Y5172133D01*
G01X5862089Y5171209D01*
G01X5857009Y5169824D01*
G01X5851006Y5168438D01*
G01X5845464Y5167514D01*
G01X5835304Y5165667D01*
G01X5830686Y5164282D01*
G01X5824682Y5162434D01*
G01X5819602Y5160587D01*
G01X5814984Y5158278D01*
G01X5811751Y5155507D01*
G01X5809904Y5153198D01*
G01X5808056Y5149504D01*
G01X5807133Y5141191D01*
G01X5808056Y5133802D01*
G01X5809442Y5130569D01*
G01X5811289Y5128260D01*
G01X5813598Y5125951D01*
G01X5816831Y5123180D01*
G01X5820987Y5121333D01*
G01X5824682Y5119947D01*
G01X5828376Y5119024D01*
G01X5831609Y5118562D01*
G01X5838998Y5117638D01*
G01X5845002Y5117176D01*
G01X5851006Y5117638D01*
G01X5860242Y5118562D01*
G01X5865322Y5119485D01*
G01X5870864Y5120871D01*
G01X5879176Y5123642D01*
G01X5883794Y5125489D01*
G01X5887951Y5127336D01*
G01X5891646Y5129184D01*
G01X5901344Y5134725D01*
G01X5903653Y5136573D01*
G01X5906424Y5137958D01*
G01X5907578Y5137727D01*
G01X5908271Y5136111D01*
G01X5908733Y5121333D01*
G01X5908386Y5111634D01*
G01X5907347Y5107478D01*
G01X5904114Y5105631D01*
G01X5900882Y5104245D01*
G01X5897187Y5102398D01*
G01X5892569Y5101013D01*
G01X5888413Y5099627D01*
G01X5883794Y5098242D01*
G01X5879638Y5096856D01*
G01X5876406Y5095933D01*
G37*
G36*
G01X5977544Y5270038D02*
G01X5976620Y5257107D01*
G01X5975696Y5245100D01*
G01X5975234Y5243253D01*
G01X5965074Y5242791D01*
G01X5954914Y5242791D01*
G01X5954914Y5248333D01*
G01X5954453Y5255260D01*
G01X5953529Y5267267D01*
G01X5952606Y5280198D01*
G01X5951682Y5292205D01*
G01X5950758Y5305136D01*
G01X5949834Y5317144D01*
G01X5949373Y5323609D01*
G01X5949373Y5328689D01*
G01X5981700Y5328689D01*
G01X5981700Y5324994D01*
G01X5981238Y5319914D01*
G01X5980314Y5306984D01*
G01X5979391Y5294976D01*
G01X5978467Y5282045D01*
G01X5977544Y5270038D01*
G37*
G36*
G01X6171046Y5264034D02*
G01X6171507Y5261725D01*
G01X6171969Y5178598D01*
G01X6171046Y5097318D01*
G01X6157653Y5096856D01*
G01X6148070Y5097203D01*
G01X6144260Y5098242D01*
G01X6143336Y5160587D01*
G01X6142990Y5206538D01*
G01X6141951Y5222471D01*
G01X6138256Y5225242D01*
G01X6134100Y5228013D01*
G01X6130867Y5229860D01*
G01X6127173Y5231707D01*
G01X6123016Y5234016D01*
G01X6118860Y5235864D01*
G01X6115166Y5237249D01*
G01X6111009Y5239096D01*
G01X6104082Y5240482D01*
G01X6098078Y5240944D01*
G01X6095307Y5241405D01*
G01X6092998Y5241405D01*
G01X6082838Y5240482D01*
G01X6079144Y5239096D01*
G01X6074987Y5236787D01*
G01X6071754Y5234478D01*
G01X6069446Y5232169D01*
G01X6067136Y5228936D01*
G01X6064827Y5224780D01*
G01X6063442Y5219700D01*
G01X6062518Y5215544D01*
G01X6061594Y5207231D01*
G01X6061133Y5151813D01*
G01X6061133Y5097780D01*
G01X6057900Y5097318D01*
G01X6044046Y5096856D01*
G01X6033424Y5096856D01*
G01X6032962Y5099165D01*
G01X6032500Y5158278D01*
G01X6032962Y5216467D01*
G01X6033886Y5224780D01*
G01X6034809Y5228936D01*
G01X6036194Y5233093D01*
G01X6037580Y5236325D01*
G01X6038966Y5240020D01*
G01X6041274Y5244176D01*
G01X6043584Y5247871D01*
G01X6046354Y5251565D01*
G01X6051896Y5257107D01*
G01X6054667Y5258954D01*
G01X6057438Y5260340D01*
G01X6060671Y5262649D01*
G01X6065289Y5264496D01*
G01X6078220Y5267729D01*
G01X6088380Y5268653D01*
G01X6096693Y5268191D01*
G01X6105929Y5265882D01*
G01X6111009Y5264496D01*
G01X6114704Y5263111D01*
G01X6118860Y5261264D01*
G01X6126249Y5257569D01*
G01X6129482Y5255722D01*
G01X6132714Y5253413D01*
G01X6137333Y5250180D01*
G01X6141489Y5247409D01*
G01X6143336Y5246485D01*
G01X6143336Y5263111D01*
G01X6145646Y5263573D01*
G01X6159500Y5264034D01*
G01X6171046Y5264034D01*
G37*
G36*
G01X6316518Y5096394D02*
G01X6312824Y5095471D01*
G01X6308206Y5094547D01*
G01X6295274Y5092700D01*
G01X6288809Y5092700D01*
G01X6282344Y5093162D01*
G01X6278649Y5093624D01*
G01X6272184Y5094547D01*
G01X6268027Y5095471D01*
G01X6264333Y5096856D01*
G01X6261100Y5098242D01*
G01X6257406Y5099627D01*
G01X6254173Y5101474D01*
G01X6246784Y5106093D01*
G01X6244013Y5108402D01*
G01X6239394Y5112096D01*
G01X6237086Y5114405D01*
G01X6231544Y5121333D01*
G01X6229696Y5124565D01*
G01X6227387Y5128260D01*
G01X6225540Y5131493D01*
G01X6223693Y5135187D01*
G01X6221846Y5140267D01*
G01X6219998Y5144885D01*
G01X6218613Y5149504D01*
G01X6217689Y5153660D01*
G01X6216766Y5159202D01*
G01X6215842Y5165667D01*
G01X6215380Y5173056D01*
G01X6214918Y5179522D01*
G01X6214918Y5181369D01*
G01X6244474Y5181369D01*
G01X6244474Y5175827D01*
G01X6244936Y5167514D01*
G01X6245398Y5161973D01*
G01X6246322Y5155507D01*
G01X6247707Y5150889D01*
G01X6249554Y5144885D01*
G01X6251402Y5140729D01*
G01X6253711Y5137034D01*
G01X6256944Y5132416D01*
G01X6262486Y5126874D01*
G01X6264794Y5125027D01*
G01X6267104Y5123642D01*
G01X6270336Y5121794D01*
G01X6274493Y5119947D01*
G01X6280496Y5118562D01*
G01X6280496Y5118562D01*
G01X6286038Y5117638D01*
G01X6292504Y5117176D01*
G01X6298046Y5117638D01*
G01X6301278Y5118100D01*
G01X6305434Y5118562D01*
G01X6309129Y5119947D01*
G01X6313747Y5121794D01*
G01X6316980Y5123642D01*
G01X6319289Y5125489D01*
G01X6326216Y5132416D01*
G01X6328526Y5135649D01*
G01X6330834Y5139805D01*
G01X6332682Y5143500D01*
G01X6334529Y5147656D01*
G01X6335914Y5153198D01*
G01X6336838Y5157354D01*
G01X6337762Y5162896D01*
G01X6338224Y5169824D01*
G01X6338686Y5173980D01*
G01X6339147Y5182293D01*
G01X6338686Y5190605D01*
G01X6337762Y5200765D01*
G01X6336838Y5205845D01*
G01X6335453Y5211387D01*
G01X6334067Y5215544D01*
G01X6332682Y5219238D01*
G01X6330834Y5222471D01*
G01X6328526Y5226627D01*
G01X6325754Y5229860D01*
G01X6323446Y5232169D01*
G01X6320213Y5234940D01*
G01X6316518Y5237249D01*
G01X6309129Y5240944D01*
G01X6304049Y5242329D01*
G01X6298969Y5243253D01*
G01X6290194Y5243714D01*
G01X6281420Y5243253D01*
G01X6277264Y5242329D01*
G01X6273107Y5240944D01*
G01X6269413Y5239096D01*
G01X6265256Y5236787D01*
G01X6262024Y5234478D01*
G01X6257406Y5229860D01*
G01X6255558Y5227551D01*
G01X6254173Y5224780D01*
G01X6250478Y5218314D01*
G01X6249093Y5214158D01*
G01X6247707Y5209540D01*
G01X6246784Y5205845D01*
G01X6245398Y5196147D01*
G01X6244474Y5181369D01*
G01X6214918Y5181369D01*
G01X6214918Y5184140D01*
G01X6215380Y5191991D01*
G01X6215842Y5197994D01*
G01X6216766Y5204460D01*
G01X6217689Y5209078D01*
G01X6219074Y5214158D01*
G01X6220460Y5218314D01*
G01X6221846Y5222009D01*
G01X6224616Y5228474D01*
G01X6228311Y5234940D01*
G01X6230158Y5237711D01*
G01X6233853Y5242329D01*
G01X6241704Y5250180D01*
G01X6246322Y5253874D01*
G01X6250478Y5257107D01*
G01X6254634Y5259416D01*
G01X6258329Y5261264D01*
G01X6262486Y5263111D01*
G01X6268027Y5264958D01*
G01X6273107Y5266344D01*
G01X6276802Y5267267D01*
G01X6284191Y5268191D01*
G01X6292966Y5268653D01*
G01X6301740Y5268191D01*
G01X6305434Y5267729D01*
G01X6309591Y5266805D01*
G01X6314209Y5265420D01*
G01X6318366Y5264496D01*
G01X6322060Y5263111D01*
G01X6331296Y5258493D01*
G01X6334529Y5256184D01*
G01X6343766Y5248794D01*
G01X6346074Y5246485D01*
G01X6350693Y5240944D01*
G01X6352540Y5238634D01*
G01X6354387Y5235402D01*
G01X6356696Y5231245D01*
G01X6360391Y5223856D01*
G01X6364086Y5213696D01*
G01X6365471Y5208154D01*
G01X6367318Y5197071D01*
G01X6367780Y5190605D01*
G01X6368242Y5185987D01*
G01X6368704Y5179522D01*
G01X6368242Y5173056D01*
G01X6367318Y5161049D01*
G01X6366394Y5154584D01*
G01X6365471Y5150427D01*
G01X6364086Y5146271D01*
G01X6362700Y5142576D01*
G01X6361314Y5138420D01*
G01X6359929Y5134725D01*
G01X6358544Y5131954D01*
G01X6354849Y5125489D01*
G01X6352540Y5122256D01*
G01X6349769Y5119024D01*
G01X6346074Y5114405D01*
G01X6343766Y5112096D01*
G01X6340533Y5109325D01*
G01X6334067Y5104707D01*
G01X6329911Y5101936D01*
G01X6326216Y5100089D01*
G01X6319751Y5097318D01*
G01X6316518Y5096394D01*
G37*
G04 Text End*
G54D10*

M02*

